<svg xmlns="http://www.w3.org/2000/svg" xmlns:xlink="http://www.w3.org/1999/xlink" width="85" height="59" viewBox="0 0 85 59"><defs><path id="tuxea" d="M188.07 4169.24v12.33s.44 8.4 8.93 8.44c8.49.03 8.93-8.44 8.93-8.44v-12.98s-2.42-2.54-8.93-2.6c-6.51-.05-8.93 3.25-8.93 3.25z"/><path id="tuxeb" d="M197 4198.3l-7.7-6.34s-10.22 3.02-10.28 12.04"/><path id="tuxec" d="M197 4198.3l7.7-6.34s10.22 3.02 10.28 12.04"/><path id="tuxed" d="M188.01 4178.01H205"/><path id="tuxee" d="M195.02 4172h3.96"/><path id="tuxef" d="M197 4173.97v-3.94"/><path id="tuxeg" d="M166.07 4154.24v12.33s.44 8.4 8.93 8.44c8.49.03 8.93-8.44 8.93-8.44v-12.98s-2.42-2.54-8.93-2.6c-6.51-.05-8.93 3.25-8.93 3.25z"/><path id="tuxeh" d="M175 4183.3l-7.7-6.34s-10.22 3.02-10.28 12.04"/><path id="tuxei" d="M175 4183.3l7.7-6.34"/><path id="tuxej" d="M166.01 4163.01H183"/><path id="tuxek" d="M173.02 4157h3.96"/><path id="tuxel" d="M175 4158.96v-3.93"/><path id="tuxem" d="M227.93 4154.24v12.33s-.44 8.4-8.96 8.44c-8.52.03-8.96-8.44-8.96-8.44v-12.98s2.43-2.54 8.96-2.6c6.53-.05 8.96 3.25 8.96 3.25z"/><path id="tuxen" d="M218.97 4183.3l7.73-6.34s10.25 3.02 10.31 12.04"/><path id="tuxeo" d="M218.97 4183.3l-7.73-6.34"/><path id="tuxep" d="M227.99 4163.01h-17.03"/><path id="tuxeq" d="M220.96 4157h-3.98"/><path id="tuxer" d="M218.97 4158.96v-3.93"/></defs><g><g transform="translate(-155 -4148)"><g><use fill="#fff" fill-opacity="0" stroke="#05a5f9" stroke-linecap="round" stroke-linejoin="round" stroke-miterlimit="50" stroke-width="2" xlink:href="#tuxea"/></g><g><use fill="#fff" fill-opacity="0" stroke="#05a5f9" stroke-linecap="round" stroke-linejoin="round" stroke-miterlimit="50" stroke-width="2" xlink:href="#tuxeb"/></g><g><use fill="#fff" fill-opacity="0" stroke="#05a5f9" stroke-linecap="round" stroke-linejoin="round" stroke-miterlimit="50" stroke-width="2" xlink:href="#tuxec"/></g><g><use fill="#fff" fill-opacity="0" stroke="#05a5f9" stroke-linecap="round" stroke-linejoin="round" stroke-miterlimit="50" stroke-width="2" xlink:href="#tuxed"/></g><g><use fill="#fff" fill-opacity="0" stroke="#05a5f9" stroke-linecap="round" stroke-linejoin="round" stroke-miterlimit="50" stroke-width="2" xlink:href="#tuxee"/></g><g><use fill="#fff" fill-opacity="0" stroke="#05a5f9" stroke-linecap="round" stroke-linejoin="round" stroke-miterlimit="50" stroke-width="2" xlink:href="#tuxef"/></g><g><use fill="#fff" fill-opacity="0" stroke="#05a5f9" stroke-linecap="round" stroke-linejoin="round" stroke-miterlimit="50" stroke-width="2" xlink:href="#tuxeg"/></g><g><use fill="#fff" fill-opacity="0" stroke="#05a5f9" stroke-linecap="round" stroke-linejoin="round" stroke-miterlimit="50" stroke-width="2" xlink:href="#tuxeh"/></g><g><use fill="#fff" fill-opacity="0" stroke="#05a5f9" stroke-linecap="round" stroke-linejoin="round" stroke-miterlimit="50" stroke-width="2" xlink:href="#tuxei"/></g><g><use fill="#fff" fill-opacity="0" stroke="#05a5f9" stroke-linecap="round" stroke-linejoin="round" stroke-miterlimit="50" stroke-width="2" xlink:href="#tuxej"/></g><g><use fill="#fff" fill-opacity="0" stroke="#05a5f9" stroke-linecap="round" stroke-linejoin="round" stroke-miterlimit="50" stroke-width="2" xlink:href="#tuxek"/></g><g><use fill="#fff" fill-opacity="0" stroke="#05a5f9" stroke-linecap="round" stroke-linejoin="round" stroke-miterlimit="50" stroke-width="2" xlink:href="#tuxel"/></g><g><use fill="#fff" fill-opacity="0" stroke="#05a5f9" stroke-linecap="round" stroke-linejoin="round" stroke-miterlimit="50" stroke-width="2" xlink:href="#tuxem"/></g><g><use fill="#fff" fill-opacity="0" stroke="#05a5f9" stroke-linecap="round" stroke-linejoin="round" stroke-miterlimit="50" stroke-width="2" xlink:href="#tuxen"/></g><g><use fill="#fff" fill-opacity="0" stroke="#05a5f9" stroke-linecap="round" stroke-linejoin="round" stroke-miterlimit="50" stroke-width="2" xlink:href="#tuxeo"/></g><g><use fill="#fff" fill-opacity="0" stroke="#05a5f9" stroke-linecap="round" stroke-linejoin="round" stroke-miterlimit="50" stroke-width="2" xlink:href="#tuxep"/></g><g><use fill="#fff" fill-opacity="0" stroke="#05a5f9" stroke-linecap="round" stroke-linejoin="round" stroke-miterlimit="50" stroke-width="2" xlink:href="#tuxeq"/></g><g><use fill="#fff" fill-opacity="0" stroke="#05a5f9" stroke-linecap="round" stroke-linejoin="round" stroke-miterlimit="50" stroke-width="2" xlink:href="#tuxer"/></g></g></g></svg>