<svg xmlns="http://www.w3.org/2000/svg" xmlns:xlink="http://www.w3.org/1999/xlink" width="30" height="26" viewBox="0 0 30 26"><defs><path id="kxgfa" d="M640 6638h-21a1 1 0 0 1 0-2h21a1 1 0 1 1 0 2zm-4 10a1 1 0 0 1 0 2h-16l-.05-.01c-.37.03-.68-.11-.78-.38l-.06-.18-.05-.14-5.03-14.22c-.13-.35.17-.8.66-.98.5-.19 1-.05 1.13.3l4.82 13.61zm-12.5 3a2.5 2.5 0 1 1 0 5 2.5 2.5 0 0 1 0-5zm9 0a2.5 2.5 0 1 1 0 5 2.5 2.5 0 0 1 0-5zm-10.5-4a1 1 0 1 1 0-2h15a1 1 0 0 1 0 2zm-1-3a1 1 0 0 1 0-2h17a1 1 0 1 1 0 2zm-1-3a1 1 0 0 1 0-2h19a1 1 0 1 1 0 2z"/></defs><g><g transform="translate(-612 -6632)"><use fill="#3ec4f0" xlink:href="#kxgfa"/></g></g></svg>