<svg xmlns="http://www.w3.org/2000/svg" xmlns:xlink="http://www.w3.org/1999/xlink" width="488" height="460" viewBox="0 0 488 460"><defs><path id="rhbia" d="M835.6 4148.84s-21.74-15.66-26.4-26.97c-4.64-11.31-17.65-41-19.79-48.55-2.14-7.54-12.3-5.7-21-6-8.7-.29-35.5 4.03-43.8 5.4-8.28 1.38-8.05 9.43-19.2 12.59-11.14 3.16-15.71-6.33-16.2-10.79-.47-4.46-2.71-14.44 6-17.98 8.73-3.54 14.26 1.26 21.6 4.2 7.36 2.93 11.6.45 18.6-1.8 7.01-2.25 42.43-9.74 45.6-11.99 3.17-2.25 3.66-19.22 7.8-34.76 4.14-15.55 15.85-45.01 17.4-50.35 1.55-5.34-8.63-11.53-13.2-16.78-4.57-5.26-25.42-21.16-28.8-25.18-3.37-4.02-13.4.4-21.6-2.4-8.19-2.79-6.7-11.97-6-14.38.72-2.4 3.63-11.31 13.2-10.79 9.58.53 16.13 12.94 16.2 16.18.08 3.25 12.45 10.73 25.8 16.79 13.35 6.05 27.3 15.15 33 14.38 5.7-.77 12.92-9.73 19.8-17.98 6.87-8.25 24.14-17.23 30.6-19.78 6.45-2.55 13.8-4.8 13.8-4.8"/><path id="rhbib" d="M854.8 4162.03s10.55 8.01 27.6 13.79c17.06 5.77 41.4 10.79 41.4 10.79"/><path id="rhbic" d="M943.6 4187.2s23.44-5.13 28.2-.6c4.75 4.54 17.13 33.9 19.2 41.36 2.06 7.47 3.58 11.26 1.8 15.59-1.79 4.32-.04 13.36 1.8 16.18 1.83 2.82 8.09 4.76 14.4 3 6.3-1.77 8.32-13.61 4.2-17.99-4.13-4.37-10.73-8.58-12-14.38-1.28-5.8-9.57-36.65-9-42.56.56-5.9 5.02-13.43 13.2-15.58 8.16-2.15 28.12-15 35.4-22.18 7.26-7.17 8.85-12.96 13.8-17.38 4.93-4.41 8.39-4.8 8.39-4.8"/><path id="rhbid" d="M1090.59 4135.66s15.2 5.73 19.8 9.59c4.6 3.86 6.72 13.52 12 17.38 5.28 3.86 19 5.28 21-3.6 1.98-8.88-1.56-18.71-9-18.58-7.45.14-12.54-.24-21.6-5.4-9.07-5.14-31.9-21.29-34.8-25.76-2.9-4.48-3.83-8.41-1.8-12 2.03-3.57 8.91-16.14 10.2-31.76 1.28-15.62 6-25.77 6-25.77"/><path id="rhbie" d="M1160.18 4033.16s13.8-2.83 13.2-11.98c-.6-9.15-4.58-16.08-12-13.19-7.41 2.89-12.2 8.79-28.8 8.4-16.6-.4-36.45 2.1-41.4-6-4.93-8.1-8.26-29.04-11.4-35.37-3.12-6.32-20.99-34.16-20.99-34.16"/><path id="rhbif" d="M1089.39 3909.1s8.3-.7 9-4.8"/><path id="rhbig" d="M1083.99 3886.32s-8.34.74-8.4 5.99c-.06 5.25-.6 9-.6 9"/><path id="rhbih" d="M1044.4 3924.08s-16.4-16.2-31.8-22.18c-15.4-5.98-28.07-9.96-31.8-14.98-3.74-5.03-.67-23.16 0-28.77.66-5.62 1.1-21.7 3.6-23.98 2.5-2.28 10.31-6.66 9.6-16.18-.72-9.52-9.95-11.28-14.4-11.4-4.46-.1-11.3 3.82-10.8 12.6.5 8.77 5.44 10.86 4.2 17.38-1.25 6.52-6.98 41.23-10.8 44.95-3.82 3.72-6.47 5.03-14.4 4.8-7.93-.24-24.8-.34-31.8 1.8-7 2.13-9.6 3-9.6 3"/><path id="rhbii" d="M925.6 3920.48s-8.98-5.38-13.2-13.19c-4.21-7.8-15.32-30.42-14.4-33.56.93-3.14 7.03-14.46 3-19.78s-13.8-6.8-21.6-3c-7.8 3.8-10.74 14.27-8.4 19.18 2.35 4.92 15.97 9.95 16.8 14.99.83 5.04 12.46 31.74 12 36.56-.45 4.82.77 10.82-3 14.38"/><path id="rhbij" d="M869.8 3902.5s-10.73-14.74-14.4-20.98c-3.65-6.23-9.24-12.2-9-14.98.26-2.8 1.18-15.15-3-17.98-4.17-2.84-10.95-5.34-16.2-1.2-5.23 4.13-5.25 18.2 1.2 22.77 6.46 4.58 10.5 1.73 11.4 6 .92 4.26 9.5 20.63 11.4 23.97a134 134 0 0 0 6 9"/><path id="rhbik" d="M853 4046.95c-2.34-1.1-5.65-8.54-7.8-10.79-2.14-2.25-16.03-1.68-22.2-3-6.15-1.3-7.44-.29-12.6 2.4-5.14 2.69-22.94 3.65-17.39-16.18 5.56-19.84 19.37-8.19 22.8-4.8 3.43 3.4 2.57 2.47 7.8 2.4 5.23-.07 20.18.9 23.4.6 3.21-.3 11-5.93 13.2-12.59"/><path id="rhbil" d="M788.81 4005.6s-20.12 1.7-25.2-1.8c-5.07-3.5-8.87-8.89-22.2-6-13.32 2.89-10.5 19.9-2.4 22.18 8.11 2.27 14.9-4.78 21-5.4 6.1-.6 14.8 2.18 17.4 3 2.61.82 7.8 2.4 7.8 2.4"/><path id="rhbim" d="M821.2 4138.65s-19.53 26.02-24.59 26.38c-5.06.35-20.86 1.53-20.4 10.79.46 9.25 11.6 16.43 19.2 13.18 7.6-3.24 7.26-14.63 9-17.98 1.74-3.34 15.84-12.48 19.2-14.98 3.36-2.51 9-6.6 9-6.6"/><path id="rhbin" d="M835 4135.66s3.29 10.25 0 16.18c-3.27 5.94-25.8 44.78-31.19 48.55-5.4 3.77-13.12 2.94-19.2 9.6a12.72 12.72 0 0 0 8.4 20.97c11.55 1.46 17.98-3.41 18-10.19.02-6.78-.9-9.56 1.8-14.98 2.7-5.43 31.67-37.33 39-43.16 7.32-5.83 10.25-10.5 18.6-9.59"/><path id="rhbio" d="M891.4 4180.01s1.01 14.22-.6 25.78c-1.6 11.55-2.29 17.84-7.8 20.97-5.5 3.14-7.96 8.15-7.8 13.19.17 5.04 10.69 9.23 16.8 8.4 6.12-.85 12.2-6.48 8.4-13.2-3.79-6.7-2.36-12-.6-19.77 1.76-7.78 10.2-30.57 10.2-30.57"/><path id="rhbip" d="M915.4 4153.64s7.75 8.42 8.4 18.58c.65 10.16.82 29.54 1.2 34.76.38 5.23 1.97 14.2-1.2 16.19-3.16 1.98-11.8 8.61-9.6 17.38 2.2 8.77 15.52 14.4 22.8 13.78 7.28-.6 13.51-12.7 12-17.98-1.51-5.27-8.84-9.8-9-14.98-.16-5.19 2.82-37.44 3-40.16.18-2.72 2.38-10.96 3.6-13.78"/><path id="rhbiq" d="M922 4108.69s7.98 3.15 8.4 10.79c.42 7.63 3.91 15.43 1.8 17.98-2.11 2.55-7.92 6.87-6 15.58s10.1 9.04 20.4 7.2c10.3-1.86 14.48-15.44 7.8-20.39-6.68-4.95-9.07-3.66-9-9.59.07-5.92 2.45-25.98 10.8-26.37"/><path id="rhbir" d="M1012.6 4112.28s9.24-6.93 22.8-1.8c13.55 5.14 28.11 12.96 28.79 16.19.68 3.22.62 17.73 7.8 19.78 7.18 2.05 16.11-4.76 17.4-10.8 1.28-6.03-1.52-17.03-12.6-19.17-11.08-2.14-8.43-.6-14.4-4.8-5.97-4.2-24.72-21.3-24.6-29.97"/><path id="rhbis" d="M1111.59 4147.65s-5.32 14.78-17.4 13.78c-12.08-1-10.8-17.38-10.8-17.38"/><path id="rhbit" d="M1062.99 4014.58s8.09 9.07 15.6 9.6c7.5.52 42.03 4.3 47.4 1.8 5.36-2.52 17.29-9.04 25.8-2.4 8.5 6.63 5.33 16.87 0 19.77-5.34 2.9-18.82-2.51-24.6-5.4-5.79-2.87-33.97.87-42.6 2.4-8.63 1.54-21.68 7.82-24.6 14.4"/><path id="rhbiu" d="M983.8 3988.81s10.02 5.26 14.4 3.6c4.37-1.67 17.07-4.52 17.4-8.4.32-3.87 7.62-11.66 14.4-11.98 6.76-.33 17.08 4.45 18.6 13.78 1.5 9.34-9.6 19.09-18.6 16.79-9.01-2.3-6.56-4.43-12-1.8-5.46 2.63-16.79 15-12 22.18"/><path id="rhbiv" d="M1107.99 4015.78s7.75-12.04-1.2-17.38c-8.96-5.34-15.87-.77-17.4 7.8"/><path id="rhbiw" d="M1030 3926.47s11.63-.2 17.4-4.2c5.75-3.98 33.96-21.51 36.59-25.16 2.63-3.66.14-14.19 6-18.59s17.06-2.53 22.2 2.4c5.13 4.93 3.65 16.6-3.6 19.18-7.26 2.59-11.26 2.35-18 4.8-6.74 2.44-15.75 17.9-21 22.17-5.25 4.29-15 13.85-15.6 20.38"/><path id="rhbix" d="M980.2 3882.72s5.43-8.4 18.6-.6c13.15 7.8 8.4 16.78 8.4 16.78"/><path id="rhbiy" d="M1018 3994.2s-3.4-6.96-1.8-11.38"/><path id="rhbiz" d="M1064.79 4130.86s-.81-8.03 2.4-11.38"/><path id="rhbiA" d="M948.4 4136.26s-3.11-2.55-9.6-1.2"/><path id="rhbiB" d="M797.21 4203.39s8.9-1.6 10.8-.6"/><path id="rhbiC" d="M942.4 4226.76s-2.82-5.36-9.6-5.4"/><path id="rhbiD" d="M820 4026.57s.28-8.23-3.6-11.39"/><path id="rhbiE" d="M891.4 3880.32s5.5-3.24 7.2-7.79"/><path id="rhbiF" d="M914.2 4118.28c-5.34-3.07-6.6-6.6-6.6-6.6s3.38 3.08 3.6-4.8c.23-7.86-5.25-12.74 2.4-12.58 7.66.16 4.6 6.26 11.4 1.8 6.8-4.46 12-9 12-9s4.78 4.8 7.8 4.2c3.02-.59 9.73-2.66 13.8-1.2 4.07 1.47 4.2 6.6 4.2 6.6s3.08.28 3 5.4c-.09 5.1-6.7 9.95-7.8 13.78"/><path id="rhbiG" d="M845.2 4048.75c3.53 8.3 4.24 11.47 11.4 11.99 7.17.52 13.8 3.07 10.8-3s-.47-4.67 2.4-7.2c2.88-2.52-.55-5.06 1.8-8.39 2.36-3.31-3.52-.53 3-4.2 6.53-3.65 6.2-2.54 4.2-5.99-1.98-3.44-6.42-2.42-4.2-7.79 2.23-5.36 3.27-1.76 3-8.39-.26-6.63 2.76-9.61-2.4-13.78-5.15-4.17-.79-5.03-8.4-6.6-7.6-1.57-8.06-2.63-9.6 0"/><path id="rhbiH" d="M997.6 3983.42c-11.58-4.7-8.66-5.16-13.8-4.8-5.15.36-2.02-.1-6 .6-3.99.71-4.5-3.89-6 1.8-1.5 5.68 8.16 9.23 4.2 16.18-3.96 6.96-7.18 7.26-4.8 10.2 2.37 2.92 4.1-3.04 3.6 5.98-.5 9.03-3.5 8.8 1.8 12 5.3 3.18 5.59 1.03 7.2 5.99 1.6 4.96 5.28 5.68 9 5.99 3.7.3 2.17-.24 9.6-1.2 7.42-.96 13.6-.77 13.2-4.2-.4-3.41 1.42-3.52.6-7.19-.83-3.67-4.2-6.59-4.2-6.59"/><path id="rhbiI" d="M891.4 3927.07c-4.95 4.44-3.91 6.08-4.2 10.8-.28 4.7-3.14 4.25-.6 8.98 2.54 4.74 6.6 9 6.6 9s-5.03 6.9 3.6 2.4c8.64-4.52 4.83-7.08 9.6-5.4 4.78 1.68 10.04 4.95 12.6 3.6 2.56-1.36 3.69-8.46 7.2-8.4 3.51.06 10.2 6.11 10.2 0 0-6.1-.56-7.02 1.2-9.59 1.76-2.56 1.86-3.17 3-6.59s.6-11.99.6-11.99 1.04-4.2-2.4-4.2c-3.44.02-10.2-1.2-10.2-1.2"/><path id="rhbiJ" d="M897.4 3945.06c5.45-4.4 3.12-7.1 7.8-4.8s1.36 7.74 8.4 2.4c7.05-5.34 4-5.76 7.8-7.2 3.8-1.43 6.48-.36 5.4-3.59s-.85-5.08-5.4-6.6c-4.55-1.5-10.8-8.39-10.8-8.39"/><path id="rhbiK" d="M867.4 4009.19c.76 3.94-1.02 5.08-1.8 7.8-.77 2.7 2.47 4.25.6 8.38-1.86 4.14-1.38 4.01-4.2 4.8-2.81.78-6.6.6-6.6.6s1.54 3.57 2.4 6.59"/><path id="rhbiL" d="M986.8 3998.4c-1.01 5.96-4.76-.07-.6 11.39 4.15 11.46.61 9.36 3.6 11.99 2.98 2.62 6 3 6 3"/><path id="rhbiM" d="M1073.19 4014.58c-3.53-7.75-1.83-8.82-7.8-9.59-5.97-.76-11.7-3.66-11.4 2.4.3 6.06.6 3.65 0 11.39s-.12 6.98-2.4 11.99c-2.28 5-3.91 2.78-1.8 9.59 2.11 6.8.3 8.39 1.2 13.78.91 5.4 3 8.4 3 8.4s3.96 2.56 6.6.6c2.64-1.97 7.8-6 7.8-6"/><path id="rhbiN" d="M1065.99 4027.17s-2.67-7.35-4.2-1.2c-1.53 6.15.68 6.4-2.4 11.99"/><path id="rhbiO" d="M1047.4 4086.5c1.25-5.57 2.2-3.22 1.2-6.58-1.02-3.37-2.38-5.47-6-9.6-3.64-4.12-.2-8.43-6-5.99-5.81 2.44-7.07 2.7-10.2 6.6-3.15 3.88-7.23 1.74-10.2 5.99-2.98 4.24-.51 5.87-4.2 9.59-3.7 3.72-9.57 6.79-9.6 10.19-.04 3.4.05 2.25 0 9.59-.06 7.34-.17 9.77 2.4 12.58 2.56 2.82 10.2 0 10.2 0"/><path id="rhbiP" d="M1037.2 4092.5c-1.56-4.38-.54-14.87-4.2-14.98-3.67-.11-9.2-.74-10.2 4.8-1.02 5.53-1.33 9.49-4.2 11.98-2.88 2.5-4.34 1.08-6.6 5.4-2.27 4.3-3 6.59-3 6.59"/><path id="rhbiQ" d="M1021.6 4101.5c3.36-1.98 3.54-4.87 6.6-3 3.04 1.87 10.8 4.8 10.8 4.8"/><path id="rhbiR" d="M944.2 3891.71c2.45 2.85-3.77 1.88 5.4 4.2 9.17 2.31 9.28 3.77 12 3 2.71-.78 6.56-2.78 9.6-1.2 3.03 1.57-2.34 1.85 4.2 1.8a47.2 47.2 0 0 0 10.8-1.2"/><path id="rhbiS" d="M1026.4 3917.48c-7.2 3.66-17.47-3.5-7.8 4.8 9.65 8.3 10.22 13.79 12 16.78 1.77 3 1.58 1.41 4.8 5.4 3.2 3.98 4.96 7.61 7.2 10.19 2.22 2.57 1.02 2.78 6 3.6 4.96.8 9.59-6.6 9.59-6.6"/><path id="rhbiT" d="M1085.19 4006.8a57.54 57.54 0 0 1-3 10.18"/><path id="rhbiU" d="M1070.79 4098.5c-4.56 4.37-7.8 5.99-7.8 5.99"/><path id="rhbiV" d="M1049.8 4125.47c-1.01 2.88-2.4 8.99-2.4 8.99"/><path id="rhbiW" d="M952.6 4169.82c6.85-5 7.8-8.99 7.8-8.99"/><path id="rhbiX" d="M923.2 4136.86c-4.97 3.33-8.61 1.89-10.8 5.4-2.18 3.5-3 7.18-3 7.18l1.8 7.2"/><path id="rhbiY" d="M869.8 4159.63s6.36.93 9-1.2c2.65-2.12 7.19-1.5 4.2-4.8-2.98-3.29-6.78-7.4-9-12.58-2.21-5.17-11.4-11.39-11.4-11.39s2.84.15-4.2-1.2c-7.03-1.34-11.77-7.23-16.8-7.79-5.02-.55-6.96-1.86-9 .6-2.02 2.47-2.93 1.87-3 4.8-.05 2.92-.6 7.8-.6 7.8"/><path id="rhbiZ" d="M838.6 4132.06s4.68 1.54 8.4 3c3.74 1.46 4.23 3.95 7.2 2.4a6.05 6.05 0 0 1 8.4 3c1.54 3.48-2.4 6.59-2.4 6.59"/><path id="rhbiaa" d="M797.21 4072.72c-1.27-9.2-.07-6.75-2.4-13.78-2.32-7.04.85-20.93-4.8-15.59"/><path id="rhbiab" d="M800.81 4085.31c1.16-4.95 2.84-3.9 2.4-10.79-.44-6.9-1.58-10.47-1.8-13.78-.22-3.32-1.8-13.79-1.8-13.79"/><path id="rhbiac" d="M808.61 3969.03c5.55-4.83-1.69-2.51 7.8-7.2 9.48-4.67 8.28-1.51 11.4-5.39 3.12-3.87 4.2-15.58 4.2-15.58"/><path id="rhbiad" d="M825.4 3947.45c-7.05 4.37-10.8 7.8-10.8 7.8"/><path id="rhbiae" d="M808.61 3976.22c5.57-3.3 9.68-5 14.4-5.99 4.72-1 4.98.98 10.2-4.8 5.22-5.78 8.85-.89 10.2-10.18 1.34-9.3 3.29-2.34 1.2-12-2.1-9.65-2.4-11.98-2.4-11.98"/><path id="rhbiaf" d="M889 3913.29c-11.6 4.93-14.43 1.98-12.6 11.99 1.84 10-.37 16.3-1.8 20.38-1.42 4.07-.32 1.76 1.2 8.99 1.53 7.22-1.08 7.51 6 11.38 7.09 3.88 17.4 6 17.4 6l10.2 5.4"/><path id="rhbiag" d="M914.2 3972.03c3.57-1.86 6.46 3.72 10.2-1.8 3.74-5.52-.28-9.63 5.4-10.19 5.68-.56 7.08 2.9 11.4-1.2s4.79-3.46 6.6-8.39c1.8-4.93.73-9.17 2.4-12.59 1.66-3.42 3.89-4.52 3.6-10.19-.29-5.66-1.2-9.59-1.2-9.59"/><path id="rhbiah" d="M939.4 3906.1c-14.85-1.85-24-4.8-24-4.8"/><path id="rhbiai" d="M931.6 3893.5c9.75 5.12 15.34 12.83 21.6 13.8 6.26.96 5.95 1.38 14.4 1.8 8.45.4 8.05 1.81 14.4.6 6.34-1.23 8.7 1.63 10.8-1.8 2.09-3.44 3-6 3-6"/><path id="rhbiaj" d="M1005.4 3908.5c-.88 5.52-2.41 13.81 3 19.17 5.4 5.37 7.37 11.04 8.4 17.39 1.02 6.34 9.6 7.79 9.6 7.79"/><path id="rhbiak" d="M1015.6 3960.04c6.97 1.37 18.88 2.57 22.8 5.4 3.9 2.82 8.74 3.97 13.8 3.6 5.04-.39 10.79-4.2 10.79-4.2"/><path id="rhbial" d="M1079.19 3994.8c-1.63 3.66-1.8 10.8-1.8 10.8"/><path id="rhbiam" d="M1069.59 3995.4c-5.01-1.04-15.6-1.2-15.6-1.2"/><path id="rhbian" d="M1046.2 4008.6c-1.65 7.5-.22 7.82-2.4 15.57-2.2 7.75-3.13 5.92-3.6 12-.49 6.06-1.39 8.03-.6 11.38"/><path id="rhbiao" d="M1055.19 4073.92c9.7-1.8 10.8-1.8 10.8-1.8s12.54-4.83 13.2-8.39l2.4-13.18"/><path id="rhbiap" d="M1077.39 4075.12c-9.15 6.34-9.75 6.22-14.4 10.19-4.65 3.97-7.8 7.2-7.8 7.2"/><path id="rhbiaq" d="M1071.99 4088.3c-4.56 4.32-5.43 8.29-10.2 10.2"/><path id="rhbiar" d="M1027 4057.14c-7.68 3.16-5.66 1.03-13.8 8.39-8.15 7.36-7.5 2.2-10.8 9.6-3.31 7.38-4.93 10.68-6 16.17-1.08 5.5-4.3 8.96-3.6 14.99.7 6.03-1.65 3.85 0 11.99 1.64 8.13-1.88 11.96 4.2 11.98 6.07.03 11.4.6 11.4.6"/><path id="rhbias" d="M1018 4127.27c7.05-5.72 14.4-10.8 14.4-10.8"/><path id="rhbiat" d="M1034.8 4122.47c-10.46 6.4-7.26 10.18-13.2 14.39-5.95 4.2-11.29 6.88-16.8 6.59-5.52-.29-15-3.6-15-3.6"/><path id="rhbiau" d="M956.8 4127.27c8.33-5.48 12.18-7.38 14.4-12.59 2.22-5.2 7.29-6.42 4.8-16.78-2.5-10.37-2.26-7.88-6.6-14.99-4.35-7.1-12.1-11.88-14.4-11.39-2.3.5-7.41 4.75-10.2 1.8-2.79-2.94-16.62-6.42-18.6-3.6"/><path id="rhbiav" d="M929.2 4079.92c-11.36 1.94-14.01-1.06-22.2 1.8-8.18 2.84-10.46 5.42-12 11.98-1.54 6.56 1.87 6 0 15.59-1.87 9.58-3.6 11.26-1.2 14.98 2.4 3.72 18 7.2 18 7.2"/><path id="rhbiaw" d="M904 4139.25c-3.49 1.95-6.47 6.93-6 10.8.47 3.86-2.12 3.91 2.4 8.98 4.52 5.08 15.6 13.2 15.6 13.2"/><path id="rhbiax" d="M902.2 4174.62a398.79 398.79 0 0 1-16.2-10.8l-8.4 1.8"/><path id="rhbiay" d="M887.8 4141.05c-4.07-6.76-7.14-5.27-11.4-17.38-4.25-12.11-4.4-14.8-13.2-14.98-8.78-.18-4.66 1.28-15-.6-10.33-1.89-10.17-6-15-4.2-4.81 1.8-13.8 14.98-13.8 14.98"/><path id="rhbiaz" d="M816.4 4106.29c5.05-8.68 13.05-15.42 17.4-14.99 4.36.44 6.2 3.06 9.6 3.6 3.41.55 5.87-.2 10.8-.6 4.95-.39 14.13-.5 17.4 2.4 3.28 2.9 10.8 14.98 10.8 14.98"/><path id="rhbiaA" d="M838.6 4055.34c.83 10.59 3.61 12.86 6.6 15.58 3 2.73 4.14 4.22 10.8 4.8 6.67.58 7.4.13 10.8 0 3.41-.13 8.64-7.4 11.4-11.39 2.77-3.99 5.95-5.97 9-11.99 3.05-6.02-2.58-5.8 3.6-13.18 6.19-7.4 12.47-4.68 6.6-16.78-5.87-12.1-9.6-14.39-9.6-14.39"/><path id="rhbiaB" d="M877.6 3991.8c-5.63-4.77 3.45-9.8-16.2-8.38-19.64 1.42-13.6 5.5-15.6 13.18-1.99 7.69-3.6 11.39-3.6 11.39"/><path id="rhbiaC" d="M804.41 3988.81c13.96-4.53 16.42-4.47 21.6-5.4 5.18-.91 12.75-4.71 15-7.19 2.24-2.47 9.08-3.08 10.2-8.99 1.11-5.9.57-11.67 1.8-14.38"/><path id="rhbiaD" d="M854.2 3936.06c.9-10.95-2.4-13.78-2.4-13.78"/><path id="rhbiaE" d="M874 3910.3c-4 1.84-8.73 1.69-9 11.38-.26 9.7.36 13.64 0 19.18-.35 5.54-2.2 10.83-1.2 16.78 1 5.95 1.61 7.41 1.8 10.2.2 2.77 7.8 6.59 7.8 6.59"/><path id="rhbiaF" d="M886 3982.22c3.7 5.14 8.82 12.47 12 14.38 3.18 1.91 12.53 14.62 13.2 17.98.68 3.37 2.43 2.3 2.4 10.2-.03 7.9-.33 11.53-4.8 16.18-4.46 4.64-12 14.98-12 14.98"/><path id="rhbiaG" d="M881.2 4087.7c2.94-5.88 18.2-11.4 21-13.78 2.8-2.38 2.1-11.89 7.2-14.98 5.1-3.1 18.6-10.8 18.6-10.8l15.6 3"/><path id="rhbiaH" d="M944.8 4060.74c16.28-.12 10.6-2.89 22.8 0 12.19 2.88 15.95 3.59 16.2 8.99.24 5.4 1.2 14.98 1.2 14.98"/><path id="rhbiaI" d="M998.8 4063.13c5.45-7.55 24-13.18 24-13.18l6.6-10.2"/><path id="rhbiaJ" d="M1027 4010.99c3.4 5.9 1.67 12.18 1.2 14.98"/><path id="rhbiaK" d="M995.2 4049.35c-15.35-1.08-10.06.68-20.4-8.4-10.34-9.07-15.16 2-16.2-12.58-1.05-14.59-7.24-21.8-3.6-29.37 3.64-7.58 4.35-3.11 3-14.39-1.35-11.27-1.96-13.29 4.2-16.18 6.16-2.89 10.2-4.55 18.6-3 8.4 1.56 23.4 1.8 23.4 1.8"/><path id="rhbiaL" d="M1000 3948.05c-7.36-9.42-14.68-13.38-12-21.58 2.67-8.19 7.2-12.58 7.2-12.58"/><path id="rhbiaM" d="M963.4 3918.08c6.58 12.73 11.87 11.25 5.4 20.98-6.47 9.73-7.9 9.63-12 14.99-4.1 5.36-10.22 8.52-14.4 17.98-4.18 9.45.28 8.09-10.2 11.39-10.49 3.3-24.6 1.8-24.6 1.8"/><path id="rhbiaN" d="M988 3958.84c-13.64-.5-22.31 1.65-13.8-6 8.5-7.64 11.65-4.64 9.6-10.78-2.06-6.14-6-16.18-6-16.18"/><path id="rhbiaO" d="M949.6 3988.81c-7.28 10.02-8.85 6.3-7.8 16.78 1.05 10.48-.2 13.38.6 18.58.8 5.2 5.2 4.57 7.2 11.4 2 6.82 13.2 13.78 13.2 13.78"/><path id="rhbiaP" d="M922.6 4042.15c3.5-7.9 7.28-16 6-21.57-1.28-5.58-8.73-9.5-8.4-16.19.33-6.69 9-8.99 9-8.99"/><path id="rhbiaQ" d="M847.6 4084.11c-11.47-5.21-24.94-12.8-24-17.38.95-4.58-.67-6.32 3-14.98 3.69-8.67 3-9.6 3-9.6"/><path id="rhbiaR" d="M829 4006.2c4.37-10.43 6.78-15.06 0-12.6-6.77 2.47-14.4 7.2-14.4 7.2"/><path id="rhbiaS" d="M814 4049.95c-1.93 13.64-3.45 21.93-.6 26.37 2.87 4.44 4.2 8.4 4.2 8.4"/><path id="rhbiaT" d="M967 4136.26c6.4-7.24 18.6-16.78 18.6-16.78l1.2-18.59"/><path id="rhbiaU" d="M981.4 4139.25c-9.09 9.8-9.44 12.56-10.8 16.79-1.37 4.23 6.04 7.02-2.4 13.18-8.44 6.17-15.6 10.2-15.6 10.2"/><path id="rhbiaV" d="M970 4176.42c12-6.02 11.86-7.17 16.8-7.2 4.93-.03 15.6-1.2 15.6-1.2"/><path id="rhbiaW" d="M984.4 4161.43c11.87-2.85 8.2-2.45 15.6-3 7.4-.54 13.97-2.28 16.2-2.4 2.22-.1 11.4-4.19 11.4-4.19"/><path id="rhbiaX" d="M1039.6 4135.06c-4.88 5.4-15 11.99-15 11.99"/></defs><g><g transform="translate(-687 -3805)"><g><use fill="#fff" fill-opacity="0" stroke="#e6e6e6" stroke-linecap="round" stroke-linejoin="round" stroke-miterlimit="50" xlink:href="#rhbia"/></g><g><use fill="#fff" fill-opacity="0" stroke="#e6e6e6" stroke-linecap="round" stroke-linejoin="round" stroke-miterlimit="50" xlink:href="#rhbib"/></g><g><use fill="#fff" fill-opacity="0" stroke="#e6e6e6" stroke-linecap="round" stroke-linejoin="round" stroke-miterlimit="50" xlink:href="#rhbic"/></g><g><use fill="#fff" fill-opacity="0" stroke="#e6e6e6" stroke-linecap="round" stroke-linejoin="round" stroke-miterlimit="50" xlink:href="#rhbid"/></g><g><use fill="#fff" fill-opacity="0" stroke="#e6e6e6" stroke-linecap="round" stroke-linejoin="round" stroke-miterlimit="50" xlink:href="#rhbie"/></g><g><use fill="#fff" fill-opacity="0" stroke="#e6e6e6" stroke-linecap="round" stroke-linejoin="round" stroke-miterlimit="50" xlink:href="#rhbif"/></g><g><use fill="#fff" fill-opacity="0" stroke="#e6e6e6" stroke-linecap="round" stroke-linejoin="round" stroke-miterlimit="50" xlink:href="#rhbig"/></g><g><use fill="#fff" fill-opacity="0" stroke="#e6e6e6" stroke-linecap="round" stroke-linejoin="round" stroke-miterlimit="50" xlink:href="#rhbih"/></g><g><use fill="#fff" fill-opacity="0" stroke="#e6e6e6" stroke-linecap="round" stroke-linejoin="round" stroke-miterlimit="50" xlink:href="#rhbii"/></g><g><use fill="#fff" fill-opacity="0" stroke="#e6e6e6" stroke-linecap="round" stroke-linejoin="round" stroke-miterlimit="50" xlink:href="#rhbij"/></g><g><use fill="#fff" fill-opacity="0" stroke="#e6e6e6" stroke-linecap="round" stroke-linejoin="round" stroke-miterlimit="50" xlink:href="#rhbik"/></g><g><use fill="#fff" fill-opacity="0" stroke="#e6e6e6" stroke-linecap="round" stroke-linejoin="round" stroke-miterlimit="50" xlink:href="#rhbil"/></g><g><use fill="#fff" fill-opacity="0" stroke="#e6e6e6" stroke-linecap="round" stroke-linejoin="round" stroke-miterlimit="50" xlink:href="#rhbim"/></g><g><use fill="#fff" fill-opacity="0" stroke="#e6e6e6" stroke-linecap="round" stroke-linejoin="round" stroke-miterlimit="50" xlink:href="#rhbin"/></g><g><use fill="#fff" fill-opacity="0" stroke="#e6e6e6" stroke-linecap="round" stroke-linejoin="round" stroke-miterlimit="50" xlink:href="#rhbio"/></g><g><use fill="#fff" fill-opacity="0" stroke="#e6e6e6" stroke-linecap="round" stroke-linejoin="round" stroke-miterlimit="50" xlink:href="#rhbip"/></g><g><use fill="#fff" fill-opacity="0" stroke="#e6e6e6" stroke-linecap="round" stroke-linejoin="round" stroke-miterlimit="50" xlink:href="#rhbiq"/></g><g><use fill="#fff" fill-opacity="0" stroke="#e6e6e6" stroke-linecap="round" stroke-linejoin="round" stroke-miterlimit="50" xlink:href="#rhbir"/></g><g><use fill="#fff" fill-opacity="0" stroke="#e6e6e6" stroke-linecap="round" stroke-linejoin="round" stroke-miterlimit="50" xlink:href="#rhbis"/></g><g><use fill="#fff" fill-opacity="0" stroke="#e6e6e6" stroke-linecap="round" stroke-linejoin="round" stroke-miterlimit="50" xlink:href="#rhbit"/></g><g><use fill="#fff" fill-opacity="0" stroke="#e6e6e6" stroke-linecap="round" stroke-linejoin="round" stroke-miterlimit="50" xlink:href="#rhbiu"/></g><g><use fill="#fff" fill-opacity="0" stroke="#e6e6e6" stroke-linecap="round" stroke-linejoin="round" stroke-miterlimit="50" xlink:href="#rhbiv"/></g><g><use fill="#fff" fill-opacity="0" stroke="#e6e6e6" stroke-linecap="round" stroke-linejoin="round" stroke-miterlimit="50" xlink:href="#rhbiw"/></g><g><use fill="#fff" fill-opacity="0" stroke="#e6e6e6" stroke-linecap="round" stroke-linejoin="round" stroke-miterlimit="50" xlink:href="#rhbix"/></g><g><use fill="#fff" fill-opacity="0" stroke="#e6e6e6" stroke-linecap="round" stroke-linejoin="round" stroke-miterlimit="50" xlink:href="#rhbiy"/></g><g><use fill="#fff" fill-opacity="0" stroke="#e6e6e6" stroke-linecap="round" stroke-linejoin="round" stroke-miterlimit="50" xlink:href="#rhbiz"/></g><g><use fill="#fff" fill-opacity="0" stroke="#e6e6e6" stroke-linecap="round" stroke-linejoin="round" stroke-miterlimit="50" xlink:href="#rhbiA"/></g><g><use fill="#fff" fill-opacity="0" stroke="#e6e6e6" stroke-linecap="round" stroke-linejoin="round" stroke-miterlimit="50" xlink:href="#rhbiB"/></g><g><use fill="#fff" fill-opacity="0" stroke="#e6e6e6" stroke-linecap="round" stroke-linejoin="round" stroke-miterlimit="50" xlink:href="#rhbiC"/></g><g><use fill="#fff" fill-opacity="0" stroke="#e6e6e6" stroke-linecap="round" stroke-linejoin="round" stroke-miterlimit="50" xlink:href="#rhbiD"/></g><g><use fill="#fff" fill-opacity="0" stroke="#e6e6e6" stroke-linecap="round" stroke-linejoin="round" stroke-miterlimit="50" xlink:href="#rhbiE"/></g><g><use fill="#fff" fill-opacity="0" stroke="#e6e6e6" stroke-linecap="round" stroke-linejoin="round" stroke-miterlimit="50" xlink:href="#rhbiF"/></g><g><use fill="#fff" fill-opacity="0" stroke="#e6e6e6" stroke-linecap="round" stroke-linejoin="round" stroke-miterlimit="50" xlink:href="#rhbiG"/></g><g><use fill="#fff" fill-opacity="0" stroke="#e6e6e6" stroke-linecap="round" stroke-linejoin="round" stroke-miterlimit="50" xlink:href="#rhbiH"/></g><g><use fill="#fff" fill-opacity="0" stroke="#e6e6e6" stroke-linecap="round" stroke-linejoin="round" stroke-miterlimit="50" xlink:href="#rhbiI"/></g><g><use fill="#fff" fill-opacity="0" stroke="#e6e6e6" stroke-linecap="round" stroke-linejoin="round" stroke-miterlimit="50" xlink:href="#rhbiJ"/></g><g><use fill="#fff" fill-opacity="0" stroke="#e6e6e6" stroke-linecap="round" stroke-linejoin="round" stroke-miterlimit="50" xlink:href="#rhbiK"/></g><g><use fill="#fff" fill-opacity="0" stroke="#e6e6e6" stroke-linecap="round" stroke-linejoin="round" stroke-miterlimit="50" xlink:href="#rhbiL"/></g><g><use fill="#fff" fill-opacity="0" stroke="#e6e6e6" stroke-linecap="round" stroke-linejoin="round" stroke-miterlimit="50" xlink:href="#rhbiM"/></g><g><use fill="#fff" fill-opacity="0" stroke="#e6e6e6" stroke-linecap="round" stroke-linejoin="round" stroke-miterlimit="50" xlink:href="#rhbiN"/></g><g><use fill="#fff" fill-opacity="0" stroke="#e6e6e6" stroke-linecap="round" stroke-linejoin="round" stroke-miterlimit="50" xlink:href="#rhbiO"/></g><g><use fill="#fff" fill-opacity="0" stroke="#e6e6e6" stroke-linecap="round" stroke-linejoin="round" stroke-miterlimit="50" xlink:href="#rhbiP"/></g><g><use fill="#fff" fill-opacity="0" stroke="#e6e6e6" stroke-linecap="round" stroke-linejoin="round" stroke-miterlimit="50" xlink:href="#rhbiQ"/></g><g><use fill="#fff" fill-opacity="0" stroke="#e6e6e6" stroke-linecap="round" stroke-linejoin="round" stroke-miterlimit="50" xlink:href="#rhbiR"/></g><g><use fill="#fff" fill-opacity="0" stroke="#e6e6e6" stroke-linecap="round" stroke-linejoin="round" stroke-miterlimit="50" xlink:href="#rhbiS"/></g><g><use fill="#fff" fill-opacity="0" stroke="#e6e6e6" stroke-linecap="round" stroke-linejoin="round" stroke-miterlimit="50" xlink:href="#rhbiT"/></g><g><use fill="#fff" fill-opacity="0" stroke="#e6e6e6" stroke-linecap="round" stroke-linejoin="round" stroke-miterlimit="50" xlink:href="#rhbiU"/></g><g><use fill="#fff" fill-opacity="0" stroke="#e6e6e6" stroke-linecap="round" stroke-linejoin="round" stroke-miterlimit="50" xlink:href="#rhbiV"/></g><g><use fill="#fff" fill-opacity="0" stroke="#e6e6e6" stroke-linecap="round" stroke-linejoin="round" stroke-miterlimit="50" xlink:href="#rhbiW"/></g><g><use fill="#fff" fill-opacity="0" stroke="#e6e6e6" stroke-linecap="round" stroke-linejoin="round" stroke-miterlimit="50" xlink:href="#rhbiX"/></g><g><use fill="#fff" fill-opacity="0" stroke="#e6e6e6" stroke-linecap="round" stroke-linejoin="round" stroke-miterlimit="50" xlink:href="#rhbiY"/></g><g><use fill="#fff" fill-opacity="0" stroke="#e6e6e6" stroke-linecap="round" stroke-linejoin="round" stroke-miterlimit="50" xlink:href="#rhbiZ"/></g><g><use fill="#fff" fill-opacity="0" stroke="#e6e6e6" stroke-linecap="round" stroke-linejoin="round" stroke-miterlimit="50" xlink:href="#rhbiaa"/></g><g><use fill="#fff" fill-opacity="0" stroke="#e6e6e6" stroke-linecap="round" stroke-linejoin="round" stroke-miterlimit="50" xlink:href="#rhbiab"/></g><g><use fill="#fff" fill-opacity="0" stroke="#e6e6e6" stroke-linecap="round" stroke-linejoin="round" stroke-miterlimit="50" xlink:href="#rhbiac"/></g><g><use fill="#fff" fill-opacity="0" stroke="#e6e6e6" stroke-linecap="round" stroke-linejoin="round" stroke-miterlimit="50" xlink:href="#rhbiad"/></g><g><use fill="#fff" fill-opacity="0" stroke="#e6e6e6" stroke-linecap="round" stroke-linejoin="round" stroke-miterlimit="50" xlink:href="#rhbiae"/></g><g><use fill="#fff" fill-opacity="0" stroke="#e6e6e6" stroke-linecap="round" stroke-linejoin="round" stroke-miterlimit="50" xlink:href="#rhbiaf"/></g><g><use fill="#fff" fill-opacity="0" stroke="#e6e6e6" stroke-linecap="round" stroke-linejoin="round" stroke-miterlimit="50" xlink:href="#rhbiag"/></g><g><use fill="#fff" fill-opacity="0" stroke="#e6e6e6" stroke-linecap="round" stroke-linejoin="round" stroke-miterlimit="50" xlink:href="#rhbiah"/></g><g><use fill="#fff" fill-opacity="0" stroke="#e6e6e6" stroke-linecap="round" stroke-linejoin="round" stroke-miterlimit="50" xlink:href="#rhbiai"/></g><g><use fill="#fff" fill-opacity="0" stroke="#e6e6e6" stroke-linecap="round" stroke-linejoin="round" stroke-miterlimit="50" xlink:href="#rhbiaj"/></g><g><use fill="#fff" fill-opacity="0" stroke="#e6e6e6" stroke-linecap="round" stroke-linejoin="round" stroke-miterlimit="50" xlink:href="#rhbiak"/></g><g><use fill="#fff" fill-opacity="0" stroke="#e6e6e6" stroke-linecap="round" stroke-linejoin="round" stroke-miterlimit="50" xlink:href="#rhbial"/></g><g><use fill="#fff" fill-opacity="0" stroke="#e6e6e6" stroke-linecap="round" stroke-linejoin="round" stroke-miterlimit="50" xlink:href="#rhbiam"/></g><g><use fill="#fff" fill-opacity="0" stroke="#e6e6e6" stroke-linecap="round" stroke-linejoin="round" stroke-miterlimit="50" xlink:href="#rhbian"/></g><g><use fill="#fff" fill-opacity="0" stroke="#e6e6e6" stroke-linecap="round" stroke-linejoin="round" stroke-miterlimit="50" xlink:href="#rhbiao"/></g><g><use fill="#fff" fill-opacity="0" stroke="#e6e6e6" stroke-linecap="round" stroke-linejoin="round" stroke-miterlimit="50" xlink:href="#rhbiap"/></g><g><use fill="#fff" fill-opacity="0" stroke="#e6e6e6" stroke-linecap="round" stroke-linejoin="round" stroke-miterlimit="50" xlink:href="#rhbiaq"/></g><g><use fill="#fff" fill-opacity="0" stroke="#e6e6e6" stroke-linecap="round" stroke-linejoin="round" stroke-miterlimit="50" xlink:href="#rhbiar"/></g><g><use fill="#fff" fill-opacity="0" stroke="#e6e6e6" stroke-linecap="round" stroke-linejoin="round" stroke-miterlimit="50" xlink:href="#rhbias"/></g><g><use fill="#fff" fill-opacity="0" stroke="#e6e6e6" stroke-linecap="round" stroke-linejoin="round" stroke-miterlimit="50" xlink:href="#rhbiat"/></g><g><use fill="#fff" fill-opacity="0" stroke="#e6e6e6" stroke-linecap="round" stroke-linejoin="round" stroke-miterlimit="50" xlink:href="#rhbiau"/></g><g><use fill="#fff" fill-opacity="0" stroke="#e6e6e6" stroke-linecap="round" stroke-linejoin="round" stroke-miterlimit="50" xlink:href="#rhbiav"/></g><g><use fill="#fff" fill-opacity="0" stroke="#e6e6e6" stroke-linecap="round" stroke-linejoin="round" stroke-miterlimit="50" xlink:href="#rhbiaw"/></g><g><use fill="#fff" fill-opacity="0" stroke="#e6e6e6" stroke-linecap="round" stroke-linejoin="round" stroke-miterlimit="50" xlink:href="#rhbiax"/></g><g><use fill="#fff" fill-opacity="0" stroke="#e6e6e6" stroke-linecap="round" stroke-linejoin="round" stroke-miterlimit="50" xlink:href="#rhbiay"/></g><g><use fill="#fff" fill-opacity="0" stroke="#e6e6e6" stroke-linecap="round" stroke-linejoin="round" stroke-miterlimit="50" xlink:href="#rhbiaz"/></g><g><use fill="#fff" fill-opacity="0" stroke="#e6e6e6" stroke-linecap="round" stroke-linejoin="round" stroke-miterlimit="50" xlink:href="#rhbiaA"/></g><g><use fill="#fff" fill-opacity="0" stroke="#e6e6e6" stroke-linecap="round" stroke-linejoin="round" stroke-miterlimit="50" xlink:href="#rhbiaB"/></g><g><use fill="#fff" fill-opacity="0" stroke="#e6e6e6" stroke-linecap="round" stroke-linejoin="round" stroke-miterlimit="50" xlink:href="#rhbiaC"/></g><g><use fill="#fff" fill-opacity="0" stroke="#e6e6e6" stroke-linecap="round" stroke-linejoin="round" stroke-miterlimit="50" xlink:href="#rhbiaD"/></g><g><use fill="#fff" fill-opacity="0" stroke="#e6e6e6" stroke-linecap="round" stroke-linejoin="round" stroke-miterlimit="50" xlink:href="#rhbiaE"/></g><g><use fill="#fff" fill-opacity="0" stroke="#e6e6e6" stroke-linecap="round" stroke-linejoin="round" stroke-miterlimit="50" xlink:href="#rhbiaF"/></g><g><use fill="#fff" fill-opacity="0" stroke="#e6e6e6" stroke-linecap="round" stroke-linejoin="round" stroke-miterlimit="50" xlink:href="#rhbiaG"/></g><g><use fill="#fff" fill-opacity="0" stroke="#e6e6e6" stroke-linecap="round" stroke-linejoin="round" stroke-miterlimit="50" xlink:href="#rhbiaH"/></g><g><use fill="#fff" fill-opacity="0" stroke="#e6e6e6" stroke-linecap="round" stroke-linejoin="round" stroke-miterlimit="50" xlink:href="#rhbiaI"/></g><g><use fill="#fff" fill-opacity="0" stroke="#e6e6e6" stroke-linecap="round" stroke-linejoin="round" stroke-miterlimit="50" xlink:href="#rhbiaJ"/></g><g><use fill="#fff" fill-opacity="0" stroke="#e6e6e6" stroke-linecap="round" stroke-linejoin="round" stroke-miterlimit="50" xlink:href="#rhbiaK"/></g><g><use fill="#fff" fill-opacity="0" stroke="#e6e6e6" stroke-linecap="round" stroke-linejoin="round" stroke-miterlimit="50" xlink:href="#rhbiaL"/></g><g><use fill="#fff" fill-opacity="0" stroke="#e6e6e6" stroke-linecap="round" stroke-linejoin="round" stroke-miterlimit="50" xlink:href="#rhbiaM"/></g><g><use fill="#fff" fill-opacity="0" stroke="#e6e6e6" stroke-linecap="round" stroke-linejoin="round" stroke-miterlimit="50" xlink:href="#rhbiaN"/></g><g><use fill="#fff" fill-opacity="0" stroke="#e6e6e6" stroke-linecap="round" stroke-linejoin="round" stroke-miterlimit="50" xlink:href="#rhbiaO"/></g><g><use fill="#fff" fill-opacity="0" stroke="#e6e6e6" stroke-linecap="round" stroke-linejoin="round" stroke-miterlimit="50" xlink:href="#rhbiaP"/></g><g><use fill="#fff" fill-opacity="0" stroke="#e6e6e6" stroke-linecap="round" stroke-linejoin="round" stroke-miterlimit="50" xlink:href="#rhbiaQ"/></g><g><use fill="#fff" fill-opacity="0" stroke="#e6e6e6" stroke-linecap="round" stroke-linejoin="round" stroke-miterlimit="50" xlink:href="#rhbiaR"/></g><g><use fill="#fff" fill-opacity="0" stroke="#e6e6e6" stroke-linecap="round" stroke-linejoin="round" stroke-miterlimit="50" xlink:href="#rhbiaS"/></g><g><use fill="#fff" fill-opacity="0" stroke="#e6e6e6" stroke-linecap="round" stroke-linejoin="round" stroke-miterlimit="50" xlink:href="#rhbiaT"/></g><g><use fill="#fff" fill-opacity="0" stroke="#e6e6e6" stroke-linecap="round" stroke-linejoin="round" stroke-miterlimit="50" xlink:href="#rhbiaU"/></g><g><use fill="#fff" fill-opacity="0" stroke="#e6e6e6" stroke-linecap="round" stroke-linejoin="round" stroke-miterlimit="50" xlink:href="#rhbiaV"/></g><g><use fill="#fff" fill-opacity="0" stroke="#e6e6e6" stroke-linecap="round" stroke-linejoin="round" stroke-miterlimit="50" xlink:href="#rhbiaW"/></g><g><use fill="#fff" fill-opacity="0" stroke="#e6e6e6" stroke-linecap="round" stroke-linejoin="round" stroke-miterlimit="50" xlink:href="#rhbiaX"/></g></g></g></svg>