<svg xmlns="http://www.w3.org/2000/svg" xmlns:xlink="http://www.w3.org/1999/xlink" width="67" height="61" viewBox="0 0 67 61"><defs><path id="gs1sa" d="M851.99 4348.3c.05 1.44.05 8.26-4.01 16.7-4.57 9.49-10.94 13.97-10.98 14-.04-.03-6.4-4.51-10.98-14-4.06-8.44-4.06-15.26-4-16.7l-.02-.3a15 15 0 1 1 30 0l-.01.3z"/><path id="gs1sb" d="M837 4343a6 6 0 1 1 0 12 6 6 0 0 1 0-12z"/><path id="gs1sc" d="M849.87 4370.02c10.7 1.57 18.13 5.03 18.13 9.04 0 5.5-13.88 9.95-31 9.95-17.12 0-31-4.45-31-9.95 0-4.03 7.5-7.5 18.27-9.06"/><path id="gs1sd" d="M847.12 4374.02c7.59.9 11.86 1.9 11.86 4.23 0 3.17-9.85 5.74-22 5.74s-22-2.57-22-5.74c0-2.33 4.33-3.34 11.97-4.24"/></defs><g><g transform="translate(-803 -4331)"><g><use fill="#fff" fill-opacity="0" stroke="#05a5f9" stroke-linecap="round" stroke-linejoin="round" stroke-miterlimit="50" stroke-width="2" xlink:href="#gs1sa"/></g><g><use fill="#fff" fill-opacity="0" stroke="#05a5f9" stroke-linecap="round" stroke-linejoin="round" stroke-miterlimit="50" stroke-width="2" xlink:href="#gs1sb"/></g><g><use fill="#fff" fill-opacity="0" stroke="#05a5f9" stroke-linecap="round" stroke-linejoin="round" stroke-miterlimit="50" stroke-width="2" xlink:href="#gs1sc"/></g><g><use fill="#fff" fill-opacity="0" stroke="#05a5f9" stroke-linecap="round" stroke-linejoin="round" stroke-miterlimit="50" stroke-width="2" xlink:href="#gs1sd"/></g></g></g></svg>