<svg xmlns="http://www.w3.org/2000/svg" xmlns:xlink="http://www.w3.org/1999/xlink" width="55" height="63" viewBox="0 0 55 63"><defs><path id="dz18a" d="M531 4147s3.61-.23 7 0 3 4 3 4-.15 42.73 0 48c.15 5.28-5 5-5 5s-33 .06-39 0-5-4-5-4v-49c.01-4.14 4-4 4-4h7z"/><path id="dz18b" d="M510.01 4159.73v2.28a2 2 0 0 1-2 2h-7.02a2 2 0 0 1-2-2v-7.02c0-1.1.9-2 2-2h6.3"/><path id="dz18c" d="M502 4158l3 3 7-9"/><path id="dz18d" d="M515 4156h19"/><path id="dz18e" d="M515 4160h13"/><path id="dz18f" d="M510.01 4176.73v2.28a2 2 0 0 1-2 2h-7.02a2 2 0 0 1-2-2v-7.02c0-1.1.9-2 2-2h6.3"/><path id="dz18g" d="M502 4175l3 3 7-9"/><path id="dz18h" d="M515 4173h19"/><path id="dz18i" d="M515 4177h13"/><path id="dz18j" d="M510.01 4193.73v2.28a2 2 0 0 1-2 2h-7.02a2 2 0 0 1-2-2v-7.02c0-1.1.9-2 2-2h6.3"/><path id="dz18k" d="M502 4192l3 3 7-9"/><path id="dz18l" d="M515 4190h19"/><path id="dz18m" d="M515 4194h13"/></defs><g><g transform="translate(-489 -4144)"><g><use fill="#fff" fill-opacity="0" stroke="#05a5f8" stroke-linecap="round" stroke-linejoin="round" stroke-miterlimit="50" stroke-width="2" xlink:href="#dz18a"/></g><g><use fill="#fff" fill-opacity="0" stroke="#05a5f8" stroke-linecap="round" stroke-linejoin="round" stroke-miterlimit="50" stroke-width="2" xlink:href="#dz18b"/></g><g><use fill="#fff" fill-opacity="0" stroke="#05a5f8" stroke-linecap="round" stroke-linejoin="round" stroke-miterlimit="50" stroke-width="2" xlink:href="#dz18c"/></g><g><use fill="#fff" fill-opacity="0" stroke="#05a5f8" stroke-linecap="round" stroke-linejoin="round" stroke-miterlimit="50" stroke-width="2" xlink:href="#dz18d"/></g><g><use fill="#fff" fill-opacity="0" stroke="#05a5f8" stroke-linecap="round" stroke-linejoin="round" stroke-miterlimit="50" stroke-width="2" xlink:href="#dz18e"/></g><g><use fill="#fff" fill-opacity="0" stroke="#05a5f8" stroke-linecap="round" stroke-linejoin="round" stroke-miterlimit="50" stroke-width="2" xlink:href="#dz18f"/></g><g><use fill="#fff" fill-opacity="0" stroke="#05a5f8" stroke-linecap="round" stroke-linejoin="round" stroke-miterlimit="50" stroke-width="2" xlink:href="#dz18g"/></g><g><use fill="#fff" fill-opacity="0" stroke="#05a5f8" stroke-linecap="round" stroke-linejoin="round" stroke-miterlimit="50" stroke-width="2" xlink:href="#dz18h"/></g><g><use fill="#fff" fill-opacity="0" stroke="#05a5f8" stroke-linecap="round" stroke-linejoin="round" stroke-miterlimit="50" stroke-width="2" xlink:href="#dz18i"/></g><g><use fill="#fff" fill-opacity="0" stroke="#05a5f8" stroke-linecap="round" stroke-linejoin="round" stroke-miterlimit="50" stroke-width="2" xlink:href="#dz18j"/></g><g><use fill="#fff" fill-opacity="0" stroke="#05a5f8" stroke-linecap="round" stroke-linejoin="round" stroke-miterlimit="50" stroke-width="2" xlink:href="#dz18k"/></g><g><use fill="#fff" fill-opacity="0" stroke="#05a5f8" stroke-linecap="round" stroke-linejoin="round" stroke-miterlimit="50" stroke-width="2" xlink:href="#dz18l"/></g><g><use fill="#fff" fill-opacity="0" stroke="#05a5f8" stroke-linecap="round" stroke-linejoin="round" stroke-miterlimit="50" stroke-width="2" xlink:href="#dz18m"/></g></g></g></svg>