<svg xmlns="http://www.w3.org/2000/svg" width="24" height="24" viewBox="0 0 24 24">
  <metadata><?xpacket begin="﻿" id="W5M0MpCehiHzreSzNTczkc9d"?>
<x:xmpmeta xmlns:x="adobe:ns:meta/" x:xmptk="Adobe XMP Core 5.6-c138 79.159824, 2016/09/14-01:09:01        ">
   <rdf:RDF xmlns:rdf="http://www.w3.org/1999/02/22-rdf-syntax-ns#">
      <rdf:Description rdf:about=""/>
   </rdf:RDF>
</x:xmpmeta>
                                                                                                    
                                                                                                    
                                                                                                    
                                                                                                    
                                                                                                    
                                                                                                    
                                                                                                    
                                                                                                    
                                                                                                    
                                                                                                    
                                                                                                    
                                                                                                    
                                                                                                    
                                                                                                    
                                                                                                    
                                                                                                    
                                                                                                    
                                                                                                    
                                                                                                    
                                                                                                    
                           
<?xpacket end="w"?></metadata>
<defs>
    <style>
      .cls-1 {
        fill: #3ec4f0;
        fill-rule: evenodd;
      }
    </style>
  </defs>
  <path id="slider-arrow-right" class="cls-1" d="M184,5331a12,12,0,1,0-12-12A12,12,0,0,0,184,5331Zm0-23a11,11,0,1,1-11,11A11,11,0,0,1,184,5308Zm-4,12h5.531l-1.235,1.23a1.039,1.039,0,1,0,1.469,1.47l2.939-2.93a1.034,1.034,0,0,0,.2-1.17,0.968,0.968,0,0,0-.228-0.35l-2.921-2.92a1.02,1.02,0,0,0-1.46,0,1.033,1.033,0,0,0,0,1.46l1.215,1.21H180A1,1,0,0,0,180,5320Z" transform="translate(-172 -5307)"/>
</svg>
