<svg xmlns="http://www.w3.org/2000/svg" xmlns:xlink="http://www.w3.org/1999/xlink" width="26" height="26" viewBox="0 0 26 26"><defs><path id="xfcta" d="M184 5307a12 12 0 1 1 0 24 12 12 0 0 1 0-24z"/><path id="xfctc" d="M179.3 5319.77l2.93 2.93a1.04 1.04 0 0 0 1.47-1.47l-1.23-1.23H188a1 1 0 1 0 0-2h-5.5l1.2-1.21a1.03 1.03 0 1 0-1.45-1.46l-2.92 2.92c-.1.1-.18.22-.23.35-.18.38-.12.85.2 1.17z"/><clipPath id="xfctb"><use fill="#fff" xlink:href="#xfcta"/></clipPath></defs><g><g transform="translate(-171 -5306)"><g><use fill="#05a5f8" xlink:href="#xfcta"/><use fill="#fff" fill-opacity="0" stroke="#3ec4f0" stroke-linecap="round" stroke-linejoin="round" stroke-miterlimit="50" stroke-width="2" clip-path="url(&quot;#xfctb&quot;)" xlink:href="#xfcta"/></g><g><use fill="#3ec4f0" xlink:href="#xfctc"/></g></g></g></svg>