<svg xmlns="http://www.w3.org/2000/svg" width="14" height="9.97" viewBox="0 0 14 9.97">
  <metadata><?xpacket begin="﻿" id="W5M0MpCehiHzreSzNTczkc9d"?>
<x:xmpmeta xmlns:x="adobe:ns:meta/" x:xmptk="Adobe XMP Core 5.6-c138 79.159824, 2016/09/14-01:09:01        ">
   <rdf:RDF xmlns:rdf="http://www.w3.org/1999/02/22-rdf-syntax-ns#">
      <rdf:Description rdf:about=""/>
   </rdf:RDF>
</x:xmpmeta>
                                                                                                    
                                                                                                    
                                                                                                    
                                                                                                    
                                                                                                    
                                                                                                    
                                                                                                    
                                                                                                    
                                                                                                    
                                                                                                    
                                                                                                    
                                                                                                    
                                                                                                    
                                                                                                    
                                                                                                    
                                                                                                    
                                                                                                    
                                                                                                    
                                                                                                    
                                                                                                    
                           
<?xpacket end="w"?></metadata>
<defs>
    <style>
      .cls-1 {
        fill: #fff;
        fill-rule: evenodd;
      }
    </style>
  </defs>
  <path id="check" class="cls-1" d="M487.447,6641.02l-7.405,7.42a1.725,1.725,0,0,1-1.124.54h-0.1a0.849,0.849,0,0,1-.279-0.04c-0.024-.01-0.043-0.03-0.066-0.04a0.862,0.862,0,0,1-.227-0.12,0.265,0.265,0,0,0-.029-0.05l-4.03-4.22a0.857,0.857,0,0,1,.214-1.25,1.049,1.049,0,0,1,1.371-.03l3.2,3.35,6.994-7.01a1.347,1.347,0,0,1,1.8-.34A1.323,1.323,0,0,1,487.447,6641.02Z" transform="translate(-474 -6639)"/>
</svg>
