<svg xmlns="http://www.w3.org/2000/svg" xmlns:xlink="http://www.w3.org/1999/xlink" width="411" height="411" viewBox="0 0 411 411"><defs><path id="wmeja" d="M757.63 2473.94c2.92-4.3 4.36-10.41 9.17-10.15 4.81.26 6.9-.17 10.63 4.83 3.73 5 13.43 2.3 13.52-1.93.1-4.24-6.25-8.75-13.04-8.7-6.78.05-7.6-5.46-1.93-12.08 5.67-6.63 44.79-77.64 157.95-77.81 113.16-.17 170.96 78.87 191.75 146.92 20.8 68.04-5.11 128-16.9 149.81-11.8 21.82-54.27 66.14-61.35 62.83-7.07-3.3-2.76-8.95-7.72-10.63-4.97-1.68-9.28-1.17-10.63 2.9-1.35 4.06 4.74 8.2 9.66 9.66 4.92 1.47 4.77 7.57-.97 11.12-5.73 3.54-51.22 29.52-110.12 26.58-58.9-2.94-119.94-29-160.36-87.96-40.43-58.96-43.6-155.45-9.66-205.4z"/><path id="wmejb" d="M763.9 2459.92c-5.1 1.4-33.9 33.25-36.22 92.3-2.31 59.06 16.9 90.38 16.9 90.38"/><path id="wmejc" d="M767.77 2453.16c-.11-4.51 3.1-11.2 11.1-22.23 8.02-11.05 58-77.48 167.61-68.63 109.62 8.85 148.77 82.64 148.77 82.64"/><path id="wmejd" d="M1114.1 2638.74c-7.44 10.18-18.84 37.26-34.3 53.16-15.47 15.9-26.79 31.53-30.92 29"/><path id="wmeje" d="M1034.4 2713.16c-7.43.26-12.37 1.77-12.08 7.25.28 5.49 12.07 13.05 12.07 13.05"/><path id="wmejf" d="M1025.7 2742.16c-13.28 2.98-47 23.6-94.67 20.3-47.68-3.3-94.19-25.13-94.19-25.13"/><path id="wmejg" d="M860.75 2400.47a2.66 2.66 0 1 1 0 5.31 2.66 2.66 0 0 1 0-5.31zm8.45-6.75a2.41 2.41 0 0 1 2.43 2.4c0 1.33-1.09 2.41-2.43 2.41a2.41 2.41 0 0 1-2.42-2.4c0-1.33 1.09-2.41 2.42-2.41zm12.08-4.34a2.4 2.4 0 1 1 0 4.8 2.4 2.4 0 0 1 0-4.8zm12.56 3.84a1.94 1.94 0 1 1 0 3.87 1.94 1.94 0 0 1 0-3.87zm-15.22 8.22a2.66 2.66 0 1 1 0 5.31 2.66 2.66 0 0 1 0-5.31zm11.11 3.87a2.17 2.17 0 1 1 0 4.35 2.17 2.17 0 0 1 0-4.35zm10.14-.97a1.69 1.69 0 1 1 0 3.38 1.69 1.69 0 0 1 0-3.38zm8.46-7.25a1.45 1.45 0 1 1 0 2.91 1.45 1.45 0 0 1 0-2.9zm.73-16.9a1.69 1.69 0 1 1 0 3.37 1.69 1.69 0 0 1 0-3.37zm16.17-1.47a2.9 2.9 0 1 1 0 5.81 2.9 2.9 0 0 1-2.89-2.9c0-1.61 1.3-2.91 2.9-2.91zm-12.56 34.31a3.4 3.4 0 1 1 0 6.78 3.4 3.4 0 0 1 0-6.78zm2.9 12.1a1.45 1.45 0 1 1 0 2.9 1.45 1.45 0 0 1 0-2.9zm6.76 7.71a2.42 2.42 0 1 1 0 4.85 2.42 2.42 0 0 1 0-4.85zm7.97 5.35a1.2 1.2 0 1 1 0 2.4 1.2 1.2 0 0 1 0-2.4zm19.33-23.69a1.69 1.69 0 1 1 0 3.38 1.69 1.69 0 0 1 0-3.38zm-5.08 6.28a2.41 2.41 0 0 1 2.42 2.4c0 1.34-1.09 2.41-2.42 2.41a2.41 2.41 0 0 1-2.42-2.4c0-1.33 1.08-2.4 2.42-2.4zm-5.8 8.22a.97.97 0 1 1 0 1.94.97.97 0 0 1 0-1.94zm.97 9.19c.53 0 .97.42.97.95s-.44.95-.97.95a.96.96 0 0 1-.97-.95c0-.53.43-.95.97-.95zm44.92-41.1a1.45 1.45 0 1 1 0 2.91 1.45 1.45 0 0 1 0-2.9zm8.94-3.87c1.2 0 2.17.98 2.17 2.19 0 1.2-.97 2.18-2.17 2.18s-2.17-.98-2.17-2.18c0-1.21.97-2.2 2.17-2.2zm11.34 1.47a2.41 2.41 0 0 1 2.42 2.4c0 1.33-1.08 2.41-2.42 2.41a2.41 2.41 0 0 1-2.42-2.4c0-1.34 1.08-2.41 2.42-2.41zm8.22 7.72c1.06 0 1.92.86 1.92 1.93 0 1.07-.86 1.94-1.92 1.94a1.93 1.93 0 0 1-1.92-1.94c0-1.07.86-1.93 1.92-1.93zm28.5 10.62a2.9 2.9 0 1 1 0 5.81 2.9 2.9 0 0 1-2.89-2.9c0-1.6 1.3-2.9 2.9-2.9zm6.52 12.1a1.69 1.69 0 1 1 0 3.37 1.69 1.69 0 0 1 0-3.37zm-1.7 8.68c.8 0 1.45.65 1.45 1.46 0 .8-.65 1.45-1.44 1.45-.8 0-1.44-.65-1.44-1.45 0-.8.64-1.46 1.44-1.46zm-7.71 48.35a1.94 1.94 0 1 1 0 3.87 1.94 1.94 0 0 1 0-3.87zm5.31 7.71a1.94 1.94 0 1 1 0 3.88 1.94 1.94 0 0 1 0-3.88zm-5.08 9.2a1.2 1.2 0 1 1 0 2.4 1.2 1.2 0 0 1 0-2.4zm-4.82 4.34c.93 0 1.68.76 1.68 1.7s-.75 1.7-1.68 1.7a1.7 1.7 0 0 1-1.7-1.7c0-.94.76-1.7 1.7-1.7zm-6.54 5.8a.97.97 0 1 1 0 1.95.97.97 0 0 1 0-1.94zm20.05-7.24a2.17 2.17 0 1 1 0 4.34 2.17 2.17 0 0 1 0-4.34zm5.08 7.72a1.94 1.94 0 1 1 0 3.87 1.94 1.94 0 0 1 0-3.87zm2.4 8.72a1.94 1.94 0 1 1 0 3.87 1.94 1.94 0 0 1 0-3.87zm28.5-66.7c.54 0 .97.44.97.96 0 .53-.43.96-.96.96a.96.96 0 0 1-.97-.96c0-.52.43-.95.97-.95zm-3.6 7.26a1.2 1.2 0 1 1 0 2.4 1.2 1.2 0 0 1 0-2.4zm-1.7 7.72a1.94 1.94 0 1 1 0 3.87 1.94 1.94 0 0 1 0-3.87zm7.24 6.28a.97.97 0 1 1 0 1.94.97.97 0 0 1 0-1.94zm8.2 2.9a1.45 1.45 0 1 1 0 2.91 1.45 1.45 0 0 1 0-2.9zm-152.38-18.37a1.69 1.69 0 1 1 0 3.38 1.69 1.69 0 0 1 0-3.38zm8.45.5a2.41 2.41 0 0 1 2.42 2.4c0 1.34-1.08 2.41-2.42 2.41a2.41 2.41 0 0 1-2.42-2.4c0-1.33 1.08-2.41 2.42-2.41zm7.97 4.81c.66 0 1.2.55 1.2 1.22 0 .67-.54 1.22-1.2 1.22-.67 0-1.2-.55-1.2-1.22 0-.67.53-1.22 1.2-1.22zm7.01 6.78a.97.97 0 1 1 0 1.94.97.97 0 0 1 0-1.94zm-14.25.97c.68 0 1.22.54 1.22 1.2 0 .67-.54 1.2-1.22 1.2-.67 0-1.22-.53-1.22-1.2 0-.66.55-1.2 1.22-1.2zm2.66 8.22c1.07 0 1.94.86 1.94 1.92s-.87 1.92-1.94 1.92a1.93 1.93 0 0 1-1.94-1.92c0-1.06.87-1.92 1.94-1.92zm3.86 10.13a1.45 1.45 0 1 1 0 2.9 1.45 1.45 0 0 1 0-2.9zm-172.19 74.9c1.2 0 2.17.98 2.17 2.19 0 1.2-.97 2.19-2.17 2.19s-2.17-.98-2.17-2.19c0-1.2.97-2.19 2.17-2.19zm-.73 9.69a1.94 1.94 0 1 1 0 3.87 1.94 1.94 0 0 1 0-3.87zm-27.05-53.66a2.42 2.42 0 1 1 0 4.85 2.42 2.42 0 0 1 0-4.85zm7.97-5.3a2.17 2.17 0 1 1 0 4.34 2.17 2.17 0 0 1 0-4.35zm14 .5a2.17 2.17 0 1 1 0 4.33 2.17 2.17 0 0 1 0-4.34zm10.39 3.84a.97.97 0 1 1 0 1.93.97.97 0 0 1 0-1.93zm4.84 6.78a.97.97 0 1 1 0 1.93.97.97 0 0 1 0-1.93zm-37.2 37.68a1.45 1.45 0 1 1 0 2.91 1.45 1.45 0 0 1 0-2.9zm-7.72 5.82c.8 0 1.46.64 1.46 1.43 0 .8-.66 1.44-1.46 1.44-.8 0-1.45-.64-1.45-1.44 0-.79.65-1.43 1.45-1.43zm-3.64 10.12c.93 0 1.69.76 1.69 1.7 0 .95-.76 1.7-1.69 1.7a1.7 1.7 0 0 1-1.69-1.7c0-.94.76-1.7 1.7-1.7zm1.7 10.66a1.92 1.92 0 1 1 0 3.84 1.92 1.92 0 0 1 0-3.84zm4.58 10.12a2.66 2.66 0 1 1 0 5.32 2.66 2.66 0 0 1 0-5.32zm7.74-26.56a2.17 2.17 0 1 1 0 4.34 2.17 2.17 0 0 1 0-4.34zm5.08 8.22c1.07 0 1.93.86 1.93 1.92s-.86 1.92-1.93 1.92a1.93 1.93 0 0 1-1.94-1.92c0-1.06.86-1.92 1.93-1.92zm2.65 8.22a1.69 1.69 0 1 1 0 3.37 1.69 1.69 0 0 1 0-3.37zm1.2 9.15c.53 0 .96.44.96.97 0 .54-.43.97-.96.97a.96.96 0 0 1-.95-.97c0-.53.43-.97.95-.97zm76.08 17.91c.68 0 1.22.54 1.22 1.2 0 .67-.54 1.2-1.22 1.2-.67 0-1.22-.53-1.22-1.2 0-.66.55-1.2 1.22-1.2zm7-9.69c1.33 0 2.4 1.09 2.4 2.42a2.41 2.41 0 0 1-2.4 2.43 2.41 2.41 0 0 1-2.4-2.43 2.41 2.41 0 0 1 2.4-2.42zm7-3.37a2.66 2.66 0 1 1 0 5.31 2.66 2.66 0 0 1 0-5.31zm9.9-.47c1.08 0 1.95.86 1.95 1.92s-.87 1.92-1.94 1.92a1.93 1.93 0 0 1-1.94-1.92c0-1.06.87-1.92 1.94-1.92zm39.85 10.12c.93 0 1.69.77 1.69 1.7 0 .95-.76 1.71-1.69 1.71a1.7 1.7 0 0 1-1.68-1.7c0-.94.75-1.7 1.68-1.7zm5.32 9.2a1.69 1.69 0 1 1 0 3.37 1.69 1.69 0 0 1 0-3.38zm7.48 3.87a1.45 1.45 0 1 1 0 2.9 1.45 1.45 0 0 1 0-2.9zm40.58-7.25a1.94 1.94 0 1 1 0 3.87 1.94 1.94 0 0 1 0-3.87zm-8.2 2.9a.48.48 0 1 1 0 .97.48.48 0 0 1 0-.97zm-7.97 3.38a1.2 1.2 0 1 1 0 2.4 1.2 1.2 0 0 1 0-2.4zm-4.35 8.68c1.2 0 2.17.98 2.17 2.2 0 1.2-.97 2.18-2.17 2.18s-2.17-.98-2.17-2.19c0-1.2.97-2.19 2.17-2.19zm.72 9.7a.48.48 0 1 1 0 .96.48.48 0 0 1 0-.97zm14.72-6.29a2.17 2.17 0 1 1 0 4.35 2.17 2.17 0 0 1 0-4.35zm-4.33 9.66a.72.72 0 1 1 0 1.43.72.72 0 0 1 0-1.43zm-4.12 7.25a.97.97 0 1 1 0 1.93.97.97 0 0 1 0-1.93zm-6.52 7.25c.4 0 .74.32.74.72 0 .4-.33.72-.74.72a.73.73 0 0 1-.73-.72c0-.4.33-.72.73-.72zm2.19 19.81a2.42 2.42 0 1 1 0 4.84 2.42 2.42 0 0 1 0-4.84zm11.83 3.88a2.66 2.66 0 1 1 0 5.3 2.66 2.66 0 0 1 0-5.3zm10.62 1.93a1.69 1.69 0 1 1 0 3.38 1.69 1.69 0 0 1 0-3.38zm11.36-3.87a1.45 1.45 0 1 1 0 2.9 1.45 1.45 0 0 1 0-2.9zm15.69 32.37c.94 0 1.7.76 1.7 1.69a1.7 1.7 0 0 1-1.7 1.69 1.7 1.7 0 0 1-1.7-1.69c0-.93.76-1.69 1.7-1.69zm-2.4 8.69c1.2 0 2.16.98 2.16 2.19 0 1.2-.97 2.18-2.17 2.18s-2.17-.97-2.17-2.18c0-1.21.97-2.19 2.17-2.19zm0 9.69a2.17 2.17 0 1 1 0 4.34 2.17 2.17 0 0 1 0-4.34zm3.12 7.72a1.45 1.45 0 1 1 0 2.9 1.45 1.45 0 0 1 0-2.9zm47.34-38.2a1.45 1.45 0 1 1 0 2.92 1.45 1.45 0 0 1 0-2.91zm6.52-4.34c.4 0 .71.33.71.74 0 .4-.32.73-.71.73a.73.73 0 0 1-.72-.73c0-.4.32-.74.72-.74zm.48-9.65c.4 0 .74.32.74.72 0 .4-.33.72-.74.72a.73.73 0 0 1-.73-.72c0-.4.33-.72.73-.72zm-4.58-6.78a1.94 1.94 0 1 1 0 3.87 1.94 1.94 0 0 1 0-3.87zm-260.83-21.75a1.45 1.45 0 1 1 0 2.9 1.45 1.45 0 0 1 0-2.9zm12.8 2.9a2.66 2.66 0 1 1 0 5.32 2.66 2.66 0 0 1 0-5.32zm9.66 4.85a1.69 1.69 0 1 1 0 3.37 1.69 1.69 0 0 1 0-3.37zm1.93 11.12a.72.72 0 1 1 0 1.44.72.72 0 0 1 0-1.44zm-14.73-3.87c1.06 0 1.92.86 1.92 1.94 0 1.07-.86 1.93-1.92 1.93a1.93 1.93 0 0 1-1.92-1.93c0-1.08.86-1.94 1.92-1.94zm5.56 10.62a2.17 2.17 0 1 1 0 4.35 2.17 2.17 0 0 1 0-4.35zm8.2 7.25a3.14 3.14 0 1 1 0 6.28 3.14 3.14 0 0 1 0-6.28zm7.98 6.28c.79 0 1.43.65 1.43 1.46 0 .8-.64 1.45-1.43 1.45-.8 0-1.44-.65-1.44-1.45 0-.8.64-1.46 1.43-1.46zm129.93 35.79c1.07 0 1.94.86 1.94 1.92s-.87 1.92-1.94 1.92a1.93 1.93 0 0 1-1.93-1.92c0-1.06.86-1.92 1.93-1.92zm.24 9.65c.94 0 1.7.76 1.7 1.69a1.7 1.7 0 0 1-1.7 1.69 1.7 1.7 0 0 1-1.7-1.7c0-.92.76-1.68 1.7-1.68zm4.34 6.75a.73.73 0 1 1 0 1.47.73.73 0 0 1 0-1.47zm5.55-9.66a1.94 1.94 0 1 1 0 3.88 1.94 1.94 0 0 1 0-3.88zm13.28-1.93a2.66 2.66 0 1 1 0 5.31 2.66 2.66 0 0 1 0-5.31zm8.7 3.37a1.7 1.7 0 1 1 0 3.4 1.7 1.7 0 0 1 0-3.4zm-45.64-13.53c.8 0 1.44.65 1.44 1.45 0 .8-.64 1.46-1.44 1.46-.8 0-1.44-.65-1.44-1.46 0-.8.65-1.45 1.44-1.45zm-10.62 3.4a1.93 1.93 0 0 1 0 3.84 1.93 1.93 0 0 1-1.94-1.91c0-1.06.87-1.92 1.94-1.92zm-6.03 4.82a2.66 2.66 0 1 1 0 5.31 2.66 2.66 0 0 1 0-5.31zm-3.88 10.16a1.69 1.69 0 1 1 0 3.37 1.69 1.69 0 0 1 0-3.37zm14.02-5.82c1.2 0 2.17.98 2.17 2.2 0 1.2-.97 2.18-2.17 2.18s-2.18-.98-2.18-2.19c0-1.2.98-2.19 2.18-2.19zm5.54 8.72a1.94 1.94 0 1 1 0 3.88 1.94 1.94 0 0 1 0-3.88z"/><path id="wmejh" d="M774.53 2473.94s-7.77 2.29-10.14 3.86c-2.38 1.58-7.43 11.63-3.38 15.95 4.05 4.33 9.99.13 12.56-.48 2.56-.6 11.96-2.65 13.52-5.8 1.56-3.15 3.86-12.08 3.86-12.08"/><path id="wmeji" d="M777.91 2474.42s-3.5 5.42-3.38 10.63c.12 5.21 3.87 4.35 3.87 4.35"/><path id="wmejj" d="M781.3 2475.39s-7.44 7.34-1.46 11.11c5.98 3.78 7.73-11.11 7.73-11.11"/><path id="wmejk" d="M805.44 2441.56s-9.98 3.13-13.52 5.8c-3.54 2.66-5.31 8.21-5.31 8.21"/><path id="wmejl" d="M795.3 2462.34l12.56-5.32"/><path id="wmejm" d="M811.72 2443c-2.42.1-7.18 2.03-8.2 5.8-1.04 3.78 1.9 7.47 7.24 1.94 5.34-5.53 3.38-7.82.96-7.73z"/><path id="wmejn" d="M831.04 2443.49s-7.5 6.27-14.49 11.6c-6.98 5.33-16.54 11.67-18.83 15.46-2.3 3.8-2.42 7.25-2.42 7.25"/><path id="wmejo" d="M798.2 2480.22l-4.35 1.45"/><path id="wmejp" d="M779.84 2495.2s-1.35 5.25-2.41 8.22c-1.06 2.96-.65 4.89 3.38 3.86 4.03-1.02 11.6-3.38 11.6-3.38"/><path id="wmejq" d="M795.3 2484.09s-.37 1.28 0 3.86-.2 2.74-1.93 5.8c-1.73 3.07-1.45 7.25-1.45 7.25"/><path id="wmejr" d="M797.23 2501c2.69-3.05 3.44-8.23 6.77-7.73 3.32.5 11.8-2.57 11.1-4.83-.68-2.27-3.79-.25-7.24-2.9-3.45-2.66-6.88-6.27-8.21-3.87-1.33 2.4.57 4.58-1.93 9.67-2.51 5.08-3.17 12.72-.49 9.66z"/><path id="wmejs" d="M798.68 2502.93s-2.18 6.88.49 8.22c2.66 1.34 3.19 1.79 7.24.48 4.05-1.3 8.21-2.9 8.21-2.9"/><path id="wmejt" d="M815.59 2492.79c-1.29 2.94-3.96 9.7-3.38 11.6"/><path id="wmeju" d="M827.66 2482.64c-2.88 4.68-6.03 11.09-8.7 14.5-2.65 3.4-5.47 7.97-.47 7.24 4.99-.72 8.02-.36 9.17-6.28 1.16-5.91 5.94-15.62 8.21-17.4 2.28-1.77 5.78-3.7 9.18-5.31 3.4-1.6 5.8-.87 4.35-3.87-1.46-3-.86-6.89-4.35-3.38-3.48 3.5-5.06 6.87-6.28 3.86-1.22-3-.58-4.33-3.38-4.35-2.8-.01-7.72-.7-3.86-5.31 3.86-4.61 6.28-7.48 13.04-11.6 6.75-4.12 14.6-6.85 14-10.15-.58-3.3-.5-5.29-5.3-3.38-4.81 1.9-9.67 5.8-9.67 5.8s1.33 2.9-1.93 5.31c-3.26 2.42-11.46 8.85-16.42 11.6-4.96 2.75-13.73 6.6-13.53 12.08.2 5.5 5.3 9.03 8.22 4.35 2.9-4.67 4.18-7.97 7.24-6.76 3.06 1.2 8.23 4.02 5.8 6.28-2.43 2.26-2.43 2.08-5.32 6.77z"/><path id="wmejv" d="M845.53 2437.2s-11.6 4.42-14.49 6.29"/><path id="wmejw" d="M839.26 2420.3c-2.49.96-10.71 3.64-18.36 6.76-7.65 3.12-10.4 4.22-12.07 7.73-1.68 3.51-.97 4.35-.97 4.35"/><path id="wmejx" d="M819.45 2443.97c4.2-1.62 9.18-3.38 9.18-3.38"/><path id="wmejy" d="M837.32 2424.64c3.93-1.83 12.29-5.67 14.5-3.86 2.2 1.8.14 2.86-6.77 6.76-6.9 3.9-7.16 5.82-11.1 8.22-3.95 2.4-7.64 1.17-5.8-1.45 1.83-2.63 2.59-.2 6.28-2.9 3.69-2.7-1.03-4.94 2.9-6.77z"/><path id="wmejz" d="M875.48 2413.53s-1.98.34-9.18 3.86c-7.19 3.52-9.39 3.26-11.59 6.77-2.2 3.51-6.21 8.6-5.31 10.15"/><path id="wmejA" d="M862.44 2436.24s2.94-1.82 6.76-1.45c3.83.38 1.87 1.51 6.76-.48 4.9-2 12.56-4.35 12.56-4.35"/><path id="wmejB" d="M867.27 2428.03c1.42-4.07.66-4.05 3.86-5.8 3.21-1.76 7.97-3.35 5.32-3.39-2.65-.04.6-3.27 3.86-4.35 3.26-1.08 11.4-2.08 10.15 0-1.26 2.09-12.27 5.24-12.08 7.74.2 2.49 16.65.83 14 2.9-2.63 2.06-9.52.92-14.48 1.93-4.97 1-12.05 5.03-10.63.97z"/><path id="wmejC" d="M814.62 2511.63c-3.32 3.52-4.9 9.73-1.93 12.09 2.98 2.35 6.77 1.22 12.08-.97 5.3-2.19 7.72-2.42 7.72-2.42"/><path id="wmejD" d="M829.6 2516.47c-1.38-4.25-2.54-7.62 1.93-11.12 4.47-3.5 6.4-7.72 8.2-10.63 1.82-2.91 5.8-6.77 5.8-6.77l-11.1 4.35"/><path id="wmejE" d="M858.58 2488.92c-3.04-.88-7.09-4.05-10.63.48-3.54 4.53-2.23 3-3.86 5.8-1.64 2.8-2.75 6.2-5.32 8.22-2.56 2-9.46 11.9-5.31 12.56 4.15.66 6.78-3.79 8.7-8.21 1.9-4.43 6.15-10.45 9.65-13.05 3.51-2.6 9.8-4.92 6.77-5.8z"/><path id="wmejF" d="M869.69 2440.1c-1.49.8-6.2.7-8.22 2.9-2 2.22-7.73 5.53-11.1 8.22-3.38 2.7-7.55 5.36-7.25 8.22.3 2.86.97 4.83.97 4.83"/><path id="wmejG" d="M852.3 2465.24c7.49-1.37 10.14-3.38 10.14-3.38"/><path id="wmejH" d="M861.96 2452.19c1.97-3.04 5.37-6.92 7.73-8.22 2.35-1.3 6.5-6.98 18.83-8.21 12.33-1.24 20.25 2.12 17.87 4.83-2.37 2.71-7.03.68-15.45.97-8.42.29-14.2 1.3-18.36 5.8-4.15 4.49-9.74 12.3-11.1 10.15-1.37-2.16-1.5-2.28.48-5.32z"/><path id="wmejI" d="M875.48 2449.77c2.64-.21 8.6-1.35 12.08-.48 3.47.87 5.5 1.1 8.7-.97 3.18-2.07 6.75-3.38 6.75-3.38"/><path id="wmejJ" d="M883.7 2453.64c-5.92 2.16-10.24 1.6-13.53 5.32-3.3 3.7-8.83 9.05-11.6 10.63-2.76 1.58-5.27 2.36-5.3 3.38"/><path id="wmejK" d="M845.05 2480.22s-1.44 5.37 3.38 4.35c4.83-1.02 13.04-4.35 13.04-4.35"/><path id="wmejL" d="M866.3 2476.84c-2.31-.36-7.2-1.65-3.38-4.35 3.82-2.7 6.94-3.55 9.18-5.8 2.24-2.25.83-4.54 5.31-6.77 4.49-2.22 7-3.8 10.63-5.31 3.62-1.52 10.99-3.64 11.1-.49.13 3.16 2.18 6.09-5.3 5.8-7.49-.28-8.38-1.5-10.63 1.94-2.25 3.43-5.22 4.95-4.35 7.24.88 2.3 1.94 7.59.49 9.67-1.46 2.08-3.49 4.34-.97 4.83 2.52.5 4.83 0 4.83 0"/><path id="wmejM" d="M875 2485.54c-1.8-1.53-2.83-1.31-.97-3.87s2.43-8.52-1.45-7.25c-3.88 1.27-3.86.97-3.86.97"/><path id="wmejN" d="M870.65 2478.77c-4.32 2.78-8.21 3.87-8.21 3.87"/><path id="wmejO" d="M862.92 2488.92a257.4 257.4 0 0 1 7.73-2.42"/><path id="wmejP" d="M884.66 2467.65c3.26-1.97 8.7-4.34 8.7-4.34"/><path id="wmejQ" d="M885.14 2470.55c4.18-1.86 9.03-4.19 11.6-5.8 2.56-1.6 22.98-5.95 24.15-.96 1.16 4.99-4.73 3.04-12.08 3.86-7.35.83-11.56 5.57-11.6 2.42"/><path id="wmejR" d="M892.87 2470.55l4.35 3.39"/><path id="wmejS" d="M890.46 2472.49c-1.43.84-5.32 1.45-5.32 1.45"/><path id="wmejT" d="M884.18 2480.22c1.49-.32 8.69-4.35 8.69-4.35"/><path id="wmejU" d="M895.29 2478.77c2.67-1.64 4.45-1 4.34 1.45-.1 2.44.24 3.95-5.8 4.83-6.03.88-8.63 3.02-10.14 4.35-1.5 1.33-10.12 10.1-14 9.18-3.9-.9-4.35-2.41-4.35-2.41s12.8-5.67 14-6.28"/><path id="wmejV" d="M887.56 2483.12c2.17-1.06 5.8-2.9 5.8-2.9"/><path id="wmejW" d="M849.4 2504.38c1.48 1.62 4.35 1.94 4.35 1.94"/><path id="wmejX" d="M862.92 2504.38c2.97-1.4 6.28-2.41 6.28-2.41"/><path id="wmejY" d="M853.75 2508.25c-4.14 2.2-6.87-1.82-9.18 2.9-2.31 4.72-8.05 8.36-9.66 9.67-1.61 1.3-10.37 14.46-6.76 16.91 3.6 2.45 3.37 4.5 8.2 1.93 4.84-2.56 9.67-4.35 9.67-4.35"/><path id="wmejZ" d="M838.77 2542.56s.6 3.88 3.38 5.32a14.29 14.29 0 0 0 5.8 1.45l12.56-4.83"/><path id="wmejaa" d="M863.89 2540.63c-3.1.25-7.24 1.18-8.21-2.9-.98-4.08-1.93-5.65-4.35-5.8-2.42-.15-6.72.54-5.8-3.38.93-3.92 2.39-8.3 4.35-9.18 1.97-.9 3.34.5 2.9-1.94-.44-2.44-1.68-2.62-.48-3.86 1.2-1.25 4.95-5.6 7.73-4.35 2.77 1.25 7.39 4.04 10.14 3.86"/><path id="wmejab" d="M864.37 2516.47c-4.7.17-8.23-.3-9.66 4.35-1.42 4.64-.5 4.43 4.35 8.7 4.85 4.25 5.8 7.73 5.8 7.73"/><path id="wmejac" d="M874.03 2509.22c2.8-2.14 4-10.51 11.6-13.53"/><path id="wmejad" d="M887.56 2498.1c4.23-3.1 14.67-5.08 14.97-3.38.3 1.7-2.41 2.9-2.41 2.9"/><path id="wmejae" d="M895.29 2499.07c-3.73 1.84-12.71 4.47-13.05 5.31-.33.85.97 2.9.97 2.9"/><path id="wmejaf" d="M869.2 2517.92s-1.55 8.12 3.87 1.93c5.42-6.2 8.2-8.7 8.2-8.7"/><path id="wmejag" d="M890.46 2505.83c6.06-1.22 10.4.62 9.17 2.9"/><path id="wmejah" d="M933.93 2491.82s9.1-3.54 6.76-9.67c-2.33-6.13-5.37-4.63-11.11-6.28-5.74-1.65-9.16-3.05-12.08-1.45-2.91 1.6-11.4 1.39-6.76 3.38 4.65 2 21.71 1.8 20.77 4.35-.94 2.55-10.84 2.5-13.04 3.87-2.2 1.37-7.35 5.12-1.45 4.35 5.9-.77 7.94-3.05 10.63-2.42 2.69.63.72 1.62 3.38.49l3.38-1.45"/><path id="wmejai" d="M928.13 2493.27c-1.44-.06-8.17.72-12.08 1.93-3.9 1.21-7.72 1.45-7.72 1.45"/><path id="wmejaj" d="M903.01 2489.4l7.73-3.86"/><path id="wmejak" d="M903.98 2478.77s.95 5.27-1.45 7.25"/><path id="wmejal" d="M1117.73 2539.85s3.34-7.39 3.7-10.21c.36-2.83-3.94-13.23-9.86-12.99-5.92.24-6.62 7.49-7.84 9.83-1.22 2.34-5.81 10.8-4.45 14.04 1.37 3.24 6.62 10.82 6.62 10.82"/><path id="wmejam" d="M1115.15 2542.1s-1.81-6.2-5.83-9.52c-4.02-3.31-5.82.09-5.82.09"/><path id="wmejan" d="M1112.21 2544.02s-.7-10.42-7.46-8.36c-6.77 2.06 3.36 13.12 3.36 13.12"/><path id="wmejao" d="M1122.03 2584.43s4.16-9.61 4.45-14.04c.3-4.42-2.74-9.4-2.74-9.4"/><path id="wmejap" d="M1112.93 2563.16l-4.18 13"/><path id="wmejaq" d="M1116.83 2588.24c1.52-1.9 3.16-6.76.98-10.01s-6.9-3.44-6.2 4.22c.7 7.66 3.7 7.68 5.22 5.79z"/><path id="wmejar" d="M1103.84 2602.56s.16-9.79.69-18.56c.53-8.77 1.98-20.16.6-24.38-1.36-4.22-3.9-6.57-3.9-6.57"/><path id="wmejas" d="M1097.5 2553.67l1.75-4.24"/><path id="wmejat" d="M1098.16 2529.97s-3.08-4.46-4.64-7.2c-1.55-2.73-3.27-3.68-5.13.04-1.86 3.72-5.02 10.99-5.02 10.99"/><path id="wmejau" d="M1096.47 2548.95s-.72-1.12-2.92-2.53c-2.2-1.4-1.94-1.94-3.13-5.25s-4.54-5.84-4.54-5.84"/><path id="wmejav" d="M1082.41 2539.35c.56 4.04 3.99 7.99 1.43 10.18-2.55 2.2-5.77 10.62-3.6 11.58 2.17.96 2.66-2.72 6.93-3.6 4.27-.87 9.24-1.12 8.3-3.69-.95-2.57-3.85-2.56-6.06-7.78-2.21-5.23-7.56-10.72-7-6.69z"/><path id="wmejaw" d="M1080 2539.19s-3.77-6.15-6.53-5c-2.76 1.14-3.44 1.24-5.1 5.17a187.03 187.03 0 0 0-3.18 8.11"/><path id="wmejax" d="M1076.63 2558.63c-1.38-2.9-4.76-9.35-6.57-10.14"/><path id="wmejay" d="M1076.42 2574.41c-1.66-5.25-4.45-11.82-5.29-16.06-.84-4.25-2.45-9.36-5.17-5.1-2.71 4.25-4.96 6.3-1.24 11.05 3.72 4.74 7.94 14.71 7.8 17.6-.14 2.88-.97 6.8-1.98 10.42-1 3.62-3.13 4.96.09 5.82 3.22.86 5.77 3.85 5.4-1.08-.37-4.93-1.9-8.33 1.18-7.28 3.07 1.04 3.66 2.38 5.5.28 1.84-2.1 5.58-5.4 6.55.54.96 5.94 1.55 9.65.25 17.47-1.3 7.8-4.35 15.53-1.47 17.24 2.88 1.71 4.34 3.07 6.03-1.81 1.7-4.89 1.93-11.11 1.93-11.11s-3.06-.89-2.76-4.94c.3-4.05.8-14.46 1.95-20.02 1.16-5.56 3.98-14.7-.3-18.14-4.3-3.44-10.3-1.89-8.66 3.37 1.64 5.26 3.3 8.38.38 9.91-2.91 1.54-8.42 3.6-8.54.29-.12-3.32.01-3.2-1.65-8.45z"/><path id="wmejaz" d="M1099.12 2617.64s4.25-11.68 4.72-15.08"/><path id="wmejaA" d="M1116.03 2623.94c.89-2.51 4.24-10.49 6.87-18.32 2.64-7.84 3.6-10.64 2.04-14.2-1.56-3.57-2.66-3.58-2.66-3.58"/><path id="wmejaB" d="M1111.05 2593.46a402.9 402.9 0 0 1-3.44 9.17"/><path id="wmejaC" d="M1114 2619.64c-1.18 4.17-3.74 13-6.55 13.5-2.8.5-2.26-1.77-.7-9.55 1.56-7.77.29-9.22 1.05-13.78.76-4.56 4.1-6.55 4.88-3.44.79 3.1-1.54 2.09-1.9 6.65-.37 4.56 4.4 2.45 3.22 6.62z"/><path id="wmejaD" d="M1097.47 2655.8s1.04-1.72 3.07-9.47c2.04-7.75 3.68-9.24 2.46-13.2-1.22-3.97-2.45-10.34-4.2-10.66"/><path id="wmejaE" d="M1088.8 2631.08s-.53 3.42-3.32 6.07c-2.78 2.65-2.36.43-4.05 5.44-1.7 5.01-4.92 12.36-4.92 12.36"/><path id="wmejaF" d="M1091.87 2640.11c2.14 3.73 2.63 3.14 1.86 6.72-.77 3.58-2.67 8.22-.91 6.23 1.76-1.98 2.07 2.6.76 5.77-1.3 3.18-5.87 10-6.63 7.69-.75-2.32 4.06-12.72 2.04-14.2-2-1.49-11.5 12.06-11.34 8.71.16-3.34 5.52-7.82 8-12.24 2.48-4.42 4.07-12.41 6.22-8.68z"/><path id="wmejaG" d="M1063 2545.58c-.5-4.82-4.16-10.08-7.88-9.36-3.73.71-5.35 4.32-7.16 9.77-1.81 5.45-3.22 7.44-3.22 7.44"/><path id="wmejaH" d="M1049.56 2553.76c4.11 1.73 7.42 3.06 7.15 8.73-.28 5.67 1.66 9.9 2.68 13.17 1.02 3.27 1.33 8.81 1.33 8.81l3.97-11.26"/><path id="wmejaI" d="M1051.46 2593.72c2.65-1.73 7.7-2.72 6.58-8.37-1.1-5.64-.8-3.64-1.86-6.71-1.06-3.08-2.9-6.14-2.75-9.4.16-3.26-2.82-14.95-6.03-12.24-3.22 2.72-1.57 7.62.53 11.96 2.1 4.34 3.88 11.49 3.56 15.85-.32 4.36-2.67 10.64-.03 8.91z"/><path id="wmejaJ" d="M1081.14 2634.04c.37-1.64 3.54-5.15 3.18-8.11-.37-2.97.88-9.47 1.04-13.79.16-4.32.88-9.22-1.48-10.86-2.37-1.64-4.3-2.43-4.3-2.43"/><path id="wmejaK" d="M1073.49 2604.44c-3.86 6.57-4.07 9.9-4.07 9.9"/><path id="wmejaL" d="M1077.05 2620.29c1 3.48 1.72 8.6 1.17 11.22-.56 2.64 1.03 9.5-6.1 19.64-7.12 10.15-14.83 13.95-15.33 10.38-.5-3.56 4.08-5.77 9.37-12.34 5.28-6.57 8.29-11.61 7.6-17.7-.68-6.07-2.94-15.41-.42-15.04 2.53.37 2.7.36 3.71 3.84z"/><path id="wmejaM" d="M1070.04 2632.11c-1.56 2.15-4.6 7.4-7.53 9.47-2.92 2.06-4.43 3.45-4.95 7.22a38.6 38.6 0 0 1-1.86 7.33"/><path id="wmejaN" d="M1061.75 2635.8c2.22-5.88 5.47-8.8 4.81-13.71-.65-4.92-1.08-12.6-.47-15.73.61-3.13 1.66-5.55.92-6.24"/><path id="wmejaO" d="M1066.89 2589.16s-3.12-4.6-5.5-.28c-2.39 4.32-5.24 12.72-5.24 12.72"/><path id="wmejaP" d="M1055.56 2607.47c1.78-1.52 5.95-4.37 5.5.28-.45 4.66-1.85 7.58-1.61 10.75.24 3.16 2.9 3.6 1.65 8.44-1.25 4.86-1.7 7.8-2.92 11.53-1.23 3.73-4.43 10.7-6.9 8.73-2.47-1.97-6.02-2.33-.92-7.82 5.11-5.48 6.62-5.36 5.49-9.3-1.14-3.96-.34-7.2-2.65-8.04-2.3-.84-7-3.49-7.63-5.95-.62-2.47-1-5.48-3.03-3.9-2.02 1.59-3.15 3.67-3.15 3.67"/><path id="wmejaQ" d="M1043.3 2608.37c2.32-.37 2.83-1.28 3.55 1.8.72 3.08 4.86 7.4 6.43 3.64 1.58-3.77 1.8-3.56 1.8-3.56"/><path id="wmejaR" d="M1051.25 2609.5c.72-5.09 2.44-8.75 2.44-8.75"/><path id="wmejaS" d="M1048.62 2597.01a258.9 258.9 0 0 1-3.22 7.44"/><path id="wmejaT" d="M1050.51 2627.38c-.63 3.76-2.39 9.43-2.39 9.43"/><path id="wmejaU" d="M1048 2625.85c-1.32 4.38-2.73 9.58-3.19 12.57-.46 3-10.5 21.3-15.05 18.93-4.54-2.38.79-5.57 4.97-11.68 4.18-6.1 3.34-12.39 5.74-10.36"/><path id="wmejaV" d="M1042.95 2631.7l-5.4 1.08"/><path id="wmejaW" d="M1043.06 2628.61c.3-1.63 2.38-4.97 2.38-4.97"/><path id="wmejaX" d="M1041.32 2618.8c-.74 1.34-2.4 9.43-2.4 9.43"/><path id="wmejaY" d="M1035.15 2628.16c-.5 3.1-2.15 4.02-3.94 2.35-1.78-1.68-3.14-2.4.14-7.55 3.27-5.15 3.36-8.52 3.33-10.53-.02-2.01-1.02-14.26 2.2-16.61 3.24-2.36 4.68-1.72 4.68-1.72s-4.08 13.42-4.4 14.72"/><path id="wmejaZ" d="M1036.91 2619.46c-.61 2.34-1.6 6.3-1.6 6.3"/><path id="wmejba" d="M1045.76 2576.66c-2.2.06-4.3 2.03-4.3 2.03"/><path id="wmejbb" d="M1036.92 2586.9c-.87 3.17-2.28 6.34-2.28 6.34"/><path id="wmejbc" d="M1040 2577.42c1.03-4.57 5.85-4 3.8-8.84-2.07-4.84-1.07-11.57-1-13.64.06-2.07-4.18-17.3-8.39-16.18-4.21 1.13-5.6-.38-6.83 4.96-1.22 5.33-3.02 10.16-3.02 10.16"/><path id="wmejbd" d="M1023.8 2543.65s-3.31-2.08-6.22-.91a14.3 14.3 0 0 0-4.89 3.44l-4.55 12.67"/><path id="wmejbe" d="M1008.86 2563.94c1.82-2.5 3.83-6.25 7.56-4.32 3.72 1.93 5.53 2.23 7.23.5 1.7-1.74 3.98-5.45 6.35-2.18 2.36 3.26 4.72 7.22 4.1 9.3-.6 2.06-2.56 2.2-.43 3.45 2.14 1.26 3.08.44 3.24 2.16.16 1.72 1 7.41-1.75 8.7-2.77 1.29-7.9 2.95-9.56 5.16"/><path id="wmejbf" d="M1026.83 2580.1c2.94-3.68 5.6-6.04 3.02-10.16-2.59-4.11-3.03-3.28-9.42-2.39-6.4.9-9.64-.66-9.64-.66"/><path id="wmejbg" d="M1026 2592.16c-.21 3.52 5.34 9.9 2.67 17.63"/><path id="wmejbh" d="M1025.57 2609.67c-.41 5.24-5.74 14.44-7.22 13.56-1.48-.88-.62-3.73-.62-3.73"/><path id="wmejbi" d="M1019.8 2614.9c1.03-4.03 4.91-12.55 4.5-13.36-.43-.8-2.83-1.16-2.83-1.16"/><path id="wmejbj" d="M1022.57 2582.82s-5.13-6.5-3.98 1.66c1.14 8.15 1.21 11.9 1.21 11.9"/><path id="wmejbk" d="M1017.83 2606.81c-3.04 5.4-7.27 7.49-8.2 5.06"/><path id="wmejbl" d="M1000.02 2648.9s-3.26 9.2 2.9 11.44 7.01-1.03 12.01-4.3c5-3.28 8.3-4.95 9-8.2.68-3.26 6.4-9.56 1.85-7.34-4.54 2.22-15.55 15.27-16.86 12.9-1.32-2.39 5.2-9.85 5.6-12.41.4-2.57.93-8.92-2.35-3.94-3.28 4.97-2.88 8-5.12 9.62-2.23 1.63-1.69-.5-2.57 2.25a326.4 326.4 0 0 0-1.11 3.5"/><path id="wmejbm" d="M1002.71 2643.57c.99-1.06 4.8-6.66 6.43-10.42 1.64-3.75 3.96-6.8 3.96-6.8"/><path id="wmejbn" d="M1022.06 2627.07l-2.13 8.38"/><path id="wmejbo" d="M1029.47 2634.75s-4.6-2.73-4.54-5.84"/><path id="wmejbp" d="M1112.64 2543.53s2.2 10.32-3.86 5.32"/><path id="wmejbq" d="M1122.3 2539.18s8.03 11.33 1.93 16.91c-6.09 5.6-7.67 5.62-10.62 2.9-2.95-2.71-3.87-3.86-3.87-3.86"/><path id="wmejbr" d="M1114.1 2554.65s5.69 3.25 6.75-1.45c1.07-4.71-.96-8.7-.96-8.7"/><path id="wmejbs" d="M1005.41 2553.68c-2.15-4.32-2.94-10.63-7.24-9.18-4.3 1.44 0 2.2 3.38 15.94 3.38 13.75 2 25.81-3.38 28.52-5.38 2.7-19 6.1-20.29 1.45-1.29-4.65 4.59-15.59 6.28-25.62 1.69-10.03-4.5-43.34-15.94-52.67-11.44-9.33-22-16.89-31.4-16.43-9.4.45-17.9 2.7-25.11 6.28-7.22 3.58-5.8 6.8-7.73 3.86-1.92-2.93-3.38-4.35-3.38-4.35"/><path id="wmejbt" d="M896.25 2513.08c-10.17 7.2-17.44 29.58-17.39 41.08.05 11.5 10.03 55.82 55.55 58 45.52 2.17 45.77-55 43.47-70.56-2.3-15.56-20.92-38.61-38.16-40.6-17.23-1.99-31.4 6.77-31.4 6.77"/><path id="wmejbu" d="M902.05 2512.6s-18.62 13.93-18.84 40.11c-.22 26.18 19.7 52.62 48.3 55.1 28.61 2.48 33.81-14.98 33.81-14.98"/><path id="wmejbv" d="M970.64 2603.46s5.53-4.54 16.42-4.35c10.89.18 17.87.26 20.28-8.7 2.42-8.96 3.39-17.4 3.39-17.4"/><path id="wmejbw" d="M1015.56 2589.44s-6.26 5.68-8.22 7.73"/><path id="wmejbx" d="M1003.48 2602.5c-7.76 2.56-25.6 2.9-27.53 7.24-1.93 4.34-5.09 10.47 3.38 9.18 8.47-1.28 13.03-9.39 12.56-2.9-.47 6.5-7.25 9.42 1.45 9.18 8.7-.23 14.49-3.38 14.49-3.38"/><path id="wmejby" d="M1006.86 2609.74c-3.42 2.74-2.26 5.48-5.8 7.25-3.53 1.77-4.5 7.74-3.86 1.93.64-5.8 4.36-10.11 0-9.66"/><path id="wmejbz" d="M1004.45 2540.15s-18.92-27.95-31.88-35.77c-12.96-7.8-30.92-8.7-30.92-8.7"/><path id="wmejbA" d="M881.76 2517.43s-11.32 12.54-12.56 14.98c-1.24 2.45.72 6-1.93 10.15s-4.17 9.4-3.38 15.95c.78 6.56 5.18 41.75 58.44 52.2"/><path id="wmejbB" d="M988.99 2581.7c-2.91-.94-6.31 5.08-2.9 5.8 3.41.74 5.81-4.84 2.9-5.8z"/><path id="wmejbC" d="M995.75 2566.24c-2.87-1.55-2.28 5.08 0 5.8 2.29.73 5.78-2.68 0-5.8z"/><path id="wmejbD" d="M989.96 2547.4c-1.16 1.31-1.21 3.94-.49 5.31.73 1.38 4.4.87 4.35-1.93-.06-2.8-2.7-4.7-3.86-3.38z"/><path id="wmejbE" d="M988.99 2529.52c-1.96.59-.64 5.5 2.42 5.8 3.05.28 3-7.44-2.42-5.8z"/><path id="wmejbF" d="M977.4 2513.08c-1.78-2.43-6.58-5.22-5.8-2.41.79 2.8 7.58 4.85 5.8 2.41z"/><path id="wmejbG" d="M880.8 2523.23c-2.28 1.9-4.7 5.68-1.94 5.32 2.77-.37 4.2-7.22 1.93-5.32z"/><path id="wmejbH" d="M875 2537.73c-2.66-.22-6.23 5.64-2.9 7.25 3.33 1.61 4.52-1.63 4.83-3.38.31-1.76.73-3.65-1.93-3.87z"/><path id="wmejbI" d="M872.58 2558.51c-3.18.64-4.22 4.42-1.45 6.77 2.78 2.35 4.84-1 4.83-3.39 0-2.37-.19-4.02-3.38-3.38z"/><path id="wmejbJ" d="M879.35 2584.13c-.2 3.38 6.22 7.51 5.8 3.86-.44-3.65-5.61-7.14-5.8-3.86z"/><path id="wmejbK" d="M934.4 2536.76c-9.6.11-15.52 5.43-15.45 14.5.08 10.06 6.83 14.71 16.43 14.5 11.18-.24 14.8-11.6 13.52-17.4-1.27-5.8-6.1-11.7-14.5-11.6z"/><path id="wmejbL" d="M934.4 2571.56c-3.57 6.2-5.93 4.68-3.37 11.6 2.56 6.91 8.17 5.9 2.41 9.67-5.75 3.75-10.62 7.24-10.62 7.24"/><path id="wmejbM" d="M934.4 2577.84c2.26 5.08 1.9 6.4 3.87 11.12 1.98 4.73 12.08 11.6 12.08 11.6"/><path id="wmejbN" d="M941.17 2569.14c9.2 8.28 3.7 3.76 11.6 9.67 7.89 5.9 9.17 9.67 9.17 9.67"/><path id="wmejbO" d="M947.45 2565.76c9.22 2.57 6.26 8.34 11.6 3.87 5.33-4.47 8.4-8.72 9.65-7.25 1.26 1.47 4.83 4.35 4.83 4.35"/><path id="wmejbP" d="M953.73 2551.75c6.26-4.21 8.85-8.73 11.6-8.7 2.74.02 8.69 0 8.69 0"/><path id="wmejbQ" d="M951.31 2538.21c.74-6.52-.74-3.74 5.32-7.73 6.06-3.99 6.76-8.21 6.76-8.21"/><path id="wmejbR" d="M937.8 2530.48c-.63-13.27-2.78-10.94 0-16.91 2.76-5.98 7.72-5.32 7.72-5.32"/><path id="wmejbS" d="M912.67 2509.7c1.64 8.23-1.85 14.22 1.94 17.4a124.2 124.2 0 0 0 10.14 7.25"/><path id="wmejbT" d="M892.87 2535.31c9.31 12.63 15.82 16.3 17.39 14.99 1.57-1.32 3.86-3.39 3.86-3.39"/><path id="wmejbU" d="M891.42 2562.86c9.97-2.75 12.55 0 16.9.97 4.36.97 10.15-.97 10.15-.97"/><path id="wmejbV" d="M901.08 2582.2c6.78-7.52 3.19-6.19 10.14-7.26a13.28 13.28 0 0 0 9.67-6.76"/><path id="wmejbW" d="M924.75 2572.53c-6.57 9.12-7.46 14.56-9.18 17.4-1.71 2.83-3.38 3.86-3.38 3.86"/><path id="wmejbX" d="M914.6 2578.33c-3.55 7.87-3.2 7.34-4.34 10.15"/><path id="wmejbY" d="M905.43 2572.53c-6.52-1.24-14.5-4.35-14.5-4.35"/><path id="wmejbZ" d="M906.88 2569.14l10.14-2.41"/><path id="wmejca" d="M899.63 2574.94l-4.34 1.94"/><path id="wmejcb" d="M914.6 2556.58c-5.73 1.18-5.28 4.44-11.59 0-6.3-4.45-14.97-6.77-14.97-6.77"/><path id="wmejcc" d="M902.05 2551.75c-4.02-2.81-11.6-9.19-11.6-9.19"/><path id="wmejcd" d="M915.57 2542.08c-9.85.43-12.07-.48-12.07-.48"/><path id="wmejce" d="M909.3 2537.73c-4.53-6.22-6.29-17.4-6.29-17.4"/><path id="wmejcf" d="M919.92 2535.8c-6.35-2.15-9.66-3.39-9.66-3.39"/><path id="wmejcg" d="M903.01 2532.41c-3.3-.14-8.7-1.93-8.7-1.93"/><path id="wmejch" d="M897.22 2525.17c2.2.63 3.86.96 3.86.96"/><path id="wmejci" d="M921.37 2507.77c-2.64 7.64-7.55 9.81-.48 13.05 7.06 3.23 10.62 10.14 10.62 10.14"/><path id="wmejcj" d="M929.58 2532.41c-4.71-3.95-8.21-6.76-8.21-6.76"/><path id="wmejck" d="M922.33 2514.53c3.33-4.14 5.32-8.7 5.32-8.7"/><path id="wmejcl" d="M932.48 2505.35c-.23 1.64-4.89 8.09-3.38 11.6a57.58 57.58 0 0 0 4.34 7.73"/><path id="wmejcm" d="M943.59 2532.41a63.26 63.26 0 0 1-3.38-7.73"/><path id="wmejcn" d="M940.69 2520.33c2-2.36 9.66-9.18 9.66-9.18"/><path id="wmejco" d="M954.7 2514.53c-4.04 1.76-8.93 3.55-9.66 6.77"/><path id="wmejcp" d="M959.04 2518.4c-4.6 3.58-9.14 8.46-11.59 7.73"/><path id="wmejcq" d="M951.31 2527.58s-3.05 2.86-3.38 6.28"/><path id="wmejcr" d="M952.76 2543.05c3.5-2.19 2.83-5.46 8.22-6.77 5.38-1.3 10.14 0 10.14 0"/><path id="wmejcs" d="M966.77 2527.58c-3.53 3.27-5.31 4.35-5.31 4.35"/><path id="wmejct" d="M954.21 2545.95c2.86-2.38 4.83-4.35 4.83-4.35"/><path id="wmejcu" d="M952.28 2557.06c3.84 4.87 9.18 6.77 9.18 6.77"/><path id="wmejcv" d="M965.8 2568.18l5.32 3.86"/><path id="wmejcw" d="M950.83 2561.9s4.16 4.64 5.8 4.83"/><path id="wmejcx" d="M962.42 2572.53c.74 1.64 5.24 5 4.83 9.66"/><path id="wmejcy" d="M971.6 2576.88l-3.86-2.9"/><path id="wmejcz" d="M961.94 2580.26c-6.04-5.88-12.56-8.7-12.56-8.7"/><path id="wmejcA" d="M940.69 2574.46c1.3 5.58-.88 13.34 5.31 13.53 6.2.2 12.56 5.32 12.56 5.32"/><path id="wmejcB" d="M957.11 2588.48c-1.74-1.24-11.6-9.67-12.07-10.64"/><path id="wmejcC" d="M954.7 2597.17c-1.37-.64-8.7-5.8-8.7-5.8"/><path id="wmejcD" d="M936.82 2596.7c.17 2.87 3.39 6.76 3.39 6.76"/><path id="wmejcE" d="M932.96 2598.14l1.45 5.32"/><path id="wmejcF" d="M928.61 2599.6l.49 2.9"/><path id="wmejcG" d="M918.47 2596.2c3.34-2.45 11.1-5.8 11.1-5.8"/><path id="wmejcH" d="M922.33 2589.93a22.61 22.61 0 0 0 4.83-4.84"/><path id="wmejcI" d="M923.3 2583.64a84.95 84.95 0 0 0 4.35-8.21"/><path id="wmejcJ" d="M957.6 2554.65c7.73-.7 16.42-2.42 16.42-2.42"/><path id="wmejcK" d="M963.39 2549.81c3.11-.96 7.25-2.41 7.25-2.41"/><path id="wmejcL" d="M963.39 2559c3.1-.72 8.21-.49 8.21-.49"/><path id="wmejcM" d="M779.36 2534.35c-5.49-1.31-9.18 6.22-9.66 10.63-.48 4.41 3.1 11.17 9.18 9.67s10.52-17.91.48-20.3z"/><path id="wmejcN" d="M775.01 2534.35s-9.5-2.13-11.1 9.18c-1.62 11.3 11.1 11.6 11.1 11.6"/><path id="wmejcO" d="M773.08 2537.73h9.66"/><path id="wmejcP" d="M772.12 2541.11c.45 0 12.55-.48 12.55-.48l-14 3.87 13.04 1.45-12.08 1.93 9.66 1.45-8.2 1.45 6.27 1.45"/><path id="wmejcQ" d="M961.62 2722.94c5.55.97 8.78-6.77 8.99-11.2.2-4.44-3.78-10.96-9.76-9.1-5.97 1.88-9.4 18.53.77 20.3z"/><path id="wmejcR" d="M965.96 2722.67s9.6 1.54 10.52-9.84c.92-11.4-11.8-10.9-11.8-10.9"/><path id="wmejcS" d="M967.68 2719.18l-9.65.59"/><path id="wmejcT" d="M968.43 2715.74c-.45.03-12.5 1.25-12.5 1.25l13.74-4.71-13.1-.65 11.93-2.67-9.73-.86 8.1-1.95-6.35-1.06"/><path id="wmejcU" d="M1067.94 2463.13c4.7-3.12 1.74-10.96-1.15-14.33-2.9-3.37-10.26-5.37-13.33.1-3.06 5.46 5.87 19.92 14.48 14.23z"/><path id="wmejcV" d="M1070.91 2459.95s8.04-5.48.9-14.39c-7.15-8.9-16.06.18-16.06.18"/><path id="wmejcW" d="M1069.76 2456.23l-6.6 7.05"/><path id="wmejcX" d="M1067.96 2453.2c-.32.34-8.24 9.51-8.24 9.51l6.76-12.87-9.97 8.53 6.84-10.14-7.66 6.06 4.56-6.98-5.35 3.59"/><path id="wmejcY" d="M832.98 2550.78c-6.64-.43-12.97-2.25-16.9 3.38-3.95 5.63-2.68 23.21 5.79 32.38 8.46 9.17 18.33 13.22 23.66 10.15 5.33-3.07 5.87-10.22 0-18.85-5.86-8.62-6.29-13.56-5.8-18.36.5-4.8-.11-8.27-6.75-8.7z"/><path id="wmejcZ" d="M821.38 2550.3s-14.82-1.3-13.52 22.23c1.3 23.53 21.34 27.45 32.84 25.61"/><path id="wmejda" d="M839.74 2594.27c3.7 1.29 7.1.32 6.28-3.86-.83-4.19.97-3.63-3.87-4.35-4.83-.73-9.76-3.09-6.28-2.9 3.5.19 12.3-.65 7.73-.97-4.56-.31-12.07-3-15.45-1.93-3.39 1.07-6.3 3.58-1.94 5.8 4.38 2.22 16.11 1.22 14.98 3.38-1.14 2.16-16.19-.28-1.45 4.83z"/><path id="wmejdb" d="M838.29 2577.36c.87-.19 4.58-1.63.97-3.38-3.62-1.75-12.06-3.49-8.7-3.87 3.36-.38 8.88-1.56 5.8-2.42-3.09-.85-14.73-1.94-11.11-2.9 3.62-.96 12.71.96 11.1-1.93-1.6-2.89-7.78-3.42-7.24-4.83.55-1.41 7.67.51 6.28-1.94-1.39-2.44-7.75-3.4-11.6-2.41-3.83.98-7.73 2.53-3.37 4.35 4.36 1.81 12.2 2.51 6.28 3.38-5.93.87-9.8-1.93-8.7 1.93 1.11 3.87 4.83 6.6 8.21 7.25 3.4.65-5.07.28-5.8 1.94-.71 1.66-1.58 4.2 3.39 3.38 4.97-.82 12.77-2.55 9.66-.97-3.11 1.59-9.18 2.9-9.18 2.9"/><path id="wmejdc" d="M970.97 2635.71c5.56-.36 10.85-1.88 14.14 2.83 3.3 4.7 2.24 19.4-4.85 27.06-7.08 7.67-15.34 11.05-19.8 8.48-4.46-2.56-4.9-8.54 0-15.75 4.9-7.2 5.27-11.33 4.85-15.35-.41-4.01.1-6.9 5.66-7.27z"/><path id="wmejdd" d="M980.67 2635.3s12.4-1.08 11.31 18.59c-1.08 19.67-17.85 22.94-27.48 21.4"/><path id="wmejde" d="M965.31 2672.07c-3.09 1.07-5.94.26-5.25-3.24.7-3.5-.81-3.02 3.23-3.63 4.05-.6 8.17-2.58 5.26-2.42-2.92.15-10.28-.55-6.47-.81 3.81-.27 10.1-2.51 12.93-1.62 2.83.9 5.28 3 1.62 4.85-3.66 1.85-13.48 1.02-12.53 2.83.95 1.8 13.54-.24 1.21 4.04z"/><path id="wmejdf" d="M966.53 2657.93c-.74-.16-3.84-1.37-.81-2.83s10.08-2.91 7.27-3.23c-2.8-.32-7.43-1.3-4.85-2.02 2.58-.71 12.32-1.62 9.3-2.42-3.03-.8-10.64.8-9.3-1.62 1.34-2.42 6.52-2.86 6.06-4.04-.45-1.18-6.41.43-5.25-1.61 1.16-2.05 6.49-2.85 9.7-2.02 3.2.82 6.48 2.11 2.83 3.63-3.65 1.52-10.21 2.1-5.26 2.83 4.96.73 8.2-1.62 7.28 1.61-.93 3.24-4.04 5.52-6.87 6.06-2.84.54 4.25.23 4.85 1.62.6 1.39 1.33 3.52-2.83 2.83-4.16-.7-10.69-2.14-8.08-.81 2.6 1.32 7.67 2.42 7.67 2.42"/><path id="wmejdg" d="M1003.82 2701.9c3.91 3.05 7.05 6.81 11.82 5 4.78-1.82 11.33-13.16 9.94-22.34-1.39-9.18-5.78-15.8-10.35-16.14-4.56-.34-7.87 3.84-7.86 11.6.02 7.75-1.78 10.96-4.09 13.71-2.3 2.75-3.37 5.14.54 8.18z"/><path id="wmejdh" d="M1010.76 2707.05s8.58 7 17.6-8.01c9.02-15.02-1.7-25.8-9.55-29.49"/><path id="wmejdi" d="M1017.8 2672.33c-1.75-2.33-4.25-3.17-5.48-.25-1.24 2.92-2.12 1.83.56 4.3 2.68 2.46 4.73 5.98 2.66 4.4-2.07-1.57-7.84-4.73-5.16-2.63 2.67 2.1 6.18 6.89 8.71 7.65 2.53.76 5.38.43 3.6-2.76-1.76-3.2-9.4-7.49-7.8-8.34 1.6-.86 9.85 6.94 2.9-2.37z"/><path id="wmejdj" d="M1011.63 2683.34c-.61-.25-3.5-.91-2 1.68s5.97 7.18 3.74 6.01c-2.23-1.17-6.12-2.75-4.58-.94 1.55 1.82 8.26 7.36 5.64 6.43-2.63-.92-7.44-5.9-7.65-3.46-.22 2.46 3.37 5.37 2.44 6-.92.65-4.5-3.52-4.67-1.43-.16 2.09 3.36 5.33 6.13 6.33 2.78 1 5.83 1.68 3.9-1.26-1.93-2.94-6.47-6.65-2.46-4.7 4.01 1.94 5.24 5.28 6.16 2.44.93-2.84-.21-6.08-2.03-7.89-1.82-1.81 3.24 1.96 4.38 1.24 1.13-.72 2.73-1.93-.68-3.5-3.4-1.57-8.93-3.77-6.35-3.44 2.58.32 6.86 2.05 6.86 2.05"/><path id="wmejdk" d="M1074.3 2518.77c5.23.44 10.18 1.97 13.36-2.4 3.19-4.36 2.46-18.2-4.07-25.53-6.52-7.34-14.23-10.67-18.47-8.34-4.24 2.33-4.76 7.95-.28 14.81 4.48 6.87 4.74 10.75 4.28 14.52-.46 3.77-.03 6.5 5.19 6.94z"/><path id="wmejdl" d="M1083.42 2519.33s11.65 1.25 10.99-17.26c-.67-18.52-16.38-21.9-25.46-20.63"/><path id="wmejdm" d="M1069.65 2484.49c-2.9-1.07-5.59-.36-5 2.94.58 3.3-.82 2.83 2.97 3.48 3.8.64 7.64 2.57 4.9 2.37-2.74-.2-9.68.33-6.1.64 3.59.32 9.46 2.55 12.14 1.76 2.68-.79 5.01-2.72 1.6-4.53-3.4-1.81-12.65-1.2-11.73-2.89.93-1.68 12.74.48 1.22-3.77z"/><path id="wmejdn" d="M1070.53 2497.8c-.7.14-3.63 1.22-.81 2.65s9.43 2.92 6.78 3.17c-2.64.25-7.01 1.09-4.6 1.8 2.42.73 11.57 1.76 8.7 2.46-2.86.7-9.99-.95-8.77 1.35 1.22 2.3 6.08 2.8 5.63 3.9-.45 1.1-6.03-.52-4.97 1.43 1.05 1.94 6.05 2.79 9.08 2.07 3.04-.71 6.14-1.87 2.73-3.36-3.4-1.5-9.56-2.16-4.89-2.76 4.68-.6 7.69 1.67 6.87-1.38-.81-3.06-3.7-5.27-6.35-5.83-2.66-.55 4-.13 4.6-1.43.58-1.29 1.3-3.28-2.62-2.7-3.92.56-10.09 1.8-7.61.6 2.47-1.2 7.26-2.13 7.26-2.13"/><path id="wmejdo" d="M829.11 2616.5c-4.04-5.72-17.15-20.9-41.54-15.94-24.38 4.95-26.47 23.67-23.66 33.34 2.8 9.68 17.23 25.52 42.02 18.37 24.78-7.15 30.44-25.5 23.18-35.76z"/><path id="wmejdp" d="M815.59 2607.8c-5.14-2.15-19.5-5.92-28.98 3.87-9.48 9.8-9.02 22.52 5.31 29 14.33 6.48 25.9-.28 32.36-7.25 6.46-6.97 1.92-21.17-8.7-25.61z"/><path id="wmejdq" d="M888.52 2621.34c-6.34 2.14-12.26 5.27-11.59 11.6.67 6.32 11.34 10.08 18.84 5.8s5.63-10.36 4.35-13.05c-1.3-2.7-4.81-6.64-11.6-4.35z"/><path id="wmejdr" d="M885.14 2623.76c4.28-.15 11.6 0 11.6 0-6.24 2.48-22.58 6.1-18.36 5.8 4.21-.3 21.25-2.9 21.25-2.9l-20.77 7.73 21.74-4.35-18.84 7.25 17.39-2.9-11.6 4.83"/><path id="wmejds" d="M889 2620.37c-4.66.32-16.98.94-17.87 9.67-.88 8.73 6.75 11.05 14.5 11.11"/><path id="wmejdt" d="M934.4 2387.73c6.05.63 12 2.32 13 8.6 1.01 6.27-7.34 12.32-14.94 9.88-7.6-2.45-7.51-8.75-7.07-11.65.44-2.9 2.52-7.51 9-6.83z"/><path id="wmejdu" d="M937.94 2389.3c-3.76.82-10.1 2.62-10.1 2.62 6.07 1 21.2.8 17.45 1.46-3.74.67-19.24 2-19.24 2l20.04 2.78-20.03.72 18.23 2.75-15.87 1.13 11.31 2.05"/><path id="wmejdv" d="M933.73 2386.9c4.14-.75 15.02-2.94 18 5.3 2.96 8.25-3.1 12.23-9.83 14.05"/><path id="wmejdw" d="M1058.6 2683.15c5-1.59 9.78-4.17 9.92-10.38.14-6.21-7.52-10.7-13.6-7.13-6.08 3.57-5.3 9.63-4.6 12.36.7 2.72 2.94 6.84 8.29 5.15z"/><path id="wmejdx" d="M1061.4 2681.06c-3.24-.2-8.73-.91-8.73-.91 4.95-1.93 17.62-4.16 14.41-4.2-3.2-.05-16.3 1.14-16.3 1.14l16.43-5.89-16.81 2.53 14.92-5.58-13.39 1.46 9.22-3.8"/><path id="wmejdy" d="M1058.14 2684.05c3.55.05 12.89.42 14.45-8 1.55-8.43-3.96-11.3-9.79-11.96"/><path id="wmejdz" d="M857.61 2660c1.44-.22 7.93-4.97 3.86-9.66-4.06-4.7-15 .68-11.59 7.24 3.41 6.57 5.24 2.2 3.38 3.87-1.85 1.67-5.77 1.96-2.9 4.35 2.88 2.4 3.73.2 7.25 1.45s8.29 5.3 13.04 9.18c4.76 3.88 20.47 22.79 24.64 30.93 4.16 8.15 10.14 10.96 7.24 12.09-2.9 1.12-4.78 4.76.97 5.31 5.74.56 5.28 1 6.76 2.42 1.48 1.4 6.65 1.7 8.7-.49 2.03-2.18-.48-8.07-4.84-6.28-4.36 1.8-.6 1.85-4.83 1.93-4.23.09-8.65-.44-4.83-1.93 3.83-1.48 8.49-3.96 2.9-9.18s-16.47-14.85-21.74-22.72c-5.26-7.86-13.91-25.16-18.35-25.6-4.43-.46-6.48 1.48-9.18 1.44-2.7-.04-6.4.58-.96-3.38s-.96-.75.48-.97z"/><path id="wmejdA" d="M881.76 2657.58c-2.96 1.3-4.66 4.77-2.9 10.64 1.76 5.87 16.5 28.06 25.12 33.83 8.62 5.77 15.04 7.31 15.46 5.31.4-2-22.34-9.73-28.98-24.16-6.65-14.43-5.74-26.92-8.7-25.62z"/><path id="wmejdB" d="M889.49 2667.73c-.82-4-2.23-9.34 1.45-9.18 3.68.16-1.45 4.15 2.9 12.57 4.34 8.42 4.46 17.76 12.55 21.74 8.1 3.99 18.48 7.07 16.91 8.7-1.57 1.64-9.87-1.86-14.97-4.83-5.1-2.97-14.97-10.05-18.84-29z"/><path id="wmejdC" d="M895.77 2663.38s5.32-7.4 8.7-6.76c3.37.63.35 4.02-1.46 11.6-1.8 7.58-2.03 15.69 3.87 18.36 5.9 2.68 19.2 6.01 19.32 8.22.12 2.2-3.38 2.41-3.38 2.41"/><path id="wmejdD" d="M926.68 2706.88c-2 1.82-2.85 4.6.48 4.83 3.34.23 7.07-1.62 6.28-4.35-.78-2.72-4.76-2.3-6.76-.48z"/><path id="wmejdE" d="M921.37 2710.75c-4.85 1.49-8.21.48-8.21.48"/><path id="wmejdF" d="M913.64 2713.65s8.46 1.59 11.1-1.45"/><path id="wmejdG" d="M931.03 2712.2s-9.42 4.46-16.42 4.35"/><path id="wmejdH" d="M838.29 2666.28c-1.53-3.94-4.61-5.34-8.21-4.83-3.6.51-8.3 2.31-6.76 5.32 1.54 3 9.23 2.35 9.17 4.35-.05 2-1.04 5.5 2.42 4.83 3.46-.68.94-4.51 6.28-.48 5.33 4.03 21.17 1 30.91 11.6 9.74 10.6 17.21 29.98 15.94 34.3-1.27 4.34 2.95 6.46.48 6.77-2.46.32-6.29 3.54-2.9 4.84 3.4 1.29 7.77-.34 6.77 1.45-1.01 1.78.32 9.09 7.24 8.21 6.93-.87 6.19-9.34 1.93-10.15-4.25-.8-3.83.77-5.8 0-1.96-.76-8.14-1.5-5.3-2.41 2.83-.92 8.37-2.07 5.8-8.22-2.59-6.15-7.66-24.4-21.26-36.25-13.6-11.84-23.34-17.3-30.43-16.43-7.1.88-3.14 2.03-5.31 1.94-2.18-.1-3.92-.93-2.42-1.94 1.5-1 2.98 1.05 1.45-2.9z"/><path id="wmejdI" d="M844.09 2681.75c-3.53.52-4.39 2.48-5.8.97-1.41-1.52 1.57-3.21-.97-3.87-2.53-.66-11.18-4.9-13.52 0s4.25 5.37 7.24 4.83c3-.54-.18 1.76 4.83 2.42 5.02.65 22.7 1.45 30.43 8.21 7.74 6.77 8.11 18.79 6.28 24.65-1.83 5.87.21 8.54 1.94 8.7 1.72.16 5.46.86.96 3.38-4.5 2.53-5.19 8.9-.96 9.67 4.22.77 9.48-3.09 7.24-7.25s.39-3.89-.97-6.28c-1.35-2.4-4.36-1.56-1.44-2.9 2.91-1.35 4.8-19.17-7.25-31.42-12.04-12.24-26.07-11.4-28.01-11.11z"/><path id="wmejdJ" d="M846.98 2652.27c-1.7.83-8.34 5.12-8.2 8.21"/><path id="wmejdK" d="M889 2647.44s-7.45 2.98-7.24 6.76"/><path id="wmejdL" d="M890.46 2649.85s-1.24 5.44 1.44 5.8c2.69.37 6.08-2.38 5.8-4.83-.28-2.45-2.54-6.4-7.24-.97z"/><path id="wmejdM" d="M876.45 2660l-2.9 2.9"/><path id="wmejdN" d="M821.38 2668.7s-.3 2.56 1.94 4.83"/><path id="wmejdO" d="M826.21 2686.58s4.3 2.37 9.18 3.87 23.34-.06 28.5 9.66c5.16 9.73 2.01 15.3 1.45 19.82-.57 4.52 4.37 3.3 1.45 6.76s-1.56 7.73 1.93 9.67"/><path id="wmejdP" d="M883.7 2740.7c2.34.35 5.02 1.42 7.72 1.46"/><path id="wmejdQ" d="M905.43 2731.04s4.17-.38 5.31-.96"/><path id="wmejdR" d="M1013.07 2461.52c-1.03.42-5 5.12-1.14 7.88 3.87 2.77 11.03-3.2 7.32-7.47-3.71-4.26-4.29-.7-3.21-2.27s3.94-2.49 1.37-3.75c-2.57-1.26-2.8.52-5.64.23-2.85-.3-7.12-2.45-11.35-4.48-4.23-2.03-19.31-13.26-23.87-18.56-4.55-5.3-9.5-6.32-7.56-7.68 1.96-1.36 2.7-4.4-1.67-3.78-4.37.62-4.1.2-5.46-.58-1.36-.78-5.25-.06-6.38 1.93-1.12 1.99 1.8 5.91 4.72 3.8 2.92-2.12.12-1.49 3.25-2.3 3.13-.83 6.51-1.23 3.93.56-2.57 1.8-5.6 4.47-.5 7.35 5.1 2.87 14.91 8.07 20.24 12.97 5.33 4.9 14.87 16.2 18.25 15.74 3.38-.46 4.55-2.28 6.56-2.73 2.01-.46 4.66-1.58 1.32 2.34-3.33 3.92.85.38-.18.8z"/><path id="wmejdS" d="M995.55 2467.67c1.97-1.5 2.6-4.38.24-8.43-2.36-4.05-17.3-17.89-24.75-20.63-7.44-2.73-12.5-2.73-12.44-1.17.05 1.56 18.35 3.22 25.89 12.75 7.53 9.53 9.1 18.98 11.06 17.48z"/><path id="wmejdT" d="M987.98 2461.51c1.33 2.83 3.34 6.55.58 7.09-2.77.54.33-3.34-4.42-8.82-4.74-5.48-6.5-12.4-13.24-13.9-6.74-1.51-15-1.93-14.13-3.43.87-1.5 7.67-.39 12 .9 4.32 1.28 12.93 4.77 19.21 18.16z"/><path id="wmejdU" d="M984.1 2465.88s-2.63 6.45-5.25 6.59c-2.62.14-1-2.92-1-8.88-.02-5.96-1.32-12.03-6.18-12.96-4.86-.93-15.35-1.01-15.84-2.63-.49-1.62 2.08-2.4 2.08-2.4"/><path id="wmejdV" d="M953.3 2439.1c1.16-1.7 1.3-3.93-1.23-3.5-2.52.43-4.95 2.48-3.88 4.36 1.07 1.89 3.95.86 5.11-.85z"/><path id="wmejdW" d="M956.56 2435.28c3.33-1.99 6.01-1.84 6.01-1.84"/><path id="wmejdX" d="M961.78 2431.73s-6.57.34-8 3.08"/><path id="wmejdY" d="M949.11 2435.94s6.2-5.02 11.43-6.2"/><path id="wmejdZ" d="M1026.3 2453.38c1.85 2.66 4.4 3.14 6.97 2.11 2.59-1.02 5.76-3.21 4.08-5.17-1.7-1.95-7.3-.08-7.6-1.58-.33-1.49-.22-4.28-2.67-3.15-2.45 1.12.1 3.52-4.58 1.48-4.7-2.03-15.92 3.07-25.07-3.06-9.14-6.12-18.18-19.19-18.01-22.63.17-3.45-3.35-4.27-1.58-4.95 1.78-.67 4.04-3.76 1.29-4.11-2.76-.35-5.72 1.65-5.29.14.43-1.51-1.87-6.7-6.86-4.8-4.99 1.9-2.92 8.05.39 7.89 3.3-.16 2.7-1.26 4.3-1.05 1.6.22 6.33-.35 4.39.84-1.94 1.2-5.85 3.05-2.83 7.15 3.02 4.11 10.07 16.77 22.31 23.12 12.24 6.36 20.46 8.67 25.57 6.74 5.12-1.93 1.97-2.07 3.6-2.4 1.64-.32 3.08 0 2.15 1.01-.94 1.02-2.4-.24-.56 2.42z"/><path id="wmejea" d="M1019.21 2442.93c2.53-1.03 2.82-2.64 4.14-1.77 1.32.87-.59 2.67 1.41 2.7 2 .04 9.2 1.64 10.05-2.43.86-4.07-4.12-3.23-6.25-2.29s-.18-1.34-4.02-.93c-3.85.42-17.14 3-24.1-.63-6.96-3.63-9.4-12.5-9.1-17.19.3-4.69-1.69-6.3-3-6.12-1.3.2-4.21.35-1.32-2.34 2.88-2.68 2.26-7.54-1.02-7.36-3.28.19-6.5 4-4.09 6.7 2.42 2.69.41 2.95 1.85 4.5 1.44 1.53 3.53.36 1.6 1.89-1.93 1.52-.12 15.11 11.03 22.04 11.15 6.94 21.43 3.79 22.82 3.23z"/><path id="wmejeb" d="M1022.36 2465.36c1.1-.93 5.28-5.3 4.62-7.58"/><path id="wmejec" d="M991.99 2476.51s5-3.55 4.17-6.33"/><path id="wmejed" d="M990.48 2474.98s-.06-4.26-2.12-4.05c-2.06.2-4.09 2.87-3.44 4.63.65 1.77 3.04 4.3 5.56-.58z"/><path id="wmejee" d="M999.07 2464.91l1.63-2.67"/><path id="wmejef" d="M1038.43 2448.54s-.23-1.95-2.3-3.24"/><path id="wmejeg" d="M1031.63 2436.12s-3.62-.99-7.52-1.23c-3.9-.23-17.34 4.25-22.92-2.05-5.58-6.3-4.24-11-4.64-14.47-.39-3.46-3.84-1.67-2.29-4.77 1.55-3.1-.23-6.02-3.17-6.84"/><path id="wmejeh" d="M979.18 2406.22c-1.8.17-4-.14-6.01.32"/><path id="wmejei" d="M964.76 2417.32s-3.04 1.03-3.78 1.67"/></defs><g><g transform="translate(-725 -2359)"><g><use fill="#fff" fill-opacity="0" stroke="#e6e6e6" stroke-linecap="round" stroke-linejoin="round" stroke-miterlimit="50" xlink:href="#wmeja"/></g><g><use fill="#fff" fill-opacity="0" stroke="#e6e6e6" stroke-linecap="round" stroke-linejoin="round" stroke-miterlimit="50" xlink:href="#wmejb"/></g><g><use fill="#fff" fill-opacity="0" stroke="#e6e6e6" stroke-linecap="round" stroke-linejoin="round" stroke-miterlimit="50" xlink:href="#wmejc"/></g><g><use fill="#fff" fill-opacity="0" stroke="#e6e6e6" stroke-linecap="round" stroke-linejoin="round" stroke-miterlimit="50" xlink:href="#wmejd"/></g><g><use fill="#fff" fill-opacity="0" stroke="#e6e6e6" stroke-linecap="round" stroke-linejoin="round" stroke-miterlimit="50" xlink:href="#wmeje"/></g><g><use fill="#fff" fill-opacity="0" stroke="#e6e6e6" stroke-linecap="round" stroke-linejoin="round" stroke-miterlimit="50" xlink:href="#wmejf"/></g><g><use fill="#fff" fill-opacity="0" stroke="#e6e6e6" stroke-linecap="round" stroke-linejoin="round" stroke-miterlimit="50" xlink:href="#wmejg"/></g><g><use fill="#fff" fill-opacity="0" stroke="#e6e6e6" stroke-linecap="round" stroke-linejoin="round" stroke-miterlimit="50" xlink:href="#wmejh"/></g><g><use fill="#fff" fill-opacity="0" stroke="#e6e6e6" stroke-linecap="round" stroke-linejoin="round" stroke-miterlimit="50" xlink:href="#wmeji"/></g><g><use fill="#fff" fill-opacity="0" stroke="#e6e6e6" stroke-linecap="round" stroke-linejoin="round" stroke-miterlimit="50" xlink:href="#wmejj"/></g><g><use fill="#fff" fill-opacity="0" stroke="#e6e6e6" stroke-linecap="round" stroke-linejoin="round" stroke-miterlimit="50" xlink:href="#wmejk"/></g><g><use fill="#fff" fill-opacity="0" stroke="#e6e6e6" stroke-linecap="round" stroke-linejoin="round" stroke-miterlimit="50" xlink:href="#wmejl"/></g><g><use fill="#fff" fill-opacity="0" stroke="#e6e6e6" stroke-linecap="round" stroke-linejoin="round" stroke-miterlimit="50" xlink:href="#wmejm"/></g><g><use fill="#fff" fill-opacity="0" stroke="#e6e6e6" stroke-linecap="round" stroke-linejoin="round" stroke-miterlimit="50" xlink:href="#wmejn"/></g><g><use fill="#fff" fill-opacity="0" stroke="#e6e6e6" stroke-linecap="round" stroke-linejoin="round" stroke-miterlimit="50" xlink:href="#wmejo"/></g><g><use fill="#fff" fill-opacity="0" stroke="#e6e6e6" stroke-linecap="round" stroke-linejoin="round" stroke-miterlimit="50" xlink:href="#wmejp"/></g><g><use fill="#fff" fill-opacity="0" stroke="#e6e6e6" stroke-linecap="round" stroke-linejoin="round" stroke-miterlimit="50" xlink:href="#wmejq"/></g><g><use fill="#fff" fill-opacity="0" stroke="#e6e6e6" stroke-linecap="round" stroke-linejoin="round" stroke-miterlimit="50" xlink:href="#wmejr"/></g><g><use fill="#fff" fill-opacity="0" stroke="#e6e6e6" stroke-linecap="round" stroke-linejoin="round" stroke-miterlimit="50" xlink:href="#wmejs"/></g><g><use fill="#fff" fill-opacity="0" stroke="#e6e6e6" stroke-linecap="round" stroke-linejoin="round" stroke-miterlimit="50" xlink:href="#wmejt"/></g><g><use fill="#fff" fill-opacity="0" stroke="#e6e6e6" stroke-linecap="round" stroke-linejoin="round" stroke-miterlimit="50" xlink:href="#wmeju"/></g><g><use fill="#fff" fill-opacity="0" stroke="#e6e6e6" stroke-linecap="round" stroke-linejoin="round" stroke-miterlimit="50" xlink:href="#wmejv"/></g><g><use fill="#fff" fill-opacity="0" stroke="#e6e6e6" stroke-linecap="round" stroke-linejoin="round" stroke-miterlimit="50" xlink:href="#wmejw"/></g><g><use fill="#fff" fill-opacity="0" stroke="#e6e6e6" stroke-linecap="round" stroke-linejoin="round" stroke-miterlimit="50" xlink:href="#wmejx"/></g><g><use fill="#fff" fill-opacity="0" stroke="#e6e6e6" stroke-linecap="round" stroke-linejoin="round" stroke-miterlimit="50" xlink:href="#wmejy"/></g><g><use fill="#fff" fill-opacity="0" stroke="#e6e6e6" stroke-linecap="round" stroke-linejoin="round" stroke-miterlimit="50" xlink:href="#wmejz"/></g><g><use fill="#fff" fill-opacity="0" stroke="#e6e6e6" stroke-linecap="round" stroke-linejoin="round" stroke-miterlimit="50" xlink:href="#wmejA"/></g><g><use fill="#fff" fill-opacity="0" stroke="#e6e6e6" stroke-linecap="round" stroke-linejoin="round" stroke-miterlimit="50" xlink:href="#wmejB"/></g><g><use fill="#fff" fill-opacity="0" stroke="#e6e6e6" stroke-linecap="round" stroke-linejoin="round" stroke-miterlimit="50" xlink:href="#wmejC"/></g><g><use fill="#fff" fill-opacity="0" stroke="#e6e6e6" stroke-linecap="round" stroke-linejoin="round" stroke-miterlimit="50" xlink:href="#wmejD"/></g><g><use fill="#fff" fill-opacity="0" stroke="#e6e6e6" stroke-linecap="round" stroke-linejoin="round" stroke-miterlimit="50" xlink:href="#wmejE"/></g><g><use fill="#fff" fill-opacity="0" stroke="#e6e6e6" stroke-linecap="round" stroke-linejoin="round" stroke-miterlimit="50" xlink:href="#wmejF"/></g><g><use fill="#fff" fill-opacity="0" stroke="#e6e6e6" stroke-linecap="round" stroke-linejoin="round" stroke-miterlimit="50" xlink:href="#wmejG"/></g><g><use fill="#fff" fill-opacity="0" stroke="#e6e6e6" stroke-linecap="round" stroke-linejoin="round" stroke-miterlimit="50" xlink:href="#wmejH"/></g><g><use fill="#fff" fill-opacity="0" stroke="#e6e6e6" stroke-linecap="round" stroke-linejoin="round" stroke-miterlimit="50" xlink:href="#wmejI"/></g><g><use fill="#fff" fill-opacity="0" stroke="#e6e6e6" stroke-linecap="round" stroke-linejoin="round" stroke-miterlimit="50" xlink:href="#wmejJ"/></g><g><use fill="#fff" fill-opacity="0" stroke="#e6e6e6" stroke-linecap="round" stroke-linejoin="round" stroke-miterlimit="50" xlink:href="#wmejK"/></g><g><use fill="#fff" fill-opacity="0" stroke="#e6e6e6" stroke-linecap="round" stroke-linejoin="round" stroke-miterlimit="50" xlink:href="#wmejL"/></g><g><use fill="#fff" fill-opacity="0" stroke="#e6e6e6" stroke-linecap="round" stroke-linejoin="round" stroke-miterlimit="50" xlink:href="#wmejM"/></g><g><use fill="#fff" fill-opacity="0" stroke="#e6e6e6" stroke-linecap="round" stroke-linejoin="round" stroke-miterlimit="50" xlink:href="#wmejN"/></g><g><use fill="#fff" fill-opacity="0" stroke="#e6e6e6" stroke-linecap="round" stroke-linejoin="round" stroke-miterlimit="50" xlink:href="#wmejO"/></g><g><use fill="#fff" fill-opacity="0" stroke="#e6e6e6" stroke-linecap="round" stroke-linejoin="round" stroke-miterlimit="50" xlink:href="#wmejP"/></g><g><use fill="#fff" fill-opacity="0" stroke="#e6e6e6" stroke-linecap="round" stroke-linejoin="round" stroke-miterlimit="50" xlink:href="#wmejQ"/></g><g><use fill="#fff" fill-opacity="0" stroke="#e6e6e6" stroke-linecap="round" stroke-linejoin="round" stroke-miterlimit="50" xlink:href="#wmejR"/></g><g><use fill="#fff" fill-opacity="0" stroke="#e6e6e6" stroke-linecap="round" stroke-linejoin="round" stroke-miterlimit="50" xlink:href="#wmejS"/></g><g><use fill="#fff" fill-opacity="0" stroke="#e6e6e6" stroke-linecap="round" stroke-linejoin="round" stroke-miterlimit="50" xlink:href="#wmejT"/></g><g><use fill="#fff" fill-opacity="0" stroke="#e6e6e6" stroke-linecap="round" stroke-linejoin="round" stroke-miterlimit="50" xlink:href="#wmejU"/></g><g><use fill="#fff" fill-opacity="0" stroke="#e6e6e6" stroke-linecap="round" stroke-linejoin="round" stroke-miterlimit="50" xlink:href="#wmejV"/></g><g><use fill="#fff" fill-opacity="0" stroke="#e6e6e6" stroke-linecap="round" stroke-linejoin="round" stroke-miterlimit="50" xlink:href="#wmejW"/></g><g><use fill="#fff" fill-opacity="0" stroke="#e6e6e6" stroke-linecap="round" stroke-linejoin="round" stroke-miterlimit="50" xlink:href="#wmejX"/></g><g><use fill="#fff" fill-opacity="0" stroke="#e6e6e6" stroke-linecap="round" stroke-linejoin="round" stroke-miterlimit="50" xlink:href="#wmejY"/></g><g><use fill="#fff" fill-opacity="0" stroke="#e6e6e6" stroke-linecap="round" stroke-linejoin="round" stroke-miterlimit="50" xlink:href="#wmejZ"/></g><g><use fill="#fff" fill-opacity="0" stroke="#e6e6e6" stroke-linecap="round" stroke-linejoin="round" stroke-miterlimit="50" xlink:href="#wmejaa"/></g><g><use fill="#fff" fill-opacity="0" stroke="#e6e6e6" stroke-linecap="round" stroke-linejoin="round" stroke-miterlimit="50" xlink:href="#wmejab"/></g><g><use fill="#fff" fill-opacity="0" stroke="#e6e6e6" stroke-linecap="round" stroke-linejoin="round" stroke-miterlimit="50" xlink:href="#wmejac"/></g><g><use fill="#fff" fill-opacity="0" stroke="#e6e6e6" stroke-linecap="round" stroke-linejoin="round" stroke-miterlimit="50" xlink:href="#wmejad"/></g><g><use fill="#fff" fill-opacity="0" stroke="#e6e6e6" stroke-linecap="round" stroke-linejoin="round" stroke-miterlimit="50" xlink:href="#wmejae"/></g><g/><g><use fill="#fff" fill-opacity="0" stroke="#e6e6e6" stroke-linecap="round" stroke-linejoin="round" stroke-miterlimit="50" xlink:href="#wmejaf"/></g><g><use fill="#fff" fill-opacity="0" stroke="#e6e6e6" stroke-linecap="round" stroke-linejoin="round" stroke-miterlimit="50" xlink:href="#wmejag"/></g><g><use fill="#fff" fill-opacity="0" stroke="#e6e6e6" stroke-linecap="round" stroke-linejoin="round" stroke-miterlimit="50" xlink:href="#wmejah"/></g><g><use fill="#fff" fill-opacity="0" stroke="#e6e6e6" stroke-linecap="round" stroke-linejoin="round" stroke-miterlimit="50" xlink:href="#wmejai"/></g><g><use fill="#fff" fill-opacity="0" stroke="#e6e6e6" stroke-linecap="round" stroke-linejoin="round" stroke-miterlimit="50" xlink:href="#wmejaj"/></g><g><use fill="#fff" fill-opacity="0" stroke="#e6e6e6" stroke-linecap="round" stroke-linejoin="round" stroke-miterlimit="50" xlink:href="#wmejak"/></g><g><use fill="#fff" fill-opacity="0" stroke="#e6e6e6" stroke-linecap="round" stroke-linejoin="round" stroke-miterlimit="50" xlink:href="#wmejal"/></g><g><use fill="#fff" fill-opacity="0" stroke="#e6e6e6" stroke-linecap="round" stroke-linejoin="round" stroke-miterlimit="50" xlink:href="#wmejam"/></g><g><use fill="#fff" fill-opacity="0" stroke="#e6e6e6" stroke-linecap="round" stroke-linejoin="round" stroke-miterlimit="50" xlink:href="#wmejan"/></g><g><use fill="#fff" fill-opacity="0" stroke="#e6e6e6" stroke-linecap="round" stroke-linejoin="round" stroke-miterlimit="50" xlink:href="#wmejao"/></g><g><use fill="#fff" fill-opacity="0" stroke="#e6e6e6" stroke-linecap="round" stroke-linejoin="round" stroke-miterlimit="50" xlink:href="#wmejap"/></g><g><use fill="#fff" fill-opacity="0" stroke="#e6e6e6" stroke-linecap="round" stroke-linejoin="round" stroke-miterlimit="50" xlink:href="#wmejaq"/></g><g><use fill="#fff" fill-opacity="0" stroke="#e6e6e6" stroke-linecap="round" stroke-linejoin="round" stroke-miterlimit="50" xlink:href="#wmejar"/></g><g><use fill="#fff" fill-opacity="0" stroke="#e6e6e6" stroke-linecap="round" stroke-linejoin="round" stroke-miterlimit="50" xlink:href="#wmejas"/></g><g><use fill="#fff" fill-opacity="0" stroke="#e6e6e6" stroke-linecap="round" stroke-linejoin="round" stroke-miterlimit="50" xlink:href="#wmejat"/></g><g><use fill="#fff" fill-opacity="0" stroke="#e6e6e6" stroke-linecap="round" stroke-linejoin="round" stroke-miterlimit="50" xlink:href="#wmejau"/></g><g><use fill="#fff" fill-opacity="0" stroke="#e6e6e6" stroke-linecap="round" stroke-linejoin="round" stroke-miterlimit="50" xlink:href="#wmejav"/></g><g><use fill="#fff" fill-opacity="0" stroke="#e6e6e6" stroke-linecap="round" stroke-linejoin="round" stroke-miterlimit="50" xlink:href="#wmejaw"/></g><g><use fill="#fff" fill-opacity="0" stroke="#e6e6e6" stroke-linecap="round" stroke-linejoin="round" stroke-miterlimit="50" xlink:href="#wmejax"/></g><g><use fill="#fff" fill-opacity="0" stroke="#e6e6e6" stroke-linecap="round" stroke-linejoin="round" stroke-miterlimit="50" xlink:href="#wmejay"/></g><g><use fill="#fff" fill-opacity="0" stroke="#e6e6e6" stroke-linecap="round" stroke-linejoin="round" stroke-miterlimit="50" xlink:href="#wmejaz"/></g><g><use fill="#fff" fill-opacity="0" stroke="#e6e6e6" stroke-linecap="round" stroke-linejoin="round" stroke-miterlimit="50" xlink:href="#wmejaA"/></g><g><use fill="#fff" fill-opacity="0" stroke="#e6e6e6" stroke-linecap="round" stroke-linejoin="round" stroke-miterlimit="50" xlink:href="#wmejaB"/></g><g><use fill="#fff" fill-opacity="0" stroke="#e6e6e6" stroke-linecap="round" stroke-linejoin="round" stroke-miterlimit="50" xlink:href="#wmejaC"/></g><g><use fill="#fff" fill-opacity="0" stroke="#e6e6e6" stroke-linecap="round" stroke-linejoin="round" stroke-miterlimit="50" xlink:href="#wmejaD"/></g><g><use fill="#fff" fill-opacity="0" stroke="#e6e6e6" stroke-linecap="round" stroke-linejoin="round" stroke-miterlimit="50" xlink:href="#wmejaE"/></g><g><use fill="#fff" fill-opacity="0" stroke="#e6e6e6" stroke-linecap="round" stroke-linejoin="round" stroke-miterlimit="50" xlink:href="#wmejaF"/></g><g><use fill="#fff" fill-opacity="0" stroke="#e6e6e6" stroke-linecap="round" stroke-linejoin="round" stroke-miterlimit="50" xlink:href="#wmejaG"/></g><g><use fill="#fff" fill-opacity="0" stroke="#e6e6e6" stroke-linecap="round" stroke-linejoin="round" stroke-miterlimit="50" xlink:href="#wmejaH"/></g><g><use fill="#fff" fill-opacity="0" stroke="#e6e6e6" stroke-linecap="round" stroke-linejoin="round" stroke-miterlimit="50" xlink:href="#wmejaI"/></g><g><use fill="#fff" fill-opacity="0" stroke="#e6e6e6" stroke-linecap="round" stroke-linejoin="round" stroke-miterlimit="50" xlink:href="#wmejaJ"/></g><g><use fill="#fff" fill-opacity="0" stroke="#e6e6e6" stroke-linecap="round" stroke-linejoin="round" stroke-miterlimit="50" xlink:href="#wmejaK"/></g><g><use fill="#fff" fill-opacity="0" stroke="#e6e6e6" stroke-linecap="round" stroke-linejoin="round" stroke-miterlimit="50" xlink:href="#wmejaL"/></g><g><use fill="#fff" fill-opacity="0" stroke="#e6e6e6" stroke-linecap="round" stroke-linejoin="round" stroke-miterlimit="50" xlink:href="#wmejaM"/></g><g><use fill="#fff" fill-opacity="0" stroke="#e6e6e6" stroke-linecap="round" stroke-linejoin="round" stroke-miterlimit="50" xlink:href="#wmejaN"/></g><g><use fill="#fff" fill-opacity="0" stroke="#e6e6e6" stroke-linecap="round" stroke-linejoin="round" stroke-miterlimit="50" xlink:href="#wmejaO"/></g><g><use fill="#fff" fill-opacity="0" stroke="#e6e6e6" stroke-linecap="round" stroke-linejoin="round" stroke-miterlimit="50" xlink:href="#wmejaP"/></g><g><use fill="#fff" fill-opacity="0" stroke="#e6e6e6" stroke-linecap="round" stroke-linejoin="round" stroke-miterlimit="50" xlink:href="#wmejaQ"/></g><g><use fill="#fff" fill-opacity="0" stroke="#e6e6e6" stroke-linecap="round" stroke-linejoin="round" stroke-miterlimit="50" xlink:href="#wmejaR"/></g><g><use fill="#fff" fill-opacity="0" stroke="#e6e6e6" stroke-linecap="round" stroke-linejoin="round" stroke-miterlimit="50" xlink:href="#wmejaS"/></g><g><use fill="#fff" fill-opacity="0" stroke="#e6e6e6" stroke-linecap="round" stroke-linejoin="round" stroke-miterlimit="50" xlink:href="#wmejaT"/></g><g><use fill="#fff" fill-opacity="0" stroke="#e6e6e6" stroke-linecap="round" stroke-linejoin="round" stroke-miterlimit="50" xlink:href="#wmejaU"/></g><g><use fill="#fff" fill-opacity="0" stroke="#e6e6e6" stroke-linecap="round" stroke-linejoin="round" stroke-miterlimit="50" xlink:href="#wmejaV"/></g><g><use fill="#fff" fill-opacity="0" stroke="#e6e6e6" stroke-linecap="round" stroke-linejoin="round" stroke-miterlimit="50" xlink:href="#wmejaW"/></g><g><use fill="#fff" fill-opacity="0" stroke="#e6e6e6" stroke-linecap="round" stroke-linejoin="round" stroke-miterlimit="50" xlink:href="#wmejaX"/></g><g><use fill="#fff" fill-opacity="0" stroke="#e6e6e6" stroke-linecap="round" stroke-linejoin="round" stroke-miterlimit="50" xlink:href="#wmejaY"/></g><g><use fill="#fff" fill-opacity="0" stroke="#e6e6e6" stroke-linecap="round" stroke-linejoin="round" stroke-miterlimit="50" xlink:href="#wmejaZ"/></g><g><use fill="#fff" fill-opacity="0" stroke="#e6e6e6" stroke-linecap="round" stroke-linejoin="round" stroke-miterlimit="50" xlink:href="#wmejba"/></g><g><use fill="#fff" fill-opacity="0" stroke="#e6e6e6" stroke-linecap="round" stroke-linejoin="round" stroke-miterlimit="50" xlink:href="#wmejbb"/></g><g><use fill="#fff" fill-opacity="0" stroke="#e6e6e6" stroke-linecap="round" stroke-linejoin="round" stroke-miterlimit="50" xlink:href="#wmejbc"/></g><g><use fill="#fff" fill-opacity="0" stroke="#e6e6e6" stroke-linecap="round" stroke-linejoin="round" stroke-miterlimit="50" xlink:href="#wmejbd"/></g><g><use fill="#fff" fill-opacity="0" stroke="#e6e6e6" stroke-linecap="round" stroke-linejoin="round" stroke-miterlimit="50" xlink:href="#wmejbe"/></g><g><use fill="#fff" fill-opacity="0" stroke="#e6e6e6" stroke-linecap="round" stroke-linejoin="round" stroke-miterlimit="50" xlink:href="#wmejbf"/></g><g><use fill="#fff" fill-opacity="0" stroke="#e6e6e6" stroke-linecap="round" stroke-linejoin="round" stroke-miterlimit="50" xlink:href="#wmejbg"/></g><g><use fill="#fff" fill-opacity="0" stroke="#e6e6e6" stroke-linecap="round" stroke-linejoin="round" stroke-miterlimit="50" xlink:href="#wmejbh"/></g><g><use fill="#fff" fill-opacity="0" stroke="#e6e6e6" stroke-linecap="round" stroke-linejoin="round" stroke-miterlimit="50" xlink:href="#wmejbi"/></g><g/><g><use fill="#fff" fill-opacity="0" stroke="#e6e6e6" stroke-linecap="round" stroke-linejoin="round" stroke-miterlimit="50" xlink:href="#wmejbj"/></g><g><use fill="#fff" fill-opacity="0" stroke="#e6e6e6" stroke-linecap="round" stroke-linejoin="round" stroke-miterlimit="50" xlink:href="#wmejbk"/></g><g><use fill="#fff" fill-opacity="0" stroke="#e6e6e6" stroke-linecap="round" stroke-linejoin="round" stroke-miterlimit="50" xlink:href="#wmejbl"/></g><g><use fill="#fff" fill-opacity="0" stroke="#e6e6e6" stroke-linecap="round" stroke-linejoin="round" stroke-miterlimit="50" xlink:href="#wmejbm"/></g><g><use fill="#fff" fill-opacity="0" stroke="#e6e6e6" stroke-linecap="round" stroke-linejoin="round" stroke-miterlimit="50" xlink:href="#wmejbn"/></g><g><use fill="#fff" fill-opacity="0" stroke="#e6e6e6" stroke-linecap="round" stroke-linejoin="round" stroke-miterlimit="50" xlink:href="#wmejbo"/></g><g><use fill="#fff" fill-opacity="0" stroke="#e6e6e6" stroke-linecap="round" stroke-linejoin="round" stroke-miterlimit="50" xlink:href="#wmejbp"/></g><g><use fill="#fff" fill-opacity="0" stroke="#e6e6e6" stroke-linecap="round" stroke-linejoin="round" stroke-miterlimit="50" xlink:href="#wmejbq"/></g><g><use fill="#fff" fill-opacity="0" stroke="#e6e6e6" stroke-linecap="round" stroke-linejoin="round" stroke-miterlimit="50" xlink:href="#wmejbr"/></g><g><use fill="#fff" fill-opacity="0" stroke="#e6e6e6" stroke-linecap="round" stroke-linejoin="round" stroke-miterlimit="50" xlink:href="#wmejbs"/></g><g><use fill="#fff" fill-opacity="0" stroke="#e6e6e6" stroke-linecap="round" stroke-linejoin="round" stroke-miterlimit="50" xlink:href="#wmejbt"/></g><g><use fill="#fff" fill-opacity="0" stroke="#e6e6e6" stroke-linecap="round" stroke-linejoin="round" stroke-miterlimit="50" xlink:href="#wmejbu"/></g><g><use fill="#fff" fill-opacity="0" stroke="#e6e6e6" stroke-linecap="round" stroke-linejoin="round" stroke-miterlimit="50" xlink:href="#wmejbv"/></g><g><use fill="#fff" fill-opacity="0" stroke="#e6e6e6" stroke-linecap="round" stroke-linejoin="round" stroke-miterlimit="50" xlink:href="#wmejbw"/></g><g><use fill="#fff" fill-opacity="0" stroke="#e6e6e6" stroke-linecap="round" stroke-linejoin="round" stroke-miterlimit="50" xlink:href="#wmejbx"/></g><g><use fill="#fff" fill-opacity="0" stroke="#e6e6e6" stroke-linecap="round" stroke-linejoin="round" stroke-miterlimit="50" xlink:href="#wmejby"/></g><g><use fill="#fff" fill-opacity="0" stroke="#e6e6e6" stroke-linecap="round" stroke-linejoin="round" stroke-miterlimit="50" xlink:href="#wmejbz"/></g><g><use fill="#fff" fill-opacity="0" stroke="#e6e6e6" stroke-linecap="round" stroke-linejoin="round" stroke-miterlimit="50" xlink:href="#wmejbA"/></g><g><use fill="#fff" fill-opacity="0" stroke="#e6e6e6" stroke-linecap="round" stroke-linejoin="round" stroke-miterlimit="50" xlink:href="#wmejbB"/></g><g><use fill="#fff" fill-opacity="0" stroke="#e6e6e6" stroke-linecap="round" stroke-linejoin="round" stroke-miterlimit="50" xlink:href="#wmejbC"/></g><g><use fill="#fff" fill-opacity="0" stroke="#e6e6e6" stroke-linecap="round" stroke-linejoin="round" stroke-miterlimit="50" xlink:href="#wmejbD"/></g><g><use fill="#fff" fill-opacity="0" stroke="#e6e6e6" stroke-linecap="round" stroke-linejoin="round" stroke-miterlimit="50" xlink:href="#wmejbE"/></g><g><use fill="#fff" fill-opacity="0" stroke="#e6e6e6" stroke-linecap="round" stroke-linejoin="round" stroke-miterlimit="50" xlink:href="#wmejbF"/></g><g><use fill="#fff" fill-opacity="0" stroke="#e6e6e6" stroke-linecap="round" stroke-linejoin="round" stroke-miterlimit="50" xlink:href="#wmejbG"/></g><g><use fill="#fff" fill-opacity="0" stroke="#e6e6e6" stroke-linecap="round" stroke-linejoin="round" stroke-miterlimit="50" xlink:href="#wmejbH"/></g><g><use fill="#fff" fill-opacity="0" stroke="#e6e6e6" stroke-linecap="round" stroke-linejoin="round" stroke-miterlimit="50" xlink:href="#wmejbI"/></g><g><use fill="#fff" fill-opacity="0" stroke="#e6e6e6" stroke-linecap="round" stroke-linejoin="round" stroke-miterlimit="50" xlink:href="#wmejbJ"/></g><g><use fill="#fff" fill-opacity="0" stroke="#e6e6e6" stroke-linecap="round" stroke-linejoin="round" stroke-miterlimit="50" xlink:href="#wmejbK"/></g><g><use fill="#fff" fill-opacity="0" stroke="#e6e6e6" stroke-linecap="round" stroke-linejoin="round" stroke-miterlimit="50" xlink:href="#wmejbL"/></g><g><use fill="#fff" fill-opacity="0" stroke="#e6e6e6" stroke-linecap="round" stroke-linejoin="round" stroke-miterlimit="50" xlink:href="#wmejbM"/></g><g><use fill="#fff" fill-opacity="0" stroke="#e6e6e6" stroke-linecap="round" stroke-linejoin="round" stroke-miterlimit="50" xlink:href="#wmejbN"/></g><g><use fill="#fff" fill-opacity="0" stroke="#e6e6e6" stroke-linecap="round" stroke-linejoin="round" stroke-miterlimit="50" xlink:href="#wmejbO"/></g><g><use fill="#fff" fill-opacity="0" stroke="#e6e6e6" stroke-linecap="round" stroke-linejoin="round" stroke-miterlimit="50" xlink:href="#wmejbP"/></g><g><use fill="#fff" fill-opacity="0" stroke="#e6e6e6" stroke-linecap="round" stroke-linejoin="round" stroke-miterlimit="50" xlink:href="#wmejbQ"/></g><g><use fill="#fff" fill-opacity="0" stroke="#e6e6e6" stroke-linecap="round" stroke-linejoin="round" stroke-miterlimit="50" xlink:href="#wmejbR"/></g><g><use fill="#fff" fill-opacity="0" stroke="#e6e6e6" stroke-linecap="round" stroke-linejoin="round" stroke-miterlimit="50" xlink:href="#wmejbS"/></g><g><use fill="#fff" fill-opacity="0" stroke="#e6e6e6" stroke-linecap="round" stroke-linejoin="round" stroke-miterlimit="50" xlink:href="#wmejbT"/></g><g><use fill="#fff" fill-opacity="0" stroke="#e6e6e6" stroke-linecap="round" stroke-linejoin="round" stroke-miterlimit="50" xlink:href="#wmejbU"/></g><g><use fill="#fff" fill-opacity="0" stroke="#e6e6e6" stroke-linecap="round" stroke-linejoin="round" stroke-miterlimit="50" xlink:href="#wmejbV"/></g><g><use fill="#fff" fill-opacity="0" stroke="#e6e6e6" stroke-linecap="round" stroke-linejoin="round" stroke-miterlimit="50" xlink:href="#wmejbW"/></g><g><use fill="#fff" fill-opacity="0" stroke="#e6e6e6" stroke-linecap="round" stroke-linejoin="round" stroke-miterlimit="50" xlink:href="#wmejbX"/></g><g><use fill="#fff" fill-opacity="0" stroke="#e6e6e6" stroke-linecap="round" stroke-linejoin="round" stroke-miterlimit="50" xlink:href="#wmejbY"/></g><g><use fill="#fff" fill-opacity="0" stroke="#e6e6e6" stroke-linecap="round" stroke-linejoin="round" stroke-miterlimit="50" xlink:href="#wmejbZ"/></g><g><use fill="#fff" fill-opacity="0" stroke="#e6e6e6" stroke-linecap="round" stroke-linejoin="round" stroke-miterlimit="50" xlink:href="#wmejca"/></g><g><use fill="#fff" fill-opacity="0" stroke="#e6e6e6" stroke-linecap="round" stroke-linejoin="round" stroke-miterlimit="50" xlink:href="#wmejcb"/></g><g><use fill="#fff" fill-opacity="0" stroke="#e6e6e6" stroke-linecap="round" stroke-linejoin="round" stroke-miterlimit="50" xlink:href="#wmejcc"/></g><g/><g><use fill="#fff" fill-opacity="0" stroke="#e6e6e6" stroke-linecap="round" stroke-linejoin="round" stroke-miterlimit="50" xlink:href="#wmejcd"/></g><g><use fill="#fff" fill-opacity="0" stroke="#e6e6e6" stroke-linecap="round" stroke-linejoin="round" stroke-miterlimit="50" xlink:href="#wmejce"/></g><g><use fill="#fff" fill-opacity="0" stroke="#e6e6e6" stroke-linecap="round" stroke-linejoin="round" stroke-miterlimit="50" xlink:href="#wmejcf"/></g><g><use fill="#fff" fill-opacity="0" stroke="#e6e6e6" stroke-linecap="round" stroke-linejoin="round" stroke-miterlimit="50" xlink:href="#wmejcg"/></g><g><use fill="#fff" fill-opacity="0" stroke="#e6e6e6" stroke-linecap="round" stroke-linejoin="round" stroke-miterlimit="50" xlink:href="#wmejch"/></g><g><use fill="#fff" fill-opacity="0" stroke="#e6e6e6" stroke-linecap="round" stroke-linejoin="round" stroke-miterlimit="50" xlink:href="#wmejci"/></g><g><use fill="#fff" fill-opacity="0" stroke="#e6e6e6" stroke-linecap="round" stroke-linejoin="round" stroke-miterlimit="50" xlink:href="#wmejcj"/></g><g><use fill="#fff" fill-opacity="0" stroke="#e6e6e6" stroke-linecap="round" stroke-linejoin="round" stroke-miterlimit="50" xlink:href="#wmejck"/></g><g><use fill="#fff" fill-opacity="0" stroke="#e6e6e6" stroke-linecap="round" stroke-linejoin="round" stroke-miterlimit="50" xlink:href="#wmejcl"/></g><g><use fill="#fff" fill-opacity="0" stroke="#e6e6e6" stroke-linecap="round" stroke-linejoin="round" stroke-miterlimit="50" xlink:href="#wmejcm"/></g><g><use fill="#fff" fill-opacity="0" stroke="#e6e6e6" stroke-linecap="round" stroke-linejoin="round" stroke-miterlimit="50" xlink:href="#wmejcn"/></g><g><use fill="#fff" fill-opacity="0" stroke="#e6e6e6" stroke-linecap="round" stroke-linejoin="round" stroke-miterlimit="50" xlink:href="#wmejco"/></g><g><use fill="#fff" fill-opacity="0" stroke="#e6e6e6" stroke-linecap="round" stroke-linejoin="round" stroke-miterlimit="50" xlink:href="#wmejcp"/></g><g><use fill="#fff" fill-opacity="0" stroke="#e6e6e6" stroke-linecap="round" stroke-linejoin="round" stroke-miterlimit="50" xlink:href="#wmejcq"/></g><g><use fill="#fff" fill-opacity="0" stroke="#e6e6e6" stroke-linecap="round" stroke-linejoin="round" stroke-miterlimit="50" xlink:href="#wmejcr"/></g><g><use fill="#fff" fill-opacity="0" stroke="#e6e6e6" stroke-linecap="round" stroke-linejoin="round" stroke-miterlimit="50" xlink:href="#wmejcs"/></g><g><use fill="#fff" fill-opacity="0" stroke="#e6e6e6" stroke-linecap="round" stroke-linejoin="round" stroke-miterlimit="50" xlink:href="#wmejct"/></g><g><use fill="#fff" fill-opacity="0" stroke="#e6e6e6" stroke-linecap="round" stroke-linejoin="round" stroke-miterlimit="50" xlink:href="#wmejcu"/></g><g><use fill="#fff" fill-opacity="0" stroke="#e6e6e6" stroke-linecap="round" stroke-linejoin="round" stroke-miterlimit="50" xlink:href="#wmejcv"/></g><g><use fill="#fff" fill-opacity="0" stroke="#e6e6e6" stroke-linecap="round" stroke-linejoin="round" stroke-miterlimit="50" xlink:href="#wmejcw"/></g><g><use fill="#fff" fill-opacity="0" stroke="#e6e6e6" stroke-linecap="round" stroke-linejoin="round" stroke-miterlimit="50" xlink:href="#wmejcx"/></g><g><use fill="#fff" fill-opacity="0" stroke="#e6e6e6" stroke-linecap="round" stroke-linejoin="round" stroke-miterlimit="50" xlink:href="#wmejcy"/></g><g><use fill="#fff" fill-opacity="0" stroke="#e6e6e6" stroke-linecap="round" stroke-linejoin="round" stroke-miterlimit="50" xlink:href="#wmejcz"/></g><g><use fill="#fff" fill-opacity="0" stroke="#e6e6e6" stroke-linecap="round" stroke-linejoin="round" stroke-miterlimit="50" xlink:href="#wmejcA"/></g><g><use fill="#fff" fill-opacity="0" stroke="#e6e6e6" stroke-linecap="round" stroke-linejoin="round" stroke-miterlimit="50" xlink:href="#wmejcB"/></g><g><use fill="#fff" fill-opacity="0" stroke="#e6e6e6" stroke-linecap="round" stroke-linejoin="round" stroke-miterlimit="50" xlink:href="#wmejcC"/></g><g><use fill="#fff" fill-opacity="0" stroke="#e6e6e6" stroke-linecap="round" stroke-linejoin="round" stroke-miterlimit="50" xlink:href="#wmejcD"/></g><g><use fill="#fff" fill-opacity="0" stroke="#e6e6e6" stroke-linecap="round" stroke-linejoin="round" stroke-miterlimit="50" xlink:href="#wmejcE"/></g><g><use fill="#fff" fill-opacity="0" stroke="#e6e6e6" stroke-linecap="round" stroke-linejoin="round" stroke-miterlimit="50" xlink:href="#wmejcF"/></g><g><use fill="#fff" fill-opacity="0" stroke="#e6e6e6" stroke-linecap="round" stroke-linejoin="round" stroke-miterlimit="50" xlink:href="#wmejcG"/></g><g><use fill="#fff" fill-opacity="0" stroke="#e6e6e6" stroke-linecap="round" stroke-linejoin="round" stroke-miterlimit="50" xlink:href="#wmejcH"/></g><g><use fill="#fff" fill-opacity="0" stroke="#e6e6e6" stroke-linecap="round" stroke-linejoin="round" stroke-miterlimit="50" xlink:href="#wmejcI"/></g><g><use fill="#fff" fill-opacity="0" stroke="#e6e6e6" stroke-linecap="round" stroke-linejoin="round" stroke-miterlimit="50" xlink:href="#wmejcJ"/></g><g><use fill="#fff" fill-opacity="0" stroke="#e6e6e6" stroke-linecap="round" stroke-linejoin="round" stroke-miterlimit="50" xlink:href="#wmejcK"/></g><g><use fill="#fff" fill-opacity="0" stroke="#e6e6e6" stroke-linecap="round" stroke-linejoin="round" stroke-miterlimit="50" xlink:href="#wmejcL"/></g><g><use fill="#fff" fill-opacity="0" stroke="#e6e6e6" stroke-linecap="round" stroke-linejoin="round" stroke-miterlimit="50" xlink:href="#wmejcM"/></g><g><use fill="#fff" fill-opacity="0" stroke="#e6e6e6" stroke-linecap="round" stroke-linejoin="round" stroke-miterlimit="50" xlink:href="#wmejcN"/></g><g><use fill="#fff" fill-opacity="0" stroke="#e6e6e6" stroke-linecap="round" stroke-linejoin="round" stroke-miterlimit="50" xlink:href="#wmejcO"/></g><g><use fill="#fff" fill-opacity="0" stroke="#e6e6e6" stroke-linecap="round" stroke-linejoin="round" stroke-miterlimit="50" xlink:href="#wmejcP"/></g><g><use fill="#fff" fill-opacity="0" stroke="#e6e6e6" stroke-linecap="round" stroke-linejoin="round" stroke-miterlimit="50" xlink:href="#wmejcQ"/></g><g><use fill="#fff" fill-opacity="0" stroke="#e6e6e6" stroke-linecap="round" stroke-linejoin="round" stroke-miterlimit="50" xlink:href="#wmejcR"/></g><g><use fill="#fff" fill-opacity="0" stroke="#e6e6e6" stroke-linecap="round" stroke-linejoin="round" stroke-miterlimit="50" xlink:href="#wmejcS"/></g><g><use fill="#fff" fill-opacity="0" stroke="#e6e6e6" stroke-linecap="round" stroke-linejoin="round" stroke-miterlimit="50" xlink:href="#wmejcT"/></g><g><use fill="#fff" fill-opacity="0" stroke="#e6e6e6" stroke-linecap="round" stroke-linejoin="round" stroke-miterlimit="50" xlink:href="#wmejcU"/></g><g><use fill="#fff" fill-opacity="0" stroke="#e6e6e6" stroke-linecap="round" stroke-linejoin="round" stroke-miterlimit="50" xlink:href="#wmejcV"/></g><g><use fill="#fff" fill-opacity="0" stroke="#e6e6e6" stroke-linecap="round" stroke-linejoin="round" stroke-miterlimit="50" xlink:href="#wmejcW"/></g><g><use fill="#fff" fill-opacity="0" stroke="#e6e6e6" stroke-linecap="round" stroke-linejoin="round" stroke-miterlimit="50" xlink:href="#wmejcX"/></g><g><use fill="#fff" fill-opacity="0" stroke="#e6e6e6" stroke-linecap="round" stroke-linejoin="round" stroke-miterlimit="50" xlink:href="#wmejcY"/></g><g><use fill="#fff" fill-opacity="0" stroke="#e6e6e6" stroke-linecap="round" stroke-linejoin="round" stroke-miterlimit="50" xlink:href="#wmejcZ"/></g><g><use fill="#fff" fill-opacity="0" stroke="#e6e6e6" stroke-linecap="round" stroke-linejoin="round" stroke-miterlimit="50" xlink:href="#wmejda"/></g><g><use fill="#fff" fill-opacity="0" stroke="#e6e6e6" stroke-linecap="round" stroke-linejoin="round" stroke-miterlimit="50" xlink:href="#wmejdb"/></g><g><use fill="#fff" fill-opacity="0" stroke="#e6e6e6" stroke-linecap="round" stroke-linejoin="round" stroke-miterlimit="50" xlink:href="#wmejdc"/></g><g><use fill="#fff" fill-opacity="0" stroke="#e6e6e6" stroke-linecap="round" stroke-linejoin="round" stroke-miterlimit="50" xlink:href="#wmejdd"/></g><g><use fill="#fff" fill-opacity="0" stroke="#e6e6e6" stroke-linecap="round" stroke-linejoin="round" stroke-miterlimit="50" xlink:href="#wmejde"/></g><g><use fill="#fff" fill-opacity="0" stroke="#e6e6e6" stroke-linecap="round" stroke-linejoin="round" stroke-miterlimit="50" xlink:href="#wmejdf"/></g><g><use fill="#fff" fill-opacity="0" stroke="#e6e6e6" stroke-linecap="round" stroke-linejoin="round" stroke-miterlimit="50" xlink:href="#wmejdg"/></g><g><use fill="#fff" fill-opacity="0" stroke="#e6e6e6" stroke-linecap="round" stroke-linejoin="round" stroke-miterlimit="50" xlink:href="#wmejdh"/></g><g><use fill="#fff" fill-opacity="0" stroke="#e6e6e6" stroke-linecap="round" stroke-linejoin="round" stroke-miterlimit="50" xlink:href="#wmejdi"/></g><g><use fill="#fff" fill-opacity="0" stroke="#e6e6e6" stroke-linecap="round" stroke-linejoin="round" stroke-miterlimit="50" xlink:href="#wmejdj"/></g><g><use fill="#fff" fill-opacity="0" stroke="#e6e6e6" stroke-linecap="round" stroke-linejoin="round" stroke-miterlimit="50" xlink:href="#wmejdk"/></g><g><use fill="#fff" fill-opacity="0" stroke="#e6e6e6" stroke-linecap="round" stroke-linejoin="round" stroke-miterlimit="50" xlink:href="#wmejdl"/></g><g><use fill="#fff" fill-opacity="0" stroke="#e6e6e6" stroke-linecap="round" stroke-linejoin="round" stroke-miterlimit="50" xlink:href="#wmejdm"/></g><g><use fill="#fff" fill-opacity="0" stroke="#e6e6e6" stroke-linecap="round" stroke-linejoin="round" stroke-miterlimit="50" xlink:href="#wmejdn"/></g><g><use fill="#fff" fill-opacity="0" stroke="#e6e6e6" stroke-linecap="round" stroke-linejoin="round" stroke-miterlimit="50" xlink:href="#wmejdo"/></g><g><use fill="#fff" fill-opacity="0" stroke="#e6e6e6" stroke-linecap="round" stroke-linejoin="round" stroke-miterlimit="50" xlink:href="#wmejdp"/></g><g><use fill="#fff" fill-opacity="0" stroke="#e6e6e6" stroke-linecap="round" stroke-linejoin="round" stroke-miterlimit="50" xlink:href="#wmejdq"/></g><g><use fill="#fff" fill-opacity="0" stroke="#e6e6e6" stroke-linecap="round" stroke-linejoin="round" stroke-miterlimit="50" xlink:href="#wmejdr"/></g><g><use fill="#fff" fill-opacity="0" stroke="#e6e6e6" stroke-linecap="round" stroke-linejoin="round" stroke-miterlimit="50" xlink:href="#wmejds"/></g><g><use fill="#fff" fill-opacity="0" stroke="#e6e6e6" stroke-linecap="round" stroke-linejoin="round" stroke-miterlimit="50" xlink:href="#wmejdt"/></g><g><use fill="#fff" fill-opacity="0" stroke="#e6e6e6" stroke-linecap="round" stroke-linejoin="round" stroke-miterlimit="50" xlink:href="#wmejdu"/></g><g><use fill="#fff" fill-opacity="0" stroke="#e6e6e6" stroke-linecap="round" stroke-linejoin="round" stroke-miterlimit="50" xlink:href="#wmejdv"/></g><g><use fill="#fff" fill-opacity="0" stroke="#e6e6e6" stroke-linecap="round" stroke-linejoin="round" stroke-miterlimit="50" xlink:href="#wmejdw"/></g><g><use fill="#fff" fill-opacity="0" stroke="#e6e6e6" stroke-linecap="round" stroke-linejoin="round" stroke-miterlimit="50" xlink:href="#wmejdx"/></g><g><use fill="#fff" fill-opacity="0" stroke="#e6e6e6" stroke-linecap="round" stroke-linejoin="round" stroke-miterlimit="50" xlink:href="#wmejdy"/></g><g><use fill="#fff" fill-opacity="0" stroke="#e6e6e6" stroke-linecap="round" stroke-linejoin="round" stroke-miterlimit="50" xlink:href="#wmejdz"/></g><g><use fill="#fff" fill-opacity="0" stroke="#e6e6e6" stroke-linecap="round" stroke-linejoin="round" stroke-miterlimit="50" xlink:href="#wmejdA"/></g><g><use fill="#fff" fill-opacity="0" stroke="#e6e6e6" stroke-linecap="round" stroke-linejoin="round" stroke-miterlimit="50" xlink:href="#wmejdB"/></g><g><use fill="#fff" fill-opacity="0" stroke="#e6e6e6" stroke-linecap="round" stroke-linejoin="round" stroke-miterlimit="50" xlink:href="#wmejdC"/></g><g><use fill="#fff" fill-opacity="0" stroke="#e6e6e6" stroke-linecap="round" stroke-linejoin="round" stroke-miterlimit="50" xlink:href="#wmejdD"/></g><g><use fill="#fff" fill-opacity="0" stroke="#e6e6e6" stroke-linecap="round" stroke-linejoin="round" stroke-miterlimit="50" xlink:href="#wmejdE"/></g><g><use fill="#fff" fill-opacity="0" stroke="#e6e6e6" stroke-linecap="round" stroke-linejoin="round" stroke-miterlimit="50" xlink:href="#wmejdF"/></g><g><use fill="#fff" fill-opacity="0" stroke="#e6e6e6" stroke-linecap="round" stroke-linejoin="round" stroke-miterlimit="50" xlink:href="#wmejdG"/></g><g><use fill="#fff" fill-opacity="0" stroke="#e6e6e6" stroke-linecap="round" stroke-linejoin="round" stroke-miterlimit="50" xlink:href="#wmejdH"/></g><g><use fill="#fff" fill-opacity="0" stroke="#e6e6e6" stroke-linecap="round" stroke-linejoin="round" stroke-miterlimit="50" xlink:href="#wmejdI"/></g><g><use fill="#fff" fill-opacity="0" stroke="#e6e6e6" stroke-linecap="round" stroke-linejoin="round" stroke-miterlimit="50" xlink:href="#wmejdJ"/></g><g><use fill="#fff" fill-opacity="0" stroke="#e6e6e6" stroke-linecap="round" stroke-linejoin="round" stroke-miterlimit="50" xlink:href="#wmejdK"/></g><g><use fill="#fff" fill-opacity="0" stroke="#e6e6e6" stroke-linecap="round" stroke-linejoin="round" stroke-miterlimit="50" xlink:href="#wmejdL"/></g><g><use fill="#fff" fill-opacity="0" stroke="#e6e6e6" stroke-linecap="round" stroke-linejoin="round" stroke-miterlimit="50" xlink:href="#wmejdM"/></g><g><use fill="#fff" fill-opacity="0" stroke="#e6e6e6" stroke-linecap="round" stroke-linejoin="round" stroke-miterlimit="50" xlink:href="#wmejdN"/></g><g><use fill="#fff" fill-opacity="0" stroke="#e6e6e6" stroke-linecap="round" stroke-linejoin="round" stroke-miterlimit="50" xlink:href="#wmejdO"/></g><g><use fill="#fff" fill-opacity="0" stroke="#e6e6e6" stroke-linecap="round" stroke-linejoin="round" stroke-miterlimit="50" xlink:href="#wmejdP"/></g><g><use fill="#fff" fill-opacity="0" stroke="#e6e6e6" stroke-linecap="round" stroke-linejoin="round" stroke-miterlimit="50" xlink:href="#wmejdQ"/></g><g><use fill="#fff" fill-opacity="0" stroke="#e6e6e6" stroke-linecap="round" stroke-linejoin="round" stroke-miterlimit="50" xlink:href="#wmejdR"/></g><g><use fill="#fff" fill-opacity="0" stroke="#e6e6e6" stroke-linecap="round" stroke-linejoin="round" stroke-miterlimit="50" xlink:href="#wmejdS"/></g><g><use fill="#fff" fill-opacity="0" stroke="#e6e6e6" stroke-linecap="round" stroke-linejoin="round" stroke-miterlimit="50" xlink:href="#wmejdT"/></g><g><use fill="#fff" fill-opacity="0" stroke="#e6e6e6" stroke-linecap="round" stroke-linejoin="round" stroke-miterlimit="50" xlink:href="#wmejdU"/></g><g><use fill="#fff" fill-opacity="0" stroke="#e6e6e6" stroke-linecap="round" stroke-linejoin="round" stroke-miterlimit="50" xlink:href="#wmejdV"/></g><g><use fill="#fff" fill-opacity="0" stroke="#e6e6e6" stroke-linecap="round" stroke-linejoin="round" stroke-miterlimit="50" xlink:href="#wmejdW"/></g><g><use fill="#fff" fill-opacity="0" stroke="#e6e6e6" stroke-linecap="round" stroke-linejoin="round" stroke-miterlimit="50" xlink:href="#wmejdX"/></g><g><use fill="#fff" fill-opacity="0" stroke="#e6e6e6" stroke-linecap="round" stroke-linejoin="round" stroke-miterlimit="50" xlink:href="#wmejdY"/></g><g><use fill="#fff" fill-opacity="0" stroke="#e6e6e6" stroke-linecap="round" stroke-linejoin="round" stroke-miterlimit="50" xlink:href="#wmejdZ"/></g><g><use fill="#fff" fill-opacity="0" stroke="#e6e6e6" stroke-linecap="round" stroke-linejoin="round" stroke-miterlimit="50" xlink:href="#wmejea"/></g><g><use fill="#fff" fill-opacity="0" stroke="#e6e6e6" stroke-linecap="round" stroke-linejoin="round" stroke-miterlimit="50" xlink:href="#wmejeb"/></g><g><use fill="#fff" fill-opacity="0" stroke="#e6e6e6" stroke-linecap="round" stroke-linejoin="round" stroke-miterlimit="50" xlink:href="#wmejec"/></g><g><use fill="#fff" fill-opacity="0" stroke="#e6e6e6" stroke-linecap="round" stroke-linejoin="round" stroke-miterlimit="50" xlink:href="#wmejed"/></g><g><use fill="#fff" fill-opacity="0" stroke="#e6e6e6" stroke-linecap="round" stroke-linejoin="round" stroke-miterlimit="50" xlink:href="#wmejee"/></g><g><use fill="#fff" fill-opacity="0" stroke="#e6e6e6" stroke-linecap="round" stroke-linejoin="round" stroke-miterlimit="50" xlink:href="#wmejef"/></g><g><use fill="#fff" fill-opacity="0" stroke="#e6e6e6" stroke-linecap="round" stroke-linejoin="round" stroke-miterlimit="50" xlink:href="#wmejeg"/></g><g><use fill="#fff" fill-opacity="0" stroke="#e6e6e6" stroke-linecap="round" stroke-linejoin="round" stroke-miterlimit="50" xlink:href="#wmejeh"/></g><g><use fill="#fff" fill-opacity="0" stroke="#e6e6e6" stroke-linecap="round" stroke-linejoin="round" stroke-miterlimit="50" xlink:href="#wmejei"/></g></g></g></svg>