<svg xmlns="http://www.w3.org/2000/svg" xmlns:xlink="http://www.w3.org/1999/xlink" width="63" height="68" viewBox="0 0 63 68"><defs><path id="2pwca" d="M526 4393h-34v-59c0-1.1.9-2 2-2h30a2 2 0 0 1 1.82 1.17"/><path id="2pwcb" d="M495 4336a1 1 0 0 1 1-1h26a1 1 0 0 1 1 1v57h-28z"/><path id="2pwcc" d="M523.92 4334.21l19-2.2a.95.95 0 0 1 1.07.96V4395l-21-2.44v-57.23c0-.56.42-1.06.93-1.12z"/><path id="2pwcd" d="M523 4393h-38"/><path id="2pwce" d="M538 4361.03c1.14 0 2.06 1.33 2.06 2.97 0 1.64-.92 2.97-2.06 2.97-1.14 0-2.06-1.33-2.06-2.97 0-1.64.92-2.97 2.06-2.97z"/><path id="2pwcf" d="M495.9 4375h16.2"/><path id="2pwcg" d="M510 4375v14"/><path id="2pwch" d="M509.12 4386h-13.24"/><path id="2pwci" d="M522 4382h-9"/><path id="2pwcj" d="M507 4372v-30h15"/><path id="2pwck" d="M511 4343v29"/><path id="2pwcl" d="M515 4346v34"/><path id="2pwcm" d="M519 4343v35"/></defs><g><g transform="translate(-483 -4330)"><g><use fill="#fff" fill-opacity="0" stroke="#05a5f9" stroke-linecap="round" stroke-linejoin="round" stroke-miterlimit="50" stroke-width="2" xlink:href="#2pwca"/></g><g><use fill="#fff" fill-opacity="0" stroke="#05a5f9" stroke-linecap="round" stroke-linejoin="round" stroke-miterlimit="50" stroke-width="2" xlink:href="#2pwcb"/></g><g><use fill="#fff" fill-opacity="0" stroke="#05a5f9" stroke-linecap="round" stroke-linejoin="round" stroke-miterlimit="50" stroke-width="2" xlink:href="#2pwcc"/></g><g><use fill="#fff" fill-opacity="0" stroke="#05a5f9" stroke-linecap="round" stroke-linejoin="round" stroke-miterlimit="50" stroke-width="2" xlink:href="#2pwcd"/></g><g><use fill="#fff" fill-opacity="0" stroke="#05a5f9" stroke-linecap="round" stroke-linejoin="round" stroke-miterlimit="50" stroke-width="2" xlink:href="#2pwce"/></g><g><use fill="#fff" fill-opacity="0" stroke="#05a5f9" stroke-linecap="round" stroke-linejoin="round" stroke-miterlimit="50" stroke-width="2" xlink:href="#2pwcf"/></g><g><use fill="#fff" fill-opacity="0" stroke="#05a5f9" stroke-linecap="round" stroke-linejoin="round" stroke-miterlimit="50" stroke-width="2" xlink:href="#2pwcg"/></g><g><use fill="#fff" fill-opacity="0" stroke="#05a5f9" stroke-linecap="round" stroke-linejoin="round" stroke-miterlimit="50" stroke-width="2" xlink:href="#2pwch"/></g><g><use fill="#fff" fill-opacity="0" stroke="#05a5f9" stroke-linecap="round" stroke-linejoin="round" stroke-miterlimit="50" stroke-width="2" xlink:href="#2pwci"/></g><g><use fill="#fff" fill-opacity="0" stroke="#05a5f9" stroke-linecap="round" stroke-linejoin="round" stroke-miterlimit="50" stroke-width="2" xlink:href="#2pwcj"/></g><g><use fill="#fff" fill-opacity="0" stroke="#05a5f9" stroke-linecap="round" stroke-linejoin="round" stroke-miterlimit="50" stroke-width="2" xlink:href="#2pwck"/></g><g><use fill="#fff" fill-opacity="0" stroke="#05a5f9" stroke-linecap="round" stroke-linejoin="round" stroke-miterlimit="50" stroke-width="2" xlink:href="#2pwcl"/></g><g><use fill="#fff" fill-opacity="0" stroke="#05a5f9" stroke-linecap="round" stroke-linejoin="round" stroke-miterlimit="50" stroke-width="2" xlink:href="#2pwcm"/></g></g></g></svg>