<svg xmlns="http://www.w3.org/2000/svg" xmlns:xlink="http://www.w3.org/1999/xlink" width="66" height="66" viewBox="0 0 66 66"><defs><path id="ryo6a" d="M837 4145a31 31 0 1 1 0 62 31 31 0 0 1 0-62z"/><path id="ryo6b" d="M836.97 4170.91l7.3-12.86a1.99 1.99 0 0 1 2.75-.75c.96.57 1.28 1.81.73 2.79l-7.33 12.9"/><path id="ryo6c" d="M841 4173.23l20.39-5.2c1.1-.27 2.22.35 2.51 1.4a1.95 1.95 0 0 1-1.45 2.39l-20.43 5.2"/><path id="ryo6d" d="M837 4203v-5"/><path id="ryo6e" d="M837 4154v-5"/><path id="ryo6f" d="M810 4176h5"/><path id="ryo6g" d="M859 4176h5"/><path id="ryo6h" d="M837 4172.12a3.88 3.88 0 1 1 0 7.76 3.88 3.88 0 0 1 0-7.76z"/></defs><g><g transform="translate(-804 -4143)"><g><use fill="#fff" fill-opacity="0" stroke="#05a5f9" stroke-linecap="round" stroke-linejoin="round" stroke-miterlimit="50" stroke-width="2" xlink:href="#ryo6a"/></g><g><use fill="#fff" fill-opacity="0" stroke="#05a5f9" stroke-linecap="round" stroke-linejoin="round" stroke-miterlimit="50" stroke-width="2" xlink:href="#ryo6b"/></g><g><use fill="#fff" fill-opacity="0" stroke="#05a5f9" stroke-linecap="round" stroke-linejoin="round" stroke-miterlimit="50" stroke-width="2" xlink:href="#ryo6c"/></g><g><use fill="#fff" fill-opacity="0" stroke="#05a5f9" stroke-linecap="round" stroke-linejoin="round" stroke-miterlimit="50" stroke-width="2" xlink:href="#ryo6d"/></g><g><use fill="#fff" fill-opacity="0" stroke="#05a5f9" stroke-linecap="round" stroke-linejoin="round" stroke-miterlimit="50" stroke-width="2" xlink:href="#ryo6e"/></g><g><use fill="#fff" fill-opacity="0" stroke="#05a5f9" stroke-linecap="round" stroke-linejoin="round" stroke-miterlimit="50" stroke-width="2" xlink:href="#ryo6f"/></g><g><use fill="#fff" fill-opacity="0" stroke="#05a5f9" stroke-linecap="round" stroke-linejoin="round" stroke-miterlimit="50" stroke-width="2" xlink:href="#ryo6g"/></g><g><use fill="#fff" fill-opacity="0" stroke="#05a5f9" stroke-linecap="round" stroke-linejoin="round" stroke-miterlimit="50" stroke-width="2" xlink:href="#ryo6h"/></g></g></g></svg>