<svg xmlns="http://www.w3.org/2000/svg" xmlns:xlink="http://www.w3.org/1999/xlink" width="68" height="56" viewBox="0 0 68 56"><defs><path id="xn7ia" d="M164 4344c0-1.1.9-2 2-2h60a2 2 0 0 1 2 2v34a2 2 0 0 1-2 2h-60a2 2 0 0 1-2-2z"/><path id="xn7ib" d="M167 4346a1 1 0 0 1 1-1h56a1 1 0 0 1 1 1v26a1 1 0 0 1-1 1h-56a1 1 0 0 1-1-1z"/><path id="xn7ic" d="M203 4361h-5v5a1 1 0 0 1-1 1h-2a1 1 0 0 1-1-1v-5h-5a1 1 0 0 1-1-1v-2a1 1 0 0 1 1-1h5v-5a1 1 0 0 1 1-1h2a1 1 0 0 1 1 1v5h5a1 1 0 0 1 1 1v2a1 1 0 0 1-1 1z"/><path id="xn7id" d="M190 4380.16h12v9.84h7a1 1 0 0 1 1 1v2a1 1 0 0 1-1 1h-26a1 1 0 0 1-1-1v-2a1 1 0 0 1 1-1h7z"/></defs><g><g transform="translate(-162 -4340)"><g><use fill="#fff" fill-opacity="0" stroke="#05a5f9" stroke-linecap="round" stroke-linejoin="round" stroke-miterlimit="50" stroke-width="2" xlink:href="#xn7ia"/></g><g><use fill="#fff" fill-opacity="0" stroke="#05a5f9" stroke-linecap="round" stroke-linejoin="round" stroke-miterlimit="50" stroke-width="2" xlink:href="#xn7ib"/></g><g><use fill="#fff" fill-opacity="0" stroke="#05a5f9" stroke-linecap="round" stroke-linejoin="round" stroke-miterlimit="50" stroke-width="2" xlink:href="#xn7ic"/></g><g><use fill="#fff" fill-opacity="0" stroke="#05a5f9" stroke-linecap="round" stroke-linejoin="round" stroke-miterlimit="50" stroke-width="2" xlink:href="#xn7id"/></g></g></g></svg>