<svg xmlns="http://www.w3.org/2000/svg" xmlns:xlink="http://www.w3.org/1999/xlink" width="193" height="52" viewBox="0 0 193 52"><defs><path id="8d8qa" d="M233 47.98h-18.14a1.2 1.2 0 0 1-1.19-1.18V31.1c0-.65.55-1.16 1.19-1.16h2.37c.65 0 1.2.51 1.2 1.18v13.3h8.46V31.1c0-.65.54-1.16 1.18-1.16h2.38c.64 0 1.19.51 1.19 1.18v13.3H233c.65 0 1.2.52 1.2 1.2v1.18a1.2 1.2 0 0 1-1.2 1.18zm-19.65 10.26a1.7 1.7 0 0 1-.6.65c-.13.1-.3.17-.46.22-.17.05-.36.08-.57.08-.2 0-.4-.03-.57-.08a1.52 1.52 0 0 1-.46-.22 1.7 1.7 0 0 1-.61-.65l-.1-.22a1.46 1.46 0 0 1-.08-.28 18.78 18.78 0 0 1 0-2.44 1.83 1.83 0 0 1 1.81-1.44 1.79 1.79 0 0 1 1.83 1.44c.03.2.04.61.04 1.22 0 .6-.01 1-.04 1.22-.04.21-.1.38-.19.5zm-.57-2.37c0-.17-.02-.3-.05-.4a.84.84 0 0 0-.2-.44.99.99 0 0 0-.32-.27c-.15-.07-.3-.1-.5-.1a.94.94 0 0 0-.81.38c-.09.1-.16.25-.2.43a12.02 12.02 0 0 0 0 2.1c.04.19.11.33.2.44.09.11.2.2.34.26.13.08.29.12.48.12s.35-.04.49-.12a.86.86 0 0 0 .31-.26c.11-.11.18-.26.21-.44a16.34 16.34 0 0 0 .04-1.7zm-2.11-22.37H199.7v3.66h9.45c.64 0 1.18.54 1.18 1.18v1.19a1.2 1.2 0 0 1-1.18 1.18h-9.45v3.71h10.94c.65 0 1.17.52 1.17 1.17v1.2c0 .65-.52 1.2-1.2 1.2h-14.47c-.67 0-1.19-.55-1.19-1.22V31.1c0-.65.54-1.16 1.19-1.16h14.53c.65 0 1.19.51 1.19 1.18v1.19c0 .67-.54 1.19-1.19 1.19zm-15.06 20.36a1.79 1.79 0 0 1 1.82 1.44c.03.2.05.61.05 1.22 0 .6-.02 1-.05 1.22a1.7 1.7 0 0 1-.78 1.15c-.14.1-.3.17-.46.22-.17.05-.37.08-.58.08-.2 0-.39-.03-.56-.08a1.52 1.52 0 0 1-.46-.22 1.7 1.7 0 0 1-.61-.65l-.1-.22a1.46 1.46 0 0 1-.08-.28 18.78 18.78 0 0 1 0-2.44 1.83 1.83 0 0 1 1.81-1.44zm-1 1.6a12.17 12.17 0 0 0 0 2.1c.03.2.1.34.2.45.07.11.18.2.33.26.12.08.28.12.47.12.2 0 .36-.04.5-.12a.86.86 0 0 0 .31-.26c.1-.11.18-.26.21-.44a16.34 16.34 0 0 0 0-2.1.84.84 0 0 0-.2-.44.99.99 0 0 0-.32-.27c-.15-.07-.31-.1-.5-.1a.94.94 0 0 0-.81.38c-.1.1-.16.25-.2.43zm-3.73-7.48h-2.35a1.2 1.2 0 0 1-1.18-1.18V33.5h-9.22v13.3a1.2 1.2 0 0 1-1.18 1.18h-2.38c-.67 0-1.19-.54-1.19-1.18V31.12c0-.67.52-1.18 1.17-1.18h16.36c.64 0 1.19.51 1.19 1.18V46.8a1.2 1.2 0 0 1-1.22 1.18zm-16.66 6.32a2 2 0 0 1 .6 1.11H174c-.07-.21-.18-.4-.35-.54-.18-.14-.4-.21-.65-.22-.19.01-.34.05-.48.1a.94.94 0 0 0-.33.28c-.1.11-.17.26-.2.44a11.96 11.96 0 0 0 0 2.1c.03.19.1.33.2.44.08.11.2.2.33.26.13.08.29.12.48.12.44 0 .78-.24 1-.71h.84c-.12.48-.34.86-.66 1.12-.33.26-.73.39-1.18.39-.2 0-.4-.03-.57-.08a1.52 1.52 0 0 1-.46-.22 1.7 1.7 0 0 1-.6-.65l-.11-.22a1.46 1.46 0 0 1-.07-.28 18.96 18.96 0 0 1 0-2.44c.04-.21.1-.38.17-.5a1.83 1.83 0 0 1 1.64-.94c.5 0 .91.14 1.23.44zm-12.85-9.77h2.5a3.2 3.2 0 0 0 3.1-1.99c.49-1.05 1.08-1.39 1.8-1.39h1.5c.34 0 1.3.23 1.3 1.4 0 3.65-3.75 5.54-7.26 5.54h-3.07c-6.17 0-9.34-2.87-9.34-9.13 0-6.26 3.17-9.13 9.34-9.13h2.81c3.51 0 7.25 1.89 7.25 5.55a1.3 1.3 0 0 1-1.29 1.39h-1.5c-.72 0-1.3-.34-1.8-1.4a3.2 3.2 0 0 0-3.1-1.98h-2.24c-3.72 0-4.72 1.37-4.72 5.57s1 5.57 4.72 5.57zm-20.8 3.84c-6.44 0-10.14-2.7-10.14-9.4 0-6.71 3.7-9.42 10.15-9.42s10.14 2.7 10.14 9.41c0 6.7-3.69 9.41-10.14 9.41zm0-15.42c-3.86 0-5.39 2.14-5.39 6.01 0 3.87 1.53 6 5.4 6s5.4-2.13 5.4-6-1.53-6-5.4-6zm-12.6 20.95h.8v5.25h-.8zm-.66-5.92h-2.21a1.2 1.2 0 0 1-1.2-1.18V35.12l-6.57 11.68c-.36.64-1.16 1.18-1.84 1.18h-4.18c-.67 0-1.18-.54-1.18-1.18V31.12c0-.67.51-1.18 1.18-1.18h2.22c.65 0 1.19.51 1.19 1.16v12.6l7.18-12.58c.36-.61 1.1-1.18 1.72-1.18h3.72c.65 0 1.16.54 1.16 1.18V46.8a1.2 1.2 0 0 1-1.19 1.18zm-16.66 6.3c.26.27.39.6.39 1.03 0 .21-.05.42-.16.62a1.59 1.59 0 0 1-.62.5v.02c.3.07.5.22.65.45.14.22.21.48.21.76-.01.45-.15.8-.43 1.07a1.4 1.4 0 0 1-1.02.42h-2.2V53.9h2.02c.52 0 .9.14 1.16.39zm-2.4 4.11h1.23c.29 0 .5-.08.64-.24a.8.8 0 0 0 .2-.55.8.8 0 0 0-.2-.55c-.14-.14-.35-.22-.64-.23h-1.22zm1.15-3.79h-1.14v1.5h1.14c.29 0 .5-.07.64-.22.14-.14.2-.31.2-.52 0-.22-.06-.4-.2-.54-.13-.13-.35-.2-.64-.22zm-7.97-18.06c3.88 0 6.87 1.75 6.87 5.72 0 3.97-3 5.72-6.87 5.72H91.6c-.64 0-1.13-.51-1.13-1.16v-15.7c0-.67.51-1.18 1.18-1.18h14.2c.64 0 1.19.51 1.19 1.18v1.19c0 .64-.52 1.19-1.17 1.19H95.21v3.04zm-6.22 7.88h6.22c1.37 0 2.12-.72 2.12-2.16 0-1.44-.75-2.17-2.12-2.17h-6.22zM83.3 19.73a3.04 3.04 0 1 1 0-6.09 3.04 3.04 0 0 1 0 6.1zm-6.63 1.24c-.84 0-1.51-.68-1.51-1.52s.67-1.52 1.5-1.52c.84 0 1.52.68 1.52 1.52s-.68 1.52-1.51 1.52zM70.54 37.8c-.3.52-1 .7-1.53.4l-3.27-1.86a1.1 1.1 0 0 1-.41-1.5l5.74-9.78c.3-.52 1-.7 1.53-.4l3.27 1.86c.54.3.72.97.41 1.5l-2.7 4.6a12.58 12.58 0 0 1 2.32 15.6 13.01 13.01 0 0 1-12.75 6.27 13.51 13.51 0 0 1-6.13-2.47 13.35 13.35 0 0 1-4.13-4.91c-.42-.93-.72-1.93-.86-3.01h.01l-.02-.23c0-.89.73-1.6 1.63-1.6h13.93c.9 0 1.62.71 1.62 1.6 0 .88-.73 1.6-1.62 1.6H55.56a9.68 9.68 0 0 0 4.15 4.66l-.06.09.1.04a9.96 9.96 0 0 0 13.48-3.55 9.58 9.58 0 0 0-1.24-11.37zm2.48-19.38l-3.6 6.25-.43.75-1.17 2.03a14.96 14.96 0 0 0-15.85 7.24 15.09 15.09 0 0 0 4.31 19.8s2.08 1.3 2.4 1.4a14.95 14.95 0 0 0 19.24-6.15 15.1 15.1 0 0 0-1.59-17.3l1.2-2.07.4-.72 3.62-6.28.41-.73c.3-.53.99-.71 1.52-.4l.72.41 1.2.7c.53.3.71.99.4 1.52l-.4.73c-.32.53-1 .71-1.53.4l-.24-.13-3.46 6.03c-.06.1-.14.2-.22.27a18.17 18.17 0 0 1 .61 19.1 18 18 0 0 1-24.64 6.63 18.15 18.15 0 0 1-6.6-24.74 18.01 18.01 0 0 1 16.92-9l.1-.27 3.48-6.03-.24-.14c-.53-.31-.72-1-.4-1.53l.4-.72c.31-.53 1-.72 1.52-.4l1.2.69.73.42c.53.3.7.98.4 1.52zM93.67 54.3c.26.26.4.6.4 1.02 0 .21-.05.42-.16.62a1.59 1.59 0 0 1-.62.5v.02c.29.07.5.22.65.45.14.22.2.48.2.76 0 .45-.15.8-.42 1.07-.28.28-.62.42-1.03.42h-2.2V53.9h2.03c.52 0 .9.14 1.15.39zm-2.39 4.1h1.22c.29 0 .5-.08.65-.24a.8.8 0 0 0 .2-.55.8.8 0 0 0-.2-.55c-.14-.14-.36-.22-.65-.23h-1.22zm0-3.79v1.5h1.15c.29 0 .5-.07.63-.22.14-.14.21-.31.21-.52 0-.22-.07-.4-.2-.54-.14-.13-.35-.2-.64-.22zm4.24.7c.04-.21.1-.38.17-.5a1.83 1.83 0 0 1 1.64-.94c.5 0 .91.14 1.23.44a2 2 0 0 1 .6 1.11h-.83c-.06-.21-.18-.4-.35-.54-.18-.14-.4-.21-.65-.22-.18.01-.34.05-.48.1a.94.94 0 0 0-.33.28c-.1.11-.16.26-.2.44a11.96 11.96 0 0 0 0 2.1c.04.19.1.33.2.44.08.11.2.2.33.26.13.08.29.12.48.12.45 0 .78-.24 1-.71h.84c-.12.48-.34.86-.66 1.12-.33.26-.72.39-1.18.39-.2 0-.4-.03-.56-.08a1.51 1.51 0 0 1-.47-.22 1.7 1.7 0 0 1-.6-.65l-.11-.22a1.46 1.46 0 0 1-.07-.28 19.03 19.03 0 0 1 0-2.44zm8.27-.65h-2.55v1.5h2.18v.7h-2.18v1.54h2.55v.76h-3.34V53.9h3.34zm9.58 3.05l2.26-3.8h.72v5.25h-.79v-3.82l-2.27 3.82h-.71V53.9h.79zm5.05 0c.08-.23.15-.52.2-.86.06-.34.1-.75.12-1.22.03-.47.04-1.04.04-1.72h2.98v4.5h.62v1.92h-.75v-1.17h-3.22v1.17h-.75V58.4h.48c.1-.21.2-.44.28-.68zm2.55.7v-3.75h-1.44a21.63 21.63 0 0 1-.14 2.39 5.25 5.25 0 0 1-.4 1.35zm3.5-2.44h1.22c.25 0 .47.04.68.12.2.08.37.19.52.33.15.14.26.3.34.5.08.2.12.4.12.64s-.04.46-.12.65a1.48 1.48 0 0 1-.86.83c-.2.08-.43.12-.68.12h-2V53.9h.79zm0 2.43h1.17c.29 0 .5-.07.67-.23a.83.83 0 0 0 .24-.62.84.84 0 0 0-.24-.63.91.91 0 0 0-.67-.23h-1.16zm10.58-1.07l1.47-3.42h.75v5.25h-.8v-3.28l-1.1 2.52h-.66l-1.1-2.52h-.01v3.28h-.8V53.9h.75zm7.24-2.67h-2.54v1.5h2.17v.7h-2.17v1.54h2.54v.76h-3.33V53.9h3.33zm1.9 3.06c.07-.24.14-.53.2-.87.05-.34.09-.75.11-1.22.03-.47.04-1.04.04-1.72h2.99v4.5h.61v1.92h-.75v-1.17h-3.22v1.17h-.75V58.4h.48c.1-.21.2-.44.28-.68zm2.54.68v-3.74h-1.43a21.72 21.72 0 0 1-.15 2.39 5.23 5.23 0 0 1-.4 1.35zm3.51-.69l2.26-3.8h.72v5.25h-.79v-3.82l-2.26 3.82h-.72V53.9h.8zm5.47.7h2.04v-4.5h.79v4.5h.61v1.92h-.75v-1.17h-3.48V53.9h.79zm5.54-.7l2.26-3.8h.73v5.25h-.8v-3.82l-2.26 3.82h-.72V53.9h.8zm5.47-1.56h2.07V53.9h.8v5.25h-.8v-2.3h-2.07v2.3h-.8V53.9h.8zm10.18 0h.54c.1 0 .2-.01.27-.05a.67.67 0 0 0 .2-.16c.06-.06.12-.14.16-.22.05-.08.09-.17.12-.25l.25-.59c.05-.15.11-.28.17-.4.06-.12.13-.22.21-.31a.8.8 0 0 1 .3-.2c.1-.04.25-.06.43-.06h.31v.75h-.17l-.2.01c-.05 0-.1.03-.13.05a.3.3 0 0 0-.1.11 3 3 0 0 0-.08.2l-.33.8a1.18 1.18 0 0 1-.53.6c.17.05.3.13.4.25.1.12.18.26.25.42l.38.91.09.18c.02.05.05.09.09.12.03.03.08.06.13.07.05.02.12.02.2.02h.22v.76h-.4c-.2 0-.36-.03-.5-.1a.87.87 0 0 1-.35-.28 7.67 7.67 0 0 1-.3-.59l-.34-.84a.73.73 0 0 0-.54-.46 1.15 1.15 0 0 0-.2-.02h-.55v2.29h-.79V53.9h.8zm5.3 1.56l2.27-3.8h.72v5.25h-.79v-3.82l-2.27 3.82h-.71V53.9h.79zm4.34-3.8h.9l1.04 1.82 1.04-1.82h.9l-1.5 2.55 1.6 2.7h-.9l-1.14-1.96-1.15 1.96h-.9l1.6-2.7zm12.37 1.4a1.83 1.83 0 0 1 1.81-1.44c.5 0 .92.14 1.24.44a2 2 0 0 1 .6 1.11h-.84c-.06-.21-.18-.4-.35-.54-.18-.14-.39-.21-.64-.22-.19.01-.35.05-.48.1a.95.95 0 0 0-.33.28c-.1.11-.17.26-.2.44a12.15 12.15 0 0 0 0 2.1c.03.19.1.33.2.44.08.11.19.2.33.26.13.08.29.12.48.12.44 0 .77-.24 1-.71h.83c-.11.48-.33.86-.65 1.12-.34.26-.73.39-1.18.39-.2 0-.4-.03-.57-.08a1.51 1.51 0 0 1-.46-.22 1.7 1.7 0 0 1-.61-.65l-.1-.22a1.46 1.46 0 0 1-.08-.28 19.14 19.14 0 0 1 0-2.44zm7.18 2.02l1.47-3.42h.75v5.25h-.8v-3.28l-1.1 2.52h-.66l-1.1-2.52h-.01v3.28h-.8V53.9h.75zm12.23-2.67h-1.43v4.5h-.8v-4.5h-1.43v-.75h3.66zm3.48-.74l.3.05c.18.05.37.15.57.3.16.12.3.29.4.5a1.65 1.65 0 0 1-.24 1.82c-.29.34-.7.51-1.23.52h-1.2v2.05h-.8V53.9h1.9l.3.01zm-1.4 2.44h1.17c.3-.01.51-.1.66-.28a.89.89 0 0 0 .21-.57c0-.18-.03-.33-.08-.45a.67.67 0 0 0-.25-.25c-.17-.1-.36-.15-.57-.15h-1.14zm4.16-1.05c.04-.21.1-.38.17-.5a1.83 1.83 0 0 1 1.64-.94 1.79 1.79 0 0 1 1.82 1.44c.03.2.04.61.04 1.22 0 .6-.01 1-.04 1.22a1.7 1.7 0 0 1-.78 1.15c-.14.1-.3.17-.47.22-.17.05-.36.08-.57.08-.2 0-.4-.03-.56-.08a1.51 1.51 0 0 1-.47-.22 1.7 1.7 0 0 1-.6-.65l-.1-.22a1.52 1.52 0 0 1-.08-.28 19.03 19.03 0 0 1 0-2.44zm.75 1.87c.01.17.03.3.05.4.04.19.1.33.2.44.08.11.2.2.34.26.12.08.28.12.47.12.2 0 .36-.04.5-.12a.86.86 0 0 0 .3-.26c.12-.11.19-.26.22-.44a16.37 16.37 0 0 0 0-2.1.84.84 0 0 0-.21-.44 1 1 0 0 0-.32-.27c-.14-.07-.3-.1-.49-.1a.94.94 0 0 0-.81.38c-.1.1-.16.25-.2.43a11.96 11.96 0 0 0-.04 1.7zm7.65-2.88c.26.26.39.6.39 1.02 0 .21-.05.42-.16.62a1.59 1.59 0 0 1-.62.5v.02c.3.07.5.22.65.45.14.22.2.48.2.76 0 .45-.14.8-.42 1.07-.27.28-.61.42-1.03.42h-2.2V53.9h2.03c.52 0 .9.14 1.16.39zm-2.4 4.1h1.23c.28 0 .5-.08.64-.24a.8.8 0 0 0 .2-.55.8.8 0 0 0-.2-.55c-.14-.14-.35-.22-.64-.23h-1.22zm0-3.79v1.5h1.15c.29 0 .5-.07.64-.22.14-.14.2-.31.2-.52 0-.22-.06-.4-.2-.54-.13-.13-.35-.2-.64-.22z"/><mask id="8d8qc" width="2" height="2" x="-1" y="-1"><path fill="#fff" d="M46 13h189v48H46z"/><use xlink:href="#8d8qa"/></mask><filter id="8d8qb" width="213" height="75" x="34" y="3" filterUnits="userSpaceOnUse"><feOffset dy="3" in="SourceGraphic" result="FeOffset1061Out"/><feGaussianBlur in="FeOffset1061Out" result="FeGaussianBlur1062Out" stdDeviation="0.8 0.8"/></filter></defs><g><g transform="translate(-43 -12)"><g filter="url(#8d8qb)"><use fill="none" stroke-opacity=".53" stroke-width="0" mask="url(&quot;#8d8qc&quot;)" xlink:href="#8d8qa"/><use fill="#d2d2d2" fill-opacity=".53" xlink:href="#8d8qa"/></g><use fill="#fff" xlink:href="#8d8qa"/></g></g></svg>