<svg xmlns="http://www.w3.org/2000/svg" xmlns:xlink="http://www.w3.org/1999/xlink" width="125" height="32" viewBox="0 0 125 32"><defs><path id="9105a" d="M139.22 33.87h-11.87a.79.79 0 0 1-.78-.78v-10.3c0-.43.36-.77.78-.77h1.55c.42 0 .78.34.78.78v8.73h5.54v-8.75c0-.42.35-.76.78-.76h1.55c.42 0 .78.34.78.78v8.73h.9c.42 0 .77.34.77.78v.78c0 .42-.35.78-.78.78zm-14.61-9.51h-7.18v2.4h6.18c.42 0 .78.36.78.78v.78c0 .42-.36.78-.78.78h-6.18v2.43h7.16c.42 0 .76.34.76.76v.8c0 .42-.34.78-.78.78h-9.47a.78.78 0 0 1-.78-.8V22.78c0-.42.35-.76.78-.76h9.5c.43 0 .78.34.78.78v.78c0 .44-.35.78-.77.78zm-12.96 9.5h-1.53a.79.79 0 0 1-.78-.77v-8.73h-6.03v8.73c0 .42-.35.78-.78.78h-1.55a.78.78 0 0 1-.78-.78V22.8c0-.44.34-.78.76-.78h10.71c.42 0 .78.34.78.78v10.29c0 .42-.36.78-.8.78zM92.34 31.6h1.64A2.1 2.1 0 0 0 96 30.3c.32-.7.71-.92 1.19-.92h.98c.21 0 .84.15.84.92 0 2.4-2.45 3.63-4.75 3.63h-2c-4.04 0-6.12-1.87-6.12-5.99 0-4.1 2.08-5.99 6.11-5.99h1.84c2.3 0 4.75 1.24 4.75 3.64 0 .76-.62.92-.84.92h-.98c-.48 0-.87-.22-1.19-.92a2.1 2.1 0 0 0-2.02-1.3h-1.47c-2.44 0-3.1.9-3.1 3.65 0 2.76.66 3.66 3.1 3.66zm-13.61 2.52c-4.22 0-6.64-1.78-6.64-6.18 0-4.4 2.42-6.17 6.64-6.17s6.64 1.78 6.64 6.17c0 4.4-2.42 6.18-6.64 6.18zm0-10.12c-2.53 0-3.53 1.4-3.53 3.94s1 3.95 3.53 3.95 3.53-1.4 3.53-3.95c0-2.53-1-3.94-3.53-3.94zm-8.68 9.87H68.6a.79.79 0 0 1-.78-.78v-7.67l-4.3 7.67c-.25.42-.77.78-1.2.78h-2.74a.78.78 0 0 1-.78-.78V22.8c0-.44.34-.78.78-.78h1.45c.42 0 .78.34.78.76v8.28l4.7-8.26c.23-.4.72-.78 1.12-.78h2.44c.42 0 .76.36.76.78v10.29c0 .42-.36.78-.78.78zM53.1 26.35c2.53 0 4.5 1.15 4.5 3.76 0 2.6-1.97 3.76-4.5 3.76h-6.44a.74.74 0 0 1-.74-.76V22.8c0-.44.34-.78.78-.78H56c.42 0 .78.34.78.78v.78c0 .42-.34.78-.76.78h-6.98v2zm-4.07 5.18h4.07c.9 0 1.38-.47 1.38-1.42s-.49-1.42-1.38-1.42h-4.07zm-5.3-12.75a.82.82 0 0 1-1.11.3l-1.74 3.02a11.02 11.02 0 1 1-10.6-6.12l1.74-3.02a.82.82 0 0 1-.3-1.12l.41-.7a.82.82 0 0 1 1.12-.3l.7.4.71.41c.4.23.52.73.3 1.12l-.4.7-1.55 2.68-1.32 2.3a8.55 8.55 0 0 0-4.97 15.95 8.56 8.56 0 0 0 11.32-12.28l1.33-2.3 1.54-2.67.4-.7a.82.82 0 0 1 1.12-.3l.7.4.71.41c.4.23.53.72.3 1.12zm-2.03-4.7a2.04 2.04 0 0 1 0-4.07c1.14 0 2.05.9 2.04 2.03 0 1.12-.91 2.03-2.04 2.04zm-7.1 10.44c-.21.38-.65 1.11-1.44.68l-2.33-1.36c-.7-.4-.11-1.08.1-1.45l2.89-5.06a.77.77 0 0 1 1.05-.28l2.34 1.36c.37.21.5.69.28 1.06l-1.51 2.64a7.05 7.05 0 0 1 1.13 8.47 6.9 6.9 0 0 1-12.8-2.17 1.16 1.16 0 0 1 1.02-1.72h6.93c.64 0 1.15.52 1.15 1.17 0 .64-.51 1.17-1.15 1.17h-5.35a4.6 4.6 0 0 0 8.2.39 4.7 4.7 0 0 0-.34-5.19zm2.62-8.8a1.23 1.23 0 1 1 0-2.45c.68 0 1.23.54 1.23 1.22 0 .67-.55 1.22-1.23 1.22z"/></defs><g><g transform="translate(-17 -9)"><use fill="#fff" xlink:href="#9105a"/></g></g></svg>