<svg xmlns="http://www.w3.org/2000/svg" xmlns:xlink="http://www.w3.org/1999/xlink" width="64" height="51" viewBox="0 0 64 51"><defs><path id="up2ua" d="M875.03 1278.09a4 4 0 0 1 4-4h21.94a4 4 0 0 1 4 4v38.81a4 4 0 0 1-4 4h-21.94a4 4 0 0 1-4-4z"/><path id="up2ub" d="M845.03 1278.09a4 4 0 0 1 4-4h21.94a4 4 0 0 1 4 4v38.81a4 4 0 0 1-4 4h-21.94a4 4 0 0 1-4-4z"/><path id="up2uc" d="M860 1289.2v13.6"/><path id="up2ud" d="M866.8 1296h-13.6"/><path id="up2ue" d="M882.3 1284h15.4"/><path id="up2uf" d="M882 1293h11"/><path id="up2ug" d="M881.96 1302h14.08"/><path id="up2uh" d="M882.09 1311h14.82"/></defs><g><g transform="translate(-843 -1272)"><g><use fill="#fff" fill-opacity="0" stroke="#3ec4f0" stroke-linecap="round" stroke-linejoin="round" stroke-miterlimit="50" stroke-width="2" xlink:href="#up2ua"/></g><g><use fill="#fff" fill-opacity="0" stroke="#3ec4f0" stroke-linecap="round" stroke-linejoin="round" stroke-miterlimit="50" stroke-width="2" xlink:href="#up2ub"/></g><g><use fill="#fff" fill-opacity="0" stroke="#3ec4f0" stroke-linecap="round" stroke-linejoin="round" stroke-miterlimit="50" stroke-width="2" xlink:href="#up2uc"/></g><g><use fill="#fff" fill-opacity="0" stroke="#3ec4f0" stroke-linecap="round" stroke-linejoin="round" stroke-miterlimit="50" stroke-width="2" xlink:href="#up2ud"/></g><g><use fill="#fff" fill-opacity="0" stroke="#3ec4f0" stroke-linecap="round" stroke-linejoin="round" stroke-miterlimit="50" stroke-width="2" xlink:href="#up2ue"/></g><g><use fill="#fff" fill-opacity="0" stroke="#3ec4f0" stroke-linecap="round" stroke-linejoin="round" stroke-miterlimit="50" stroke-width="2" xlink:href="#up2uf"/></g><g><use fill="#fff" fill-opacity="0" stroke="#3ec4f0" stroke-linecap="round" stroke-linejoin="round" stroke-miterlimit="50" stroke-width="2" xlink:href="#up2ug"/></g><g><use fill="#fff" fill-opacity="0" stroke="#3ec4f0" stroke-linecap="round" stroke-linejoin="round" stroke-miterlimit="50" stroke-width="2" xlink:href="#up2uh"/></g></g></g></svg>