<svg xmlns="http://www.w3.org/2000/svg" xmlns:xlink="http://www.w3.org/1999/xlink" width="61" height="72" viewBox="0 0 61 72"><defs><path id="1xu0a" d="M644 1090a5 5 0 1 1 0 10 5 5 0 0 1 0-10z"/><path id="1xu0b" d="M648 1090l3-7s2-3.97-1-5c-3-1.03-7-3-7-3s-4.04-1.57-5 1c-.96 2.57-14 33-14 33s-2.6 4.82 0 6c2.6 1.18 7 3 7 3s3.75 1.63 5-1c1.26-2.63 7-17 7-17"/><path id="1xu0c" d="M650 1096s16.05 2.4 16 20c-.05 17.6-20 17-20 17h-31l-5 8h44l-5-7"/></defs><g><g transform="translate(-607 -1072)"><g><use fill="#fff" fill-opacity="0" stroke="#05a5f9" stroke-linecap="round" stroke-linejoin="round" stroke-miterlimit="50" stroke-width="2" xlink:href="#1xu0a"/></g><g><use fill="#fff" fill-opacity="0" stroke="#05a5f9" stroke-linecap="round" stroke-linejoin="round" stroke-miterlimit="50" stroke-width="2" xlink:href="#1xu0b"/></g><g><use fill="#fff" fill-opacity="0" stroke="#05a5f9" stroke-linecap="round" stroke-linejoin="round" stroke-miterlimit="50" stroke-width="2" xlink:href="#1xu0c"/></g></g></g></svg>