<svg xmlns="http://www.w3.org/2000/svg" xmlns:xlink="http://www.w3.org/1999/xlink" width="59" height="68" viewBox="0 0 59 68"><defs><path id="ctlna" d="M384 1313s3.98-2.33 4-6c.02-3.67-1.25-5.7-4.7-8.55a20 20 0 1 1 24.95.37c-3.39 2.62-4.43 5.35-4.25 8.18.18 2.83 4 6 4 6"/><path id="ctlnb" d="M369.09 1317.88a3 3 0 0 1 3-3h48.81a3 3 0 0 1 3 3v4.25a3 3 0 0 1-3 3h-48.81a3 3 0 0 1-3-3z"/><path id="ctlnc" d="M396 1270s13.25 3.29 13 15"/></defs><g><g transform="translate(-367 -1260)"><g><use fill="#fff" fill-opacity="0" stroke="#05a5f9" stroke-linecap="round" stroke-linejoin="round" stroke-miterlimit="50" stroke-width="2" xlink:href="#ctlna"/></g><g><use fill="#fff" fill-opacity="0" stroke="#05a5f9" stroke-linecap="round" stroke-linejoin="round" stroke-miterlimit="50" stroke-width="2" xlink:href="#ctlnb"/></g><g><use fill="#fff" fill-opacity="0" stroke="#05a5f9" stroke-linecap="round" stroke-linejoin="round" stroke-miterlimit="50" stroke-width="2" xlink:href="#ctlnc"/></g></g></g></svg>