<svg xmlns="http://www.w3.org/2000/svg" xmlns:xlink="http://www.w3.org/1999/xlink" width="63" height="76" viewBox="0 0 63 76"><defs><path id="rbwja" d="M869 1096l-5 5s-2.39 3.15 1 7 8 7 8 7 3.87 2.74 6 1c2.13-1.74 6-6 6-6s-11.1-5.11-16-14z"/><path id="rbwjb" d="M869 1096s4.23-5.26 8-2c2.1 1.82 8 7 8 7s5.5 3.71-1 9"/><path id="rbwjc" d="M865 1108l-11 12s-3.27 2.98 0 7 8 0 8 0l11-12"/><path id="rbwjd" d="M854 1127s-7.69 8.12 1 14c8.69 5.88 13.05-.94 16-4 2.95-3.06 11.91-13.08 17-14 5.09-.92 9 4 9 4"/><path id="rbwje" d="M878 1087s14.88.47 15 15"/><path id="rbwjf" d="M879 1080s20.37-1.39 22 21"/><path id="rbwjg" d="M880 1073s24.55-3.41 28 27"/></defs><g><g transform="translate(-848 -1070)"><g><use fill="#fff" fill-opacity="0" stroke="#05a5f9" stroke-linecap="round" stroke-linejoin="round" stroke-miterlimit="50" stroke-width="2" xlink:href="#rbwja"/></g><g><use fill="#fff" fill-opacity="0" stroke="#05a5f9" stroke-linecap="round" stroke-linejoin="round" stroke-miterlimit="50" stroke-width="2" xlink:href="#rbwjb"/></g><g><use fill="#fff" fill-opacity="0" stroke="#05a5f9" stroke-linecap="round" stroke-linejoin="round" stroke-miterlimit="50" stroke-width="2" xlink:href="#rbwjc"/></g><g><use fill="#fff" fill-opacity="0" stroke="#05a5f9" stroke-linecap="round" stroke-linejoin="round" stroke-miterlimit="50" stroke-width="2" xlink:href="#rbwjd"/></g><g><use fill="#fff" fill-opacity="0" stroke="#05a5f9" stroke-linecap="round" stroke-linejoin="round" stroke-miterlimit="50" stroke-width="2" xlink:href="#rbwje"/></g><g><use fill="#fff" fill-opacity="0" stroke="#05a5f9" stroke-linecap="round" stroke-linejoin="round" stroke-miterlimit="50" stroke-width="2" xlink:href="#rbwjf"/></g><g><use fill="#fff" fill-opacity="0" stroke="#05a5f9" stroke-linecap="round" stroke-linejoin="round" stroke-miterlimit="50" stroke-width="2" xlink:href="#rbwjg"/></g></g></g></svg>