<svg xmlns="http://www.w3.org/2000/svg" xmlns:xlink="http://www.w3.org/1999/xlink" width="55" height="65" viewBox="0 0 55 65"><defs><path id="qafqa" d="M143 1087h-7s-3.99-.14-4 4v42s-1 3.94 5 4c6 .06 39 0 39 0s5.15.28 5-5c-.15-5.28 0-41 0-41s.39-3.77-3-4c-3.39-.23-7 0-7 0"/><path id="qafqb" d="M149 1084v-4s.04-1.78 3-2c2.96-.22 10 0 10 0s2.9.39 3 2c.1 1.61 0 4 0 4h6v7h-28v-7z"/><path id="qafqc" d="M139 1115h6l7-15 6 26 7-20 4 9h5"/></defs><g><g transform="translate(-129 -1075)"><g><use fill="#fff" fill-opacity="0" stroke="#05a5f8" stroke-linecap="round" stroke-linejoin="round" stroke-miterlimit="50" stroke-width="2" xlink:href="#qafqa"/></g><g><use fill="#fff" fill-opacity="0" stroke="#05a5f8" stroke-linecap="round" stroke-linejoin="round" stroke-miterlimit="50" stroke-width="2" xlink:href="#qafqb"/></g><g><use fill="#fff" fill-opacity="0" stroke="#05a5f8" stroke-linecap="round" stroke-linejoin="round" stroke-miterlimit="50" stroke-width="2" xlink:href="#qafqc"/></g></g></g></svg>